<?xml version="1.0" encoding="UTF-8"?>
<svg xmlns="http://www.w3.org/2000/svg" xmlns:xlink="http://www.w3.org/1999/xlink" id="Layer_1" viewBox="0 0 635.63 698.54">
  <defs>
    <style>.cls-1{fill:#ec2924;}.cls-2{fill:#ca3b12;}.cls-3{fill:#ec2a24;}.cls-4{fill:#fd8929;}.cls-5{fill:#f16122;}.cls-6{fill:#feca1d;}.cls-7{fill:#5995b3;}.cls-8{fill:#e74e17;}.cls-9{fill:#f26a22;}.cls-10{fill:#b38f5e;}.cls-11{fill:#f58d1e;}.cls-12{fill:#f05822;}.cls-13{fill:#fad609;}.cls-14{fill:#589eb0;}.cls-15{fill:url(#linear-gradient-2);}.cls-16{fill:#ba6351;}.cls-17{fill:#ab595d;}.cls-18{fill:#ef5423;}.cls-19{fill:#588fbb;}.cls-20{fill:#678da7;}.cls-21{fill:#589ab2;}.cls-22{fill:#549db3;}.cls-23{fill:#5298c4;}.cls-24{fill:#f27021;}.cls-25{fill:#b7a85b;}.cls-26{fill:#be7351;}.cls-27{fill:#5b9fab;}.cls-28{fill:#da6302;}.cls-29{fill:#f6c80a;}.cls-30{fill:#f16722;}.cls-31{fill:#f47a20;}.cls-32{fill:#55a1af;}.cls-33{fill:#ed3e23;}.cls-34{fill:#f5861f;}.cls-35{fill:#739b97;}.cls-36{fill:#6093ad;}.cls-37{fill:#f9cf0a;}.cls-38{fill:#f4891e;}.cls-39{fill:#5899b1;}.cls-40{fill:#d43008;}.cls-41{fill:#fec03d;}.cls-42{fill:#fce924;}.cls-43{fill:#feb42b;}.cls-44{fill:#5d9ea7;}.cls-45{fill:#f16622;}.cls-46{fill:#ee4923;}.cls-47{fill:#ef5123;}.cls-48{fill:#f8ed14;}.cls-49{fill:#5f91ae;}.cls-50{fill:#e74e18;}.cls-51{fill:#f8e90d;}.cls-52{fill:#708d9d;}.cls-53{fill:url(#linear-gradient-4);}.cls-54{fill:#f37521;}.cls-55{fill:#ed3323;}.cls-56{fill:#febe3c;}.cls-57{fill:#c36249;}.cls-58{fill:#f9eb15;}.cls-59{fill:#f9eb13;}.cls-60{fill:#ed2b24;}.cls-61{fill:#648ab0;}.cls-62{fill:#ed2d24;}.cls-63{fill:#ba474c;}.cls-64{fill:#ee4523;}.cls-65{fill:#f8e91f;}.cls-66{fill:#d85f01;}.cls-67{fill:#f7ee1d;}.cls-68{fill:#feb52b;}.cls-69{fill:#ed3223;}.cls-70{fill:#f5851f;}.cls-71{fill:url(#linear-gradient-3);}.cls-72{fill:#b13f53;}.cls-73{fill:#5798b4;}.cls-74{fill:#b4725a;}.cls-75{fill:#d2dd4d;}.cls-76{fill:#f26e21;}.cls-77{fill:#5b9fa1;}.cls-78{fill:#f27421;}.cls-79{fill:#c24144;}.cls-80{fill:#c2734e;}.cls-81{fill:#d95005;}.cls-82{fill:#51a0b3;}.cls-83{fill:#fad508;}.cls-84{fill:#5d93b0;}.cls-85{fill:#6393a9;}.cls-86{fill:#f9e609;}.cls-87{fill:#b6865c;}.cls-88{fill:#5596af;}.cls-89{fill:#6797a3;}.cls-90{fill:#27a9e1;}.cls-91{fill:#f47c20;}.cls-92{fill:#87a285;}.cls-93{fill:#6193ad;}.cls-94{fill:#548fbc;}.cls-95{fill:#4e9bc0;}.cls-96{fill:#f05b22;}.cls-97{fill:#599baf;}.cls-98{fill:#5f99aa;}.cls-99{fill:#ee4a23;}.cls-100{fill:#f8ea0e;}.cls-101{fill:#f5861e;}.cls-102{fill:#4d9ebb;}.cls-103{fill:#f7ee1a;}.cls-104{fill:#5e92af;}.cls-105{fill:#af3f53;}.cls-106{fill:#997b74;}.cls-107{fill:#c7a34f;}.cls-108{fill:#908666;}.cls-109{fill:#5b8cb5;}.cls-110{fill:#519abc;}.cls-111{fill:#f9b913;}.cls-112{fill:#539eb2;}.cls-113{fill:#945e76;}.cls-114{fill:#f8aa1a;}.cls-115{fill:#f5891e;}.cls-116{fill:#897383;}.cls-117{fill:#f8ec12;}.cls-118{fill:#d0653f;}.cls-119{fill:#eb1f26;}.cls-120{fill:#c36b4a;}.cls-121{fill:#f26a21;}.cls-122{fill:#ed3423;}.cls-123{fill:#9d5035;}.cls-124{fill:#6089b3;}.cls-125{fill:#ab585c;}.cls-126{fill:#bc554c;}.cls-127{fill:#c63c00;}.cls-128{fill:#ed3a23;}.cls-129{fill:#ac9466;}.cls-130{fill:#ed3923;}.cls-131{fill:#b44552;}.cls-132{fill:#8c617f;}.cls-133{fill:#facc0a;}.cls-134{fill:#6596a6;}.cls-135{fill:#43a3c0;}.cls-136{fill:#ec2624;}.cls-137{fill:#5a99b0;}.cls-138{fill:#f8ec14;}.cls-139{fill:#c97748;}.cls-140{fill:#569db1;}.cls-141{fill:#f7ee19;}.cls-142{fill:#7f818e;}.cls-143{fill:#f9c210;}.cls-144{fill:#e76214;}.cls-145{fill:#bc7754;}.cls-146{fill:url(#linear-gradient);}.cls-147{fill:#f9b813;}.cls-148{fill:#f48020;}.cls-149{fill:#ed3024;}.cls-150{fill:#5c96b0;}.cls-151{fill:#fed927;}.cls-152{fill:#c7774a;}.cls-153{fill:#ec2126;}.cls-154{fill:#f6ee20;}.cls-155{fill:#f37321;}.cls-156{fill:#5b9dad;}.cls-157{fill:#ce994a;}.cls-158{fill:#b2ab5c;}.cls-159{fill:#c83b00;}.cls-160{fill:#fad308;}.cls-161{fill:#ae4358;}.cls-162{fill:#a84357;}</style>
    <linearGradient id="linear-gradient" x1="381.18" y1="136.93" x2="381.35" y2="357.7" gradientTransform="translate(-60.35 -60.35)" gradientUnits="userSpaceOnUse">
      <stop offset="0" stop-color="#f8ee1c"></stop>
      <stop offset="1" stop-color="#f6981c"></stop>
    </linearGradient>
    <linearGradient id="linear-gradient-2" x1="430.8" y1="388.86" x2="429.49" y2="755.11" gradientTransform="translate(-60.35 -60.35)" gradientUnits="userSpaceOnUse">
      <stop offset="0" stop-color="#f58b1e"></stop>
      <stop offset=".61" stop-color="#fad805"></stop>
      <stop offset="1" stop-color="#f8ee1f"></stop>
    </linearGradient>
    <linearGradient id="linear-gradient-3" x1="157.19" y1="140.12" x2="156.77" y2="607.02" gradientTransform="translate(-60.35 -60.35)" gradientUnits="userSpaceOnUse">
      <stop offset="0" stop-color="#ee3624"></stop>
      <stop offset="1" stop-color="#fad508"></stop>
    </linearGradient>
    <linearGradient id="linear-gradient-4" x1="677.39" y1="137.44" x2="678.18" y2="277" gradientTransform="translate(-60.35 -60.35)" gradientUnits="userSpaceOnUse">
      <stop offset="0" stop-color="#ed3523"></stop>
      <stop offset="1" stop-color="#f16522"></stop>
    </linearGradient>
  </defs>
  <path class="cls-146" d="M208.37,76.98c.02-.66.2-1.66.61-1.68,3.64-.1,32.06.08,32.58,1.63.3.89-.65,4.72-1.05,5.96.58.18.55.47,0,.85-.64,6.17-.7,12.44,0,18.61.69,16.7.27,33.98-.42,50.19.09,1.39.37,2.71.84,3.94l.26-1.13c7.33.61,14.86.98,22.58,1.13-.21-1.11.16-2.07,1.27-1.27l-.85-.15v-33.96l.85-.57c-1.32-1.18-.24-1.86,1.27-1.27,4.98-.7,11.34-.66,16.49,0,.47.04.84.09.85.15.29,11.46.33,23.76.06,35.22,0,.2-.4.39-.91.58,7.48,1.63,17.54,1.56,25.38-.42.95-2.64,7.9-3.49,9.05-1.47-1.18-8.56-.71-17.15,1.1-25.59-1.65-4.21-1.65-8.48,0-12.69.24-.74.52-.73.85,0,.47,11.55.75,23.16,0,34.68,1.8,1,2.36,5.7,1.11,6.07-.1.03-.51-1.46.58.7,7.58-.56,15.33-.8,22.84,0-1.94.01-2.34-.69-.42-.99-.22-12.2-.08-24.27.42-36.22l.61-.82c4.07.43,8.1.42,12.07-.02l1.4-2.03c12.2-2.83,21.97-11.81,24.17-24.37.62-1.1,1.54-.89,2.35.18,1.38-4.05,1.67-8.53.86-13.42,5.28-2.98,6.35.78,7.03,5.43l1.42,2.07,2.5.71c9.22,11.34,19.62,21.73,31.21,31.15l-.72,1.98c.55,2.05.76,4.41-.58,6.25-11.13-.02-22.22.31-33.27.99-1.59,1.26-1.66,21.8-.55,24.18l2.25,1.57c11.19.71,22.47.71,33.83,0,6.64-2.1,15.96-5.08,18.61-12.69l-.83-2.4c3.9-8.41,4.24-17.17.09-25.57l.73-2.48c.26-.45.54-.44.85,0,1.11.25,2.24.69,3.4,1.3,45.48.11,91.71-.05,138.69-.46,5.52,2.59,8.24.96,8.18-4.9l1.14-1.86c.24-.74.52-.73.85,0,.1,31.35.38,62.09.85,92.2.39.22.35.5,0,.85,0,.28,0,.56,0,.85,13.3-18.17,5.06,11.19,4.95,16.08l-9.18,32.98c.49,5.03-1.31,8.67-1.69,12.69-2.64,9.38-3.44,19.19-5.08,28.76-.06.38-.63,1.33-.85,2.54-34.94-5.26-71.16-8.28-105.73-1.69-10.86,3.09-21.84,6.4-32.93,9.93l-.9-.63-.87-2.14,9.13-20.77c4.72-12.57,8.11-28.35-.6-39.89-6.72,12.12-17.34,20.88-31.87,26.25-6.82,3.47-12.19,8.1-16.13,14.57-3.59,1.27-4.68-1.68-3.27-8.85,2.1-11.59,4.39-23.16,6.87-34.71,2.7-14.64,1.18-31.49-13.15-39.21-1.29,9.92-5.37,18.85-11.28,26.87-7.7,9.31-14.32,19.29-19.85,29.92-5.09,5.08-7.01-13.5-7.2-15.81l-2.76-26.66c-1.83-14.32-8.65-27.01-21.46-34.01,2.02,11.94.22,24.5-3.42,36.1-5.85,13.22-9.63,26.85-11.36,40.87l-2.93-1.02c-6.97-11.3-12.57-23.44-16.78-36.42-4.97-11.74-13.1-22.79-26.3-25.38,2.72,6.64,3.62,38.14.21,42.43-.33.41-.76.74-1.22,1.05l-.85,4.23,1.03,1.78c0,7.01.36,14.02,1.07,21.03,2.66,12.63-5.61,3.77-9.98-1.02l-18.12-23.74c-8.04-10.1-19.84-18.22-33.09-13.16,6.9,9.34,11.73,19.67,13.39,31.41,1.39,11.08,3.32,22.06,5.79,32.92,2.85,6.69,2.48,9.2-1.11,7.52l-21.29-14.75c-12.47-8.63-30.04-14.43-42.39-3.42,5.8,3.6,11.67,7.57,15.93,13,2.81,3.57,7.29,10.25,5.88,14.42.73.24.72.52,0,.85-5.69-.53-11.79-2.51-16.92-5.08-35.36-12.83-78.44-19.01-115.03-8.46-3.68,1.66-8.67,2.64-12.69,3.38-1.2-.87-2-1.47-2.54-2.95-4.74-13.11-8.21-49.15-8.45-63.87l-.85-7.61c-.04-2.4.7-5.93-.85-7.61-.82-1.75-1.04-4.3,0-5.92.56-21.46.85-43.46.85-65.98.5-11.51.78-23.36.85-35.53l.59-1.69,143.05.06c1.39-1.12,2.57-1.14,3.53-.06.6,5.02.88,10.09.85,15.23l.44.68c-2.05,13.5.9,24.27,8.87,32.3,2.34-.62,7.99,1.97,8.46,4.23,1.77.57,3.47,1.13,5.08,1.69,9.42.49,18.84.63,28.27.43l.49-24.96-1.13-1.25c-8.19.43-16.16.12-23.91-.91l-2.03-2.92c-.7-16.33-.65-32.72,0-49.06Z"></path>
  <path class="cls-45" d="M.29,219.08v-82.05c-.08,27.28-.62,54.78,0,82.05Z"></path>
  <path class="cls-46" d="M1.14,38.91c.8,7.57.54,15.25,0,22.84-.08,9.25-.79,18.98-.85,27.91l.85-55.83c0,1.69,0,3.38,0,5.08Z"></path>
  <path class="cls-15" d="M616.07,332.42c-42.68,163-149.99,291.01-300.09,366.06-3.42.79-15.21-5.62-19.1-7.53-64.51-31.61-122.89-80.65-168.01-136.07l-.91-2.5c-5.09-4.64-6.14-9.2,2.41-6.15,1.75-1.26,3.34-1.46,5.4-1.63,5.07-.4,26.57-.89,30.04.76,1.35,1.51,2.86,2.71,4.5,3.6,2.12.21,4.09,1.9,5.92,5.08,2.39-.63,4.98,2.5,4.88,4.64,2.2,1.67,2.82,2.95,1.89,3.82,10.99,12.43,22.83,23.99,35.53,34.68,10.74,9.19,22.01,17.37,33.83,24.53,1.73.19,3.39.65,4.87,1.57,18.77,11.75,37.54,23.27,57.46,33.03,11.21-6.18,22.29-12.53,33.25-19.05l2.54-.33c7.83-5.26,15.72-10.33,23.68-15.23-.07-.6.5-1.16,1.69-1.69-.06-.52-.07-.95.14-1.09,3.05-2.16,9.09-5.66,12.51-7.6.19-.11.52.03.88.24l4.23-2.54c-.73-.23-.71-.52,0-.85,8.8-7.43,17.83-14.48,27.07-21.15-.98-1.11-.5-1.55.85-.85,1.22-2.36,3.47-4.06,5.92-5.08,5.74-6.06,11.66-11.99,17.76-17.76-1.51-.9-.74-1.4.85-1.69,3.66-4.77,7.61-9.33,11.84-13.68,7.54-11.19,16-22.38,27.07-30.3-.78-1.78,1.78-2.65,3.38-2.54.65-1.53,1.98-2.58,3.38-3.38-.73-.24-.72-.52,0-.85,3.14-3.96,6.25-7.91,9.3-11.84-.26-1.2.66-2.6,1.69-3.38,1.27-4.12,3.45-8.14,6.54-12.06-.32-1.5.34-2.26,1.91-2.32-1.02-1.16-.57-1.42.85-.85,1.38-3.23,3.06-6.32,5.03-9.26,1.61-6.83,5.7-13.2,11.04-17.81-.56-.79,0-1.36,1.69-1.69-.92-1.17-.45-1.58.85-.85,1.24-3.55,2.93-6.93,5.08-10.15-.69-2.59.18-4.63,2.54-5.92.42-.9.98-1.47,1.69-1.69,2.25-4.58,4.51-9.09,6.77-13.53-.73-.28-.73-.56,0-.85.87-3.57,2.23-7.1,4.08-10.59-.81-2,.37-4.9,2.69-5.48,1.45-5.66,3.11-11.12,5.37-16.67l2.24-1.1c3.76-10.12,7.25-20.34,10.48-30.65-.62-.83-1.01-1.6-1.17-2.34-.74-.24-.73-.52,0-.85.79-1.35,2.51-3.49,4.23-4.23-.46-.92-.18-2.05.85-3.38-1.3-1.3-.98-2.28.85-2.54-1.72-1.78-1.71-3.08.85-3.38-1.07-2.66-1.73-5.12,2.11-5.08,0-.65.15-1.66.57-1.69,5.36-.44,22.99-.9,27.61,0l1,1.69-1.68-.35c.54-7.22,6.24-2.57,9.3.35Z"></path>
  <path class="cls-71" d="M1.14,61.75c1.39.23,2.3,1.57,2.44,2.96l.08,14.14c5.19,3.81,8.58,2.98,14.38,1.38,4.3.54,8.57.86,12.81.93l1.45-11.68,1.83-.97c.43,13.78.7,27.76-.85,41.45-.57,16.17-.85,32.8-.85,49.9.78,17.73,3.38,65.97,3.38,65.98,0,0,4.37,42.87,9.83,62.69,1,1.43,1.39,2.81,1.16,4.13l-.71.99c1.62,10.68,4.11,21.07,7.48,31.15l4.25-.12c25.67-8.01,53.35-6.15,79.49-2.42,4.64-.41,9.88,1.07,14.38,2.54l5.08,1.69c2.11-.26,4.36.02,6.77.85,8.12-.37,17.22,2.7,23.68,7.61l1.58,1.41c3.61.49,5.06,1.43,4.34,2.82l-1.28,1.7c-43.71,1.5-87.76,1.59-132.15.26,1.25,2.9,2.19,5.95,2.81,9.14l-1.33,1.58c1.48.61,1.91,1.6,1.22,3,2.87,9.81,5.85,19.52,8.93,29.14.66.11.94.39.85.85l2.36,1.43c2.42,6.87,4.73,13.73,6.95,20.56l2.01.8c.09,3.14.29,6.11,3.05,8.37l-.84.98,1.16.05c-.82.96-.84,2.24-.31,3.33,1.46.56,1.54,1.28,0,1.69,4.49,10.47,9.85,20.34,16.07,29.6l2.03,1.35c5.46,8.54,10.42,17.4,14.89,26.56,1.93-.89,2.22-.04.85,2.54.43-.06.8-.06.93.11,3.43,4.55,8.57,12.47,11.49,17.45.1.18-.18.58-.58,1.05l8.46,11.84c2.12-.09,4.17,3.14,5.08,5.08.58.13.86.41.85.85l3.37,1.92c2.48,1.68,18.42,23.14,19.88,26.5.27.62.38,1.32.43,2.03-2.54.88-2.41-1.48-3.59-1.95-3.13-1.23-27.62-1.01-32.4-.64-1.81.14-3.08,1.69-4.05,1.6-.33-.03-7.19-3.17-4.74.94.23.39,4.81,2.53,3.34,5.97C53.88,462.77,3.01,338.97.29,219.08-.06,191.73-.06,164.38.29,137.03c.05-15.7-.11-31.6,0-47.37l.85-27.91Z"></path>
  <path class="cls-53" d="M634.67,95.21c.39,38.14,1.94,78.06,0,115.88-.26,2.82-.82,5.08-1.69,6.77,0,.65-.15,1.65-.57,1.69-7.24.71-23.45.82-30.58,0l-2.09-1.43c.69-8.65.84-16.73,1.1-21.41.54-7.63.82-15.52.85-23.68v-66.82c-1.09-13.5-1.43-27.07-.85-40.6,1.4-1.12,1.98-.65,2.41.97l.86,9.22,27.1.76c-.53-6.5.07-12.68,1.78-18.56-2.98-.33-2.58-7.85.85-6.77l.85,43.98Z"></path>
  <path class="cls-3" d="M633.83.85c-.24.74-.52.73-.85,0l-.82,1.69H3.05L1.98.85c.4-.04.78-.05,1.13.07,1.45.49.81,26.83.56,30.24l-1.69.99c1.53-3.17,7.01-2.63,9.74-.52l.9-.83c6.03-.8,11.86-.52,17.49.86,4.82-2.92,8.13-2.48,9.94,1.33l1.99-1.08c184.8-.29,369.54-.09,554.23.61,6,.23,7.53,1.23,4.58,3.01-.24.74-.52.73-.85,0l-20.8.92c-181.73-.1-362.62-.13-542.67-.08l-1.55-.84c-.36,6.58-.64,13.07-.85,19.45l-.93,8.4c-1.69,2.46-28.49,1.89-29.65.94-1.31-1.07-1.7-3.24-1.87-4.86.08-6.86-.1-13.71-.53-20.54v-5.08c0-.41-.59-1.39-.59-2.43,0-10.39,1.09-20.92.58-31.4l632.69.85Z"></path>
  <path class="cls-1" d="M633.83,33.84v12.69c.01,1.16-.27,2-.85,2.54-1.46,1.36-4.06,1.32-7.8-.11-7.68.96-15.4,1.28-23.16.96l-1.18-1.69c-.7-4.03-.53-8.64,0-12.69-.06-.64.35-1.41-.49-1.77l-4.12-.8-556.18.04c-1.31-1.26-.89-2.48,1.24-3.64,197.32-.86,393.81-.45,589.47,1.23.63-9.42.8-19,.53-28.74l1.69-.99h.85c-.49,10.2.59,20.46.59,30.55,0,1.04-.59,2.02-.59,2.43Z"></path>
  <path class="cls-121" d="M602.66,217.99l30.33.24c.51,0,.49-6.07,1.69-6.77-.22,4.26-.54,8.44-.85,12.69-1.12,7.05-2.06,14.11-2.82,21.18l-1.13.54c-3.65-2.71-15.71-3.56-19.85-2.4-1.1,2.35-3.7,2.41-4.73.03l-2.02-.03c-1.83,3.05-5.25,2.3-5.02-1.36l2.35-28.92c.11.87,2.04-1.96,2.06,4.8Z"></path>
  <path class="cls-54" d="M597.25,245.55c1.73,1.4,1.43,5.52.38,9.5,10.39.9,22.65,1.59,32.81.39-.86,6.81-1.25,13.52-2.54,20.3-1.25,4.52-4,3.42-7.53,1.93l-1.58,1.16c-7.42-.3-14.78-.17-22.08.38-1.3-1.12-2.54-1.93-4.33-1.95,0,0,3.86-28.07,4.86-31.71Z"></path>
  <path class="cls-24" d="M600.55,213.82c-.11,4.69-2.54,27.93-.54,29.79,2.37.59.98-1.53,2.9-1.76,4.74-.56,3.62,1.63,4.29,1.77,1.95.42.85-1.46,1.81-1.71,1.47-.4,13.96-.3,15.98-.02,2.16.3,3.38,1.34,5.04,2.56,1.97-.11,1.09-7.7,1.35-9.62.45-3.26,1.68-7.38,2.45-10.66-.77,10.61-2.06,20.82-3.38,31.3l-2.03,2.49-32.65-.81.83-9.9-.05-.37c1-12.75,1.7-18.65,2.86-26.37l1.15-6.68Z"></path>
  <path class="cls-91" d="M593.23,276.59c4.25-2.28,3.07.55,3.4.81,2.01,1.55.98-2.11,2.93-1.67.93.21-.35,2.18,1.69,1.72.93-.21-.35-2.18,1.69-1.72.93.21-.35,2.18,1.69,1.72.93-.21-.35-2.18,1.69-1.72.93.21-.35,2.18,1.69,1.72.93-.21-.35-2.18,1.69-1.72.93.21-.35,2.18,1.69,1.72.93-.21-.35-2.18,1.69-1.72.93.21-.35,2.18,1.69,1.72.93-.21-.35-2.18,1.69-1.72.94.21-.37,2.17,1.69,1.71.8-.18.17-1.68.9-1.75,2.25-.22,6.08,3.63,8.83.05-.5,2.64-1,5.02-1.69,7.61l-2.06,9.42c-2.52,2.51-29.23,1.07-34.07.02l-.24-4.36-.33-3.29c1.59-8.7,3.74-17.96,4.74-24.28.1-.63-.69,10.08-1.01,15.72Z"></path>
  <path class="cls-70" d="M587.31,305.35c2.04-1.54,7.88-3.1,7.19.85-.19-2.47,12.62-2.11,13.19-1.69s1.02.95,1.19,1.69c-1.04-2.86,12.43-2.33,12.83-1.73l.28,3.43c-.26.89-.55,1.68-.85,2.54-.06.18-.91.79-1.26,1.67-1.14,2.92-1.56,8.48-5.09,8.48h-25.38c-1.32,0-3.56,1.73-5.5-.85-.03-1.33,1.53-13.78,2.18-14.13.35-.19.76-.24,1.2-.25Z"></path>
  <path class="cls-148" d="M621.99,307.89c-1.27-1.04.1-2.14-1.75-2.16-1.69-.02-4.8.5-6.31.34-4.18-.43-3.62.13-5.05.13h-14.38c-.26,0-.95-.76-1.75-.8-1.84-.09-3.69,1.51-5.44-.05-1.04-2.19-.77-5.07.79-8.63-.02-2.37.23-6.33.85-7.79,1.39-12.78,2.25,2.95,2.25,2.95,4.59-.29,30.85,1.82,32.92-.89.95-1.24.51-4.25,1-5.81.3-.94,1.07-1.71,1.09-1.81-.99,7.84-1.99,17.01-4.23,24.53Z"></path>
  <path class="cls-46" d="M634.67,95.58c-.15-14.36-.76-29.35-.85-43.98-.76-.16-.72-.44,0-.85-.48-1.31-.48-2.72,0-4.23-.01-4.2,0-8.36,0-12.69l.85,61.75Z"></path>
  <path class="cls-25" d="M539.94,433.08c.11-1.6.67-3.29,1.69-5.08,1.22-2.27,2.26-4.46,3.38-6.77-1.21-1.17-.64-1.45.85-1.69h.85c-2.01,4.68-2.95,9.88-6.77,13.53Z"></path>
  <path class="cls-69" d="M34.13,54.98c.66,4.44.71,9.07,0,13.53l-1.78,14.29c-5.27.99-9.71-1.29-15.62-.82-2.35.19-3.33,1.35-4.31,1.49-3.27.45-7.6-1.82-10.31-3.62-.83-5.83,1.06-12.56-.97-18.11.06-7.6,0-15.24,0-22.84,2.88,4.98-2.07,21.67,3.42,24.09,6.51-.95,20.29,1.59,26-.11,4.93-1.47,1.24-4.66,3.57-7.91Z"></path>
  <path class="cls-144" d="M34.13,180.17c.86,8.13.74,16.42,0,24.53-.02,1.97.65,9.47-.84,9.3-1.2-18.01-.8-36.07-.85-54.13.24-.74.52-.73.85,0,.06,6.76.75,13.94.85,20.3Z"></path>
  <path class="cls-8" d="M33.28,159.87h-.85c-.05-15.06-.2-30.19-.01-45.26.02-1.43-.54-3.76.86-4.64-.11,16.61-.14,33.3,0,49.9Z"></path>
  <path class="cls-149" d="M600.84,56.68c2.32-3.08,3.7.47,3.51,3.23,7.55.64,15.15.75,22.78.32,1.09-2.68,4.27-5.19,5.86-1.86-.06,6.75.05,13.55,0,20.3l-30.43-.85c-.49-3.46-.55-7.02-.92-10.49-.07-.69-.77-1.19-.78-1.35-.8-2.83-.65-6.43,0-9.3Z"></path>
  <path class="cls-3" d="M632.98,49.06c.34.07.62.64.85,1.69,0,.28,0,.56,0,.85-1.51,1.4-.83,4.65-.85,6.77-4.07-.65-4.37,3.37-4.7,3.44-2.23.46-21.28.4-23.64-.06-4.11-.8-.08-5.24-3.8-5.08-.73-2.71-.67-5.79,0-8.46l16.53.04c2.85-.32,5.54-1.19,8.47-.95.74.06,6.82,1.57,7.14,1.76Z"></path>
  <path class="cls-28" d="M601.69,173.4c0,6.33.09,12.7.01,19.04-.02,1.43.54,3.76-.86,4.64,0-.28,0-.56,0-.85-.82-23.39-.8-46.82,0-70.2h.85v47.37Z"></path>
  <path class="cls-50" d="M601.69,173.4c0-15.77.07-31.59,0-47.37-.03-6.47.06-12.98,0-19.45v66.82Z"></path>
  <path class="cls-153" d="M632.98.85v31.3s-8.21.46-8.21.46c-193.02-3.96-388.88-.6-583.03-1.79l-1.69,2.17h-3.39c.39-.94,1.67-1.99-.43-1.72-1.96.25-6.34,2.55-7.59,2.6-.69.02-.07-1.56-.86-1.74-2.06-.47-.75,1.5-1.69,1.71-1.96.44-.86-1.52-1.77-1.69-.37-.07-7.09-.07-7.45,0-.57.11-.53,3.08-2.18,1.66-.29-.25.75-2.13-1.28-1.68-.79.18-.16,1.72-.85,1.73-1.28.02-2.81-1.91-4.6-2.21-1.89-.32-3.97.86-5.98.49V.85h631Z"></path>
  <path class="cls-130" d="M633.83,50.75c-.95-.13-.76-1.64-.85-1.69l.85-2.54c0,1.41,0,2.82,0,4.23Z"></path>
  <path class="cls-100" d="M427.44,581.1c-.42-.26-.41-.54,0-.85,5.19-4.79,10.16-10.31,15.23-15.23.2-2.03.71-2.9,2.54-1.69-6.41,6.99-10.56,11.28-17.76,17.76Z"></path>
  <path class="cls-115" d="M574.62,346.8c.01-.07-1.03.28-.73-1.12.28-1.29,1.49-2.01,1.57-2.26l-.85,3.38Z"></path>
  <path class="cls-66" d="M34.97,93.89c.11,28.9-.17,57.66-.85,86.28-1.7-6.19-1.28-13.74-.85-20.3-.8-16.61-.81-33.29,0-49.9.09-13.83.62-27.62.85-41.45.07-4.5-.04-9.03,0-13.53.03-3.54-.74-17.87.85-19.45.67.07,1.67.31,1.69.79.61,12.16.55,27.09,0,39.31-.01.28-.56.54-1.27.8.2,5.96.06,11.79-.43,17.47Z"></path>
  <path class="cls-114" d="M102.64,450.84c.12.22-.12.63,0,.85-2.04.05-2.54-1.6-3.39-2.96-2.71-4.33-12.27-22.53-12.68-26.65,5.18,6.8,8.19,15.29,12.25,22.85,1.12,2.09,2.7,3.87,3.82,5.91Z"></path>
  <path class="cls-81" d="M600.84,48.22c.03,2.81-.1,5.65,0,8.46.11,3.07-.23,6.25,0,9.3.45,13.54.72,27.05.85,40.6v19.45c-.24.74-.52.73-.85,0-.03-11.04-.31-21.76-.85-32.14.06-6.19-.51-12.28-1.69-18.27v-39.08l1.69-1.02h.85c.36,3.95-.04,8.61,0,12.69Z"></path>
  <path class="cls-38" d="M616.07,332.42c-2.54,1.88-4.1-2.32-6.33-2.55-2.34-.25-.95,2.55-1.28,2.55h-29.18c-1.23,1.34-1.56,3.39-2.11,5.08-42.04.13-84.29-.1-126.75-.67l-4.35-1.02c-.74-.24-.73-.52,0-.85-.02-.64.02-1.17.26-1.29,2.97-1.49,10.98-4.46,14.08-4.7.27-.02.57.39.88.92,7.67-2.31,14.44-1.75,22.93-.46,29.05,1.03,58.92.81,87.52.14,5.77-.14,7.26-.93,7.97-6.44.22-.6.5-.59.85,0,.26-.73.54-.72.85,0,.66-1.74,1.51-2.86,2.54-3.38,1.6-.42,4.78-1.11,5.5.85.08-.66.27-1.63.75-1.69,4.43-.57,19.04-.61,23.41,0l1.22,1.69c1.52-3.37,2.95-6.83,4.3-10.4l2.04.25c-.91,7.49-3.17,14.73-5.08,21.99Z"></path>
  <path class="cls-90" d="M134.78,421.23c32.5,6.17,64.08,15.76,94.73,28.76,5.28.66,10.35,2.35,15.23,5.08,10.14,3,20.45,6.14,30.45,9.3,51.91,12.38,102.85-5.26,151.41-23.68,24.25-10.37,50.61-17.65,76.87-20.02,6.31-.57,39.03-2.47,41.76-.47.12.09,0,.51-.21,1.03-.27,2.42-1.24,5.63-3.38,6.77-.85,2.42-1.98,4.68-3.38,6.77-.85,1.97-1.69,3.95-2.54,5.92-1.46,3.19-3.15,5.73-5.08,7.61-.32,1.68-1,2.7-2.86,2.8-31.01.4-61.7,6.18-91.03,17.5,1.15,1.19.62,1.72-.85.85-10.29,3.25-20.44,6.92-30.45,11-19.36,7-38.99,13.89-59.21,16.92-34.29,7.65-71.24,2.68-103.19-10.15-31.73-12.02-62.15-22.85-95.07-31.24-.76-.19-1.49-.53-2.2-.9-6.1-.83-12.02-1.95-17.76-3.38l-25.09-1.86c-5.31-9.34-10.44-18.81-15.38-28.39-.23-.76-.56-2.99-.41-3.05,8.6-3.29,35.39.2,45.46,2.08.75.14,1.46.43,2.17.77Z"></path>
  <path class="cls-101" d="M576.31,340.88c-.29.84-.57,1.7-.85,2.54-.97,1.22-1.25,2.34-.85,3.38-.12.69-.74,4.04-.89,4.19-.25.26-2.5-.02-3.34.04-7.26-.1-14.59-.38-21.99-.85-.16.75-.44.72-.85,0-22.44-1.78-46.68-.33-68.79,3.61l-.57-1.08-10.23,1.29c-13.44-.68-26.85-.87-40.22-.55l-2.38,1.73c-4.7-3.44-11.56-2.56-16.9,0-1.83.03-6.26-1.93-5.55-4.17,2.98-2.32,6.36-3.59,10.15-3.38,9.91-4.88,20.33-8.03,31.27-9.45,44.09-.58,87.99-.53,131.72.15l.25,2.54Z"></path>
  <path class="cls-119" d="M259.97,622.54c33.64,10.23,68.32,9.88,102.35,1.69,2.53-1.27,5.69-2.26,8.46-1.69-6.18,5.38-12.95,10.17-20.3,14.38-11.49,7.64-23.24,15.07-35.81,20.95-20.93-10.63-43.5-22.09-62.31-36.18-2.12-.48-2.96-1.33-2.54-2.54,2.62-.74,7.93,1.58,10.15,3.38Z"></path>
  <path class="cls-76" d="M553.47,402.62c-1.29,5.67-4.56,10.83-6.77,16.07-1,.71-1.44.31-.85-.85-2.22-1.94,1.34-9.66,4.23-10.15l-1.59,1.69h-111.15l-1.03-1.69c-1.8,1.72-4.61,2.28-8.43,1.69-3.1.79-5.51.5-7.22-.85-.74-.24-.73-.52,0-.85.92-1.77,4.91-3.35,6.77-2.54,9.47-4.69,19.02-7.51,28.66-8.46.15-3.23,4.46-2.75,6.82-1.67h89.42c3.21.67,3.59,3.2,1.13,7.6Z"></path>
  <path class="cls-78" d="M561.09,384.86c-2.35,5.86-4.1,12.53-7.61,17.76.48-2.13,1.56-5.87-1.27-5.92l-89.61-.04-4.69-1.66v3.39c-3.08.17-7.44-.9-10.39.04-5.96,1.9-13.38,4.66-20.06,6.72,8.75-5.43,19.49-8.82,29.49-11.83,33.35-10.06,71.08-12.62,104.15-8.47Z"></path>
  <path class="cls-55" d="M220.21,542.19c.25-.47.46-.82.54-.79,14.27,4.62,29.89,9.97,43.99,15.09.19.07.26.45.3.93l-3.95.93c-25.65-.06-51.31-.09-76.98-.09,7.89,2.53,15.72,5.5,23.51,8.89l.75,2.12c.27-1.32,2.15-1.34,2.54,0,1.18.64,1.46,1.2.85,1.69l-.94.51c-9.06-3.41-18.05-6.4-26.97-8.97-.25.62-.53.61-.85,0-.83-1.81-5.03-6.03-6.77-8.46l-7.84-9.1c-.65-1.81.71-3.14,2.36-3.86,13.6.44,27.19.43,40.77-.04l8.69,1.16Z"></path>
  <path class="cls-128" d="M484.96,517.66c-13.09,14.51-25.63,29.55-38.91,43.98-.9,1.17-2.13,1.72-2.54,0-.49-3.08,3.81-6.55,6.77-5.92.4-.65.14-1.28-.51-1.9l8.06-8.93c-13.26-.09-27.1-.28-40.56-.89-1.13-.05-2.26-.32-3.38-.63s-2.25-.73-3.35-1.19c9.76-5.85,21.08-9.73,32.14-12.69,9.7-4.44,20.01-7.93,30.45-10.15,1.16-1.01,10.68-3.21,11.14-2.85.33.26.54.68.7,1.16Z"></path>
  <path class="cls-128" d="M220.21,542.19c-16.21,1.25-32.78,1.04-49.1.45-3.68,2.22,1.06,4.53,2.92,7.24.96,1.4,1.61,3.33,2.19,4.15-1.71-1.52-4.48-3.48-5.92-5.08-8.53-9.43-15.74-20.8-23.68-30.45,24.13,5.09,47.69,12.26,70.68,21.51l2.91,2.18Z"></path>
  <path class="cls-12" d="M528.1,453.38c-5.32,8.99-10.5,18.1-16.07,27.07-.73.43-1.08.01-.85-.85-2.37-.91-1.8-1.75,1.69-2.54l-.61-2.05c1.68-2.75,3.01-5.45,3.99-8.1l-.78,1.69h-62.06l-1.02-1.69c2.3,5.32-8.29,3.42-2.96-.85,10.8-4.42,22.17-8.05,33.83-9.3.94-1.45,4.33-1.37,5.92-.85,1.48-.62,3.18-.9,5.08-.85,2.61-1.53,7.11-1.38,10.15-.85,5.04-.58,10.11-.86,15.23-.85,2.04-1.37,6.45-1.33,8.46,0Z"></path>
  <path class="cls-115" d="M577.16,337.5c-.28.86-.36,1.95-.85,3.38-.92-1.65-1.8-1.15-3.21-1.13-44.18.75-89.35-1.55-133.44.32-8.94.38-17.76,4.64-26.61,7.58-.74-.24-.73-.52,0-.85,7.76-3.67,15.79-6.98,24.09-9.92l1.29.61c2.29-1.16,5.16-2.03,7.61-1.69,41.78-1.17,85.88,1.06,128.58-.49,2.08-.08,2.38-.08,2.53,2.19Z"></path>
  <path class="cls-88" d="M211.75,570.95c13.9,4.56,27.71,9.63,41.45,15.23l2.14-1.01,14.49,4.91,1.14,2.02c.74.24.73.52,0,.85-6.2.51-12.5-.64-18.9-3.46-19.81-7.48-39.4-14.57-58.78-21.26,13.21,13.01,26.78,25.74,41.49,37.09,24.94,19.25,56.33,22.55,86.99,21.29,25.04-1.03,51.32-5.07,70.84-21.14l2.69.16c.13.87-.43,1.72-1.69,2.54-.12.21.13.65,0,.85l-4.23,2.54c-3.65,2.79-9.36,6.95-13.53,8.46-.87.82-2.29,1.62-3.38.85-3.45,1.36-7.12,2.49-11,3.38-33.72,8.61-68.57,8.1-101.5-1.69-3.12-1.01-7.25-2.22-10.15-3.38-.46.38-.88.65-1.15.54-7.06-2.88-23.25-16.92-29.68-22.56-.25-.22-.42-.48-.47-.82-12.36-9.91-25.31-20.64-34.68-33.83.24-.39.58-.78,1.09-.67,7.14,1.51,19.49,6.44,26.83,9.13Z"></path>
  <path class="cls-21" d="M559.39,351.87c3.31-1.09,6.98-1.09,11,0,.89.19,2.49,1.52,2.18,2.59-3.26,10.37-7.48,20.39-11.48,30.4-4.12,1.17-8.99-.7-13.08-.88-41.96-1.91-82.37,3.56-120.57,21.18-2.51.77-4.71,1.88-6.77,2.54-5.67,2.25-11.46,4.17-17.38,5.76l-1.23-.68,2.1-1.92c29.9-12.95,60.55-24.45,93.12-28.34,20.98-2.51,41.71-2.05,61.89-.56,1.85-3.19,10.44-26.18,9.03-26.87l-17.06-1.42-1.06-1.79c2.86-.8,5.96-.8,9.3,0Z"></path>
  <path class="cls-139" d="M545.86,417.85c.15.02.52.69.85.85-.1.24.1.61,0,.85-.25.6-.53.59-.85,0-39.11-1.93-76.61,4.77-113.34,17.76h-1.69c-1.09-4.12,6.57-4.18,9.3-3.38l1.93-2.49c13.62-5.81,28.09-9.67,42.9-11.05.16-.75.44-.72.85,0,1.59-.74,3.52-.97,5.08,0-.22-1.98,2.68-2.89,4.5-3.17,7.97-1.2,43.68-3.58,48.74-.68.62.36,1.19.82,1.73,1.31Z"></path>
  <path class="cls-104" d="M511.18,481.29c-2.84,4.58-5.51,9.69-8.46,14.38-.92,1.15-1.76,2.28-2.54,3.38-2.3,4.24-5.11,8.18-8.46,11.84-.13.2.12.63,0,.85-1.4.86-2.67,1.86-3.38,3.38-1.08,1.04-2.4,1.45-3.38,2.54-4.05-.28-7.87.95-11.84,1.69-1.41.5-2.53.5-3.38,0l.27-1.83,15.5-4.3c1.51-.95,21.88-28.91,20.1-28.93-3.82-.05-7.9.36-11.71.82-5.86.71-11.69,1.59-17.45,2.88l-4.18-.78h-2.54c.36-.58.76-1.08,1.27-1.3,4.72-2.02,39.58-8.11,40.29-5.5.07.26,0,.57-.11.88Z"></path>
  <path class="cls-36" d="M530.64,450.84c-.18.3-.66.53-.85.85-7.13.95-14.46,1.52-21.99,1.69-1.08.57-2.37.62-3.38,0-4.72.49-9.52,1.05-14.38,1.69-.19.52-.48.48-.85,0-2.72.47-5.54,1.03-8.46,1.69-10.6,2.41-21.03,5.23-31.3,8.46-3.37,1.67-8.03,3.42-11.83,4.29-.21.05-.52-.36-.86-.9,6.41-2.94,13.38-5.29,20.13-7.36,20.44-6.29,38.43-8.87,59.77-10.44,5.61-.41,9.98,1.95,13.99-2.5.77-.02.77.83,0,2.54Z"></path>
  <path class="cls-23" d="M436.75,565.03c2.45-1.48,9.36-4.07,5.92,0-4.5,5.53-9.63,10.79-15.23,15.23-2.25,1.73-4.22,3.7-5.92,5.92-.3.26-.55.59-.85.85-2.17,1.12-4.21,2.53-6.11,4.21l-.66-.82c-.6-.42-.87-.95-.71-1.63l22.41-20.26-13.58,5.12-2.2-1c-.74-.24-.73-.52,0-.85,4.46-3.4,11.32-6.38,16.92-6.77Z"></path>
  <path class="cls-48" d="M183.84,562.49c6.18,6.59,12.42,13.31,19.02,19.49,4.85,4.55,10.68,10.14,15.66,14.34v.85c-9.79-8.27-30.9-24.55-35.53-34.68h.85Z"></path>
  <path class="cls-18" d="M511.18,479.6c.38.04.76.45.85.85-.2.33-.67.56-.85.85-.87-1.45-3.15-.89-4.54-.75-12.25,1.23-25.32,2.73-36.91,6.67l-16.22,4.84-.7-.62c-1.72-1.9.21-2.78,2.2-3.54,15.66-4.84,32.41-9.19,48.64-10.27,2.25-.15,6.35.32,7.53,1.97Z"></path>
  <path class="cls-154" d="M218.52,596.32c6,5.06,24.74,20.21,31.3,22.84.62,1.05,1.58,1.82,2.54,2.54-5.96-.4-11.06-6.51-15.56-9.82-6.92-5.08-11.88-9.31-18.28-14.71v-.85Z"></path>
  <path class="cls-75" d="M420.68,587.02c-8.55,7.34-17.28,15.37-27.07,21.15.52-.87,1.16-1.67,1.69-2.54l1.32-3.08,13.99-11.66,3.29-.49c.2-.16,1.1-.02,1.65-.45,1.69-1.29,2.51-3.39,5.12-2.94Z"></path>
  <path class="cls-2" d="M372.46,621.7c.27-.79,1.36-.81,1.69,0-6.74,5.64-15.98,11.06-23.68,15.23,6.79-4.52,13.28-10.21,20.3-14.38-.28-.99.81-1.28,1.69-.85Z"></path>
  <path class="cls-148" d="M570.39,351.03v.85c-2.56-.56-7.92.07-11,0l-10.56-.83-.44-.86c7.47-2.45,14.09,1.34,21.99.85Z"></path>
  <path class="cls-120" d="M529.79,451.68c-.54.92-1.54,1.44-1.69,1.69-2.8.14-5.67-.2-8.46,0-3.95.29-7.9.29-11.84,0l13.96-1.68h8.03Z"></path>
  <path class="cls-143" d="M501.03,499.05c-2.58,4.21-5.41,8.49-9.3,11.84,2.86-4.51,5.41-7.62,8.46-11.84.25-.57.53-.56.85,0Z"></path>
  <path class="cls-158" d="M530.64,450.84v-2.54c2.18-2.42,2.71-5.57,5.08-7.61-1.87,4.37-2.6,5.99-5.08,10.15Z"></path>
  <path class="cls-75" d="M427.44,580.25v.85c-1.91,1.72-3.97,3.39-5.92,5.08-.02-3.42,4.53-4.63,5.92-5.92Z"></path>
  <path class="cls-108" d="M446.05,561.64c-.35.39-.49,1.3-.85,1.69-.74.61-1.89,1.06-2.54,1.69,1.08-2.89-3.91-.61-5.92,0,1.06-1.58,4.82-6.07,6.77-3.38.63-.19,1.77.13,2.54,0Z"></path>
  <path class="cls-75" d="M393.61,609.01c-.83,1.3-2.58,3.16-4.23,2.54,1.04-.79,1.48-3.23,4.23-2.54Z"></path>
  <path class="cls-143" d="M491.73,511.74c-1.14,1.93-2.09,2.14-3.38,3.38.1-1.97,1.38-3.28,3.38-3.38Z"></path>
  <path class="cls-147" d="M501.03,499.05h-.85c.6-.83.47-2.98,2.54-3.38-.5.79-.96,2.2-1.69,3.38Z"></path>
  <path class="cls-77" d="M539.94,433.08c-.57.55-1.06,1.2-1.69,1.69,1.31-3.06,1.94-4.09,3.38-6.77l-1.69,5.08Z"></path>
  <path class="cls-123" d="M375.85,620.01c-.26.96-1.09,1.19-1.69,1.69-.55.05-1.15-.07-1.69,0-.74-.24-.73-.52,0-.85,1.1-.35,2.3-.46,3.38-.85Z"></path>
  <path class="cls-90" d="M200.76,307.04c9.39,1.98,18.61,5.62,27.07,10.15,21.42,8.19,43.23,15.33,65.98,18.61,5.61-.05,11.34.21,16.92.85,2.18.74,4.59.74,6.77,0,5.24-.6,10.81-1.15,16.07-.85,1.15-.6,2.56-.89,4.23-.85,6.1-1.48,12.31-2.61,18.61-3.38-1-.94-.49-1.28.85-.85,13.67-3.22,27.2-7.17,40.6-11.84,9.31-4.84,19.52-8.1,29.6-11,3.86-2.29,8.3-3.89,12.69-5.08-.11-2.49,2.69-3.77,4.23-1.69.24-.56,29.72-10.21,44.83-11.84.28-.73.56-.73.85,0,2.96-.94,6.34-1.63,9.3-.85,29.14-2.28,58.91-.56,87.58,3.48,1.75,1.43-.45,7.22-1.3,9.21,1.71.83,1.01,3.1-.85,3.38.05,1.64-.23,3.05-.85,4.23-.05,4.59-1.51,9.36-3.38,13.53-36.79-3.97-76.8-5.31-114.19,4.23-18.82,6.82-37.71,13.58-56.67,20.3-10.91,5.5-23.44,9.85-35.53,11.84-11.36,4.01-23.55,7.04-35.53,7.61-2.18.26-4.43.54-6.77.85-.39,1.25-1.91,1.09-2.54,0l-4.23.85c-1.55.72-3.5.65-5.08,0-13.49.95-27.43-.12-40.6-3.38-12.42-1.72-24.81-5.49-36.37-10.15-5.45-1.74-10.81-3.72-16.07-5.92-4.95-.05-10.12-2.48-14.38-5.08-1.98-.05-3.67-.61-5.08-1.69-7.01-1.37-14.01-3.28-20.3-6.77-7.9-2.61-15.67-5.29-23.68-7.61-36.05-9.44-73.64-14.24-109.61-2.99-1.67-.11-8.88-30.53-7.37-31.15,9.67-3.94,24.39-6.02,34.95-7.07,41.11-4.11,80.95,7.11,119.26,20.91Z"></path>
  <path class="cls-34" d="M193.14,339.19c.18-.48.39-.88.7-.99,1.03-.37,11.88,3.53,13.68,4.38.52-.58,1.96.19,2.54.85,6.66,1.77,12.86,4.31,18.61,7.61.39,3.51-2.69,4.3-9.24,2.38-1.4,1.8-3.72,1.82-6.96.05-3.32,1.83-4.91,1.72-8.34.1-18.35-.58-36.64-.6-54.85-.03-9.11-2.41-18.45-3.8-28.03-4.18-.25,1.17-2.03,1.04-2.54,0-4.61-1.99-15.6-1.68-22.68-1.42-8.57.31-17.05,1.06-25.53,2.27-1.28,1.47-3.5,2.24-6.67,2.3-1.17,1.57-2.05,1.37-2.63-.6-.57-2.34-1.17-3.37-1.73-7.15-.22-1.48-1.45-2.74-1.53-3.57-.32-3.04,3.75-1.09,5.34-1.08,39.04.23,77.51-.19,116.8,0,3.95.02,9.23-.99,13.07-.88Z"></path>
  <path class="cls-155" d="M178.77,397.55c2.43,2.33-.44,3.02-2.8,3.45-2.5.46-11.11-.13-12.01-2.6l-.59,1.69h-80.43l-1.03-1.69c-.26,2.37.05,4.7.93,7l-1.35,1.46c-4.35-6.72-6.4-14.62-9.3-21.99,35.06-6.22,72.89.58,106.58,12.69Z"></path>
  <path class="cls-76" d="M214.29,410.24l-1.62,1.3c-3.27-.49-6.37-1.41-9.3-2.77-35.39.63-70.67.85-105.83.66-1.53,2.14-3.82,2.19-4.94-.21-8.01-.77-9.05,2.31-2.65,6.09.22,1.13-3.23,1.98-4.23,1.69-1.22-3.45-3.07-5.97-4.23-10.15-.43-1.53-2.15-7.64-1.68-8.46.83.67,1.59,0,2.11,0h82.05c3.38,0,8.24,1.14,11.91.91,1.71-.11,2.09-.18,2.89-1.76,11.04,2.76,23.89,6.2,34.26,11.13.54.26.93.86,1.26,1.56Z"></path>
  <path class="cls-12" d="M122.94,451.68c6.94.55,13.71,1.68,20.3,3.38,8.84,1.68,17.68,3.55,26.25,6.33l.82,1.29c1.82.94,3.79,1.5,5.92,1.69.88-1.14,2.01-.55,1.69.85,6.97,3.56-7.58,5.43-9.73,1.69l-.78,1.69h-51.5l-1.01-1.69,4.73,7.46-.92,1.84c1.69-.28,2.2.61.85,1.69.75.24.74.52,0,.85.75.24.74.52,0,.85-6.31-8.79-11.71-18.45-16.92-27.91-.75-.24-.74-.52,0-.85,6.59-.86,13.36-.58,20.3.85Z"></path>
  <path class="cls-82" d="M174.54,297.74c5.58,1.68,11.42,3.18,16.92,5.08,2.52-.47,3.93.1,4.23,1.69,1.62-.14,4.42,1.02,5.08,2.54-19.46-5.35-38.28-12.75-58.15-16.71-31.92-6.37-64.55-6.2-95.8,3.18-.85.83,1.98,9.98,2.32,11.64,1.31,6.23,2.07,13.38,4.95,18.79,6.31-1.63,13.17-3.8,19.57-4.85,30.58-5.02,60.86-.15,89.89,8.26-2.21-.62-4.57-.54-6.77-.85l-5.08-1.69c-4.94-1.13-9.44-1.72-14.38-2.54-26.45-3.92-53.68-5.53-79.48,2.42l-4.26.12c-.6-.39-1.3-.51-1.47-1.45-2.46-9.85-5.28-19.99-6.6-29.89.34-.45.84-.59,1.31-.81,3.02-1.4,9.2-2.54,12.69-3.38,37.09-10.48,79.15-4.42,115.03,8.46Z"></path>
  <path class="cls-80" d="M217.67,409.39c1.3-1.3,2.28-.97,2.54.85,12.58,4.34,25.18,8.61,37.79,12.82,25.81,8.46,52.92,10.15,79.79,8.33h2.54c.74.24.73.52,0,.85-.09,2.17-13.02,3.68-13.68,3.35l-1.12-1.66c-.08.66-.29,1.66-.76,1.69-5.74.45-15.1.44-20.85,0l-1.23-1.69c-.31.64-.68,1.37-1.37,1.66-.87.37-14.74-1.03-15.13-3.35-2.23-.14-3.92-.7-5.08-1.69-1.12,2.29-3.12,2.31-4.23,0-14.17-2.34-28.11-5.93-41.81-10.78l-.48-1.91c-6.99-.53-15.27-2.77-20.3-7.61-11.29-5.51-23.55-8.97-35.53-12.69-29.18-9.05-58.3-16.1-89.27-14.41-5.67.31-11.45,2.48-17.31,1.73-.11-.27-.73-.55-.85-.85,48.16-8.67,100.55,7.33,146.33,25.38Z"></path>
  <path class="cls-97" d="M70.5,350.18c1.85-.49,3.54-.49,5.08,0,.74.24.73.52,0,.85l-.96,1.86c-3.31.98-6.65,1.5-10.01,1.56,2.11,8.99,5.11,17.9,8.99,26.75l-.77.68c49.14-8.12,100.32,6.81,145.12,25.54l-.27,1.98c-43.24-15.06-84.69-29.93-131.56-27.1-4.87.29-9.73,2.34-14.77,1.72-4.36-11.2-7.31-20.54-10.15-32.14,3.42.73,6.25-1.24,9.3-1.69Z"></path>
  <path class="cls-7" d="M177.07,492.28c.74.24.73.52,0,.85l-1.41,1.34c-10.92-3.19-22.04-6.38-33.25-8.84-1.33-.29-18.63-3.73-17.85-2.53,2.66,4.09,20.53,30.75,22.24,31.65,16.03,3.73,33.34,8.1,49.25,14.46.88.35,1.67.94,2.47,1.56s1.53,1.36,2.24,2.11l-.32.75c-17.89-6.12-36.11-11.45-54.65-15.98-1.24-1.49-3.81-3.58-5.08-5.08l-8.46-11.84c-3.25-4.62-9.53-13.64-11.84-18.61-.42-1.5-.43-1.74.58-2.55,2.68-2.15,49.73,8.94,56.09,12.7Z"></path>
  <path class="cls-73" d="M134.78,420.39c.74.24.73.52,0,.85-15.64-2.59-31.57-3.76-47.37-2.53l15.21,30.03,25.39,2.95c-1.38.57-3.08.57-5.08,0-6.71-.43-13.57-.5-20.3-.85-1.87-1.04-3.37-2.89-4.49-5.54l-11.58-23.22c-.05-.51-.06-1.19,0-1.69-.5-.69-.51-2.56-.06-3.1,3.3-3.99,40.26.68,47.21,2.03.41.08.75.53,1.06,1.08Z"></path>
  <path class="cls-152" d="M107.71,415.31c2.19.61,4.44.89,6.77.85,5.34-1.8,13.61-.59,19.44.58,1.31.26,2.39,1.13,3.4,1.96,16.16,1.9,32,6.08,47.69,11.72.88.32,1.67.88,2.47,1.48s1.56,1.3,2.28,2.03c1.2-1.64,2.58-1.31,2.54.85l-.74.95c-18.64-5.97-37.57-11.09-56.78-15.33-13.53-2.18-31.68-5.07-45.29-3.43-3.16.38-2.6.75-2.92,3.43-1.42-.58-.56-2.58-.85-3.38.75-.52,3.6-1.62,4.23-1.69l1.22-1.81c5.06-.32,10.16-.16,15.22.05l1.32,1.75Z"></path>
  <path class="cls-157" d="M137.32,322.27c-5,1.1-9.64-1.18-14.05-1.6-16.99-1.63-37.98-1.38-54.84,1.65-3.96.71-11.43,4.71-14.85,2.49,7.81-1.18,15.52-3.88,23.35-4.99,21.34-3.04,39.47-1.01,60.39,2.45Z"></path>
  <path class="cls-129" d="M207.52,341.72c.73.24.72.52,0,.85-4.79-.78-9.99-3.27-14.38-3.38-1-2.95-6.1-.28-5.92-4.23,6.79,2.24,13.54,4.45,20.3,6.77Z"></path>
  <path class="cls-17" d="M200.76,532.88c1.75-.35,3.5-.33,5.24.05,27.65,11.39,55.6,21.51,84.9,27.16l2.05,1.55h-5.08c-6.98,1.69-16.71-.44-22.84-4.23l-44.83-15.23c-23.77-9.89-48.43-17.99-73.59-23.68-.25-.3-.59-.54-.85-.85,17.96,2.9,35.11,9.23,52.26,15.02.97.33,2.16.02,2.72.21Z"></path>
  <path class="cls-111" d="M140.7,512.58c-3.04-3.59-6.98-6.98-8.46-11.84.23.33,1.39.84,2.05,1.72,2.25,3.05,4.68,6.75,6.41,10.12Z"></path>
  <path class="cls-129" d="M156.77,326.5c-1.83-.25-3.87.3-5.08-1.69,1.73.4,3.74.08,5.08,1.69Z"></path>
  <path class="cls-11" d="M579.69,323.12c3,.23-.44,7.02-.79,7.25-.31.21-5.46-.57-7.2,1.25-33.36-1.34-67.83,2.41-100.65-1.79-3.25-.42-6.54.94-9.77.05-.12-.58-.19-1.05-.08-1.1,2.41-1.07,5.12-1.71,7.69-2.28,35.91-9.38,74.34-9.2,110.81-3.38Z"></path>
  <path class="cls-32" d="M580.54,322.27c.63.25.62.53,0,.85-.27.05-.57-.03-.85,0-37.87-5.06-73.49-4.62-110.81,3.38-1.12.48-1.97.48-2.54,0,28.18-9.34,57.39-7.64,86.73-7.65l27.46,3.42Z"></path>
  <path class="cls-44" d="M466.35,326.5c.75-.16,1.79.16,2.54,0l-7.61,3.38c-5.44.44-10.39,3.41-15.23,5.08-2.47.77-5.01,1.61-7.61,2.54-8.64,2.13-17.33,7.34-25.38,9.3-.91.9-2.97,1.37-3.38,0,17.73-6.52,38.39-16.47,56.67-20.3Z"></path>
  <path class="cls-27" d="M581.39,323.12c-.2.09-.55-.05-.85,0v-.85c.99-4.52,2.36-9.03,3.38-13.53.24-.74.52-.73.85,0-.26,4.72-2.37,9.76-3.38,14.38Z"></path>
  <path class="cls-11" d="M446.05,334.96v.85c-.39.01-6.68,1.46-7.61,1.69,1.94-2.22,5.61-1.85,7.61-2.54Z"></path>
  <path class="cls-110" d="M425.75,440.69h.85c-51.55,18.4-86.53,35.26-143.57,25.57-2.67-.45-5.99.59-7.84-1.89,2.74-.16,5.56.12,8.46.85.28-.73.56-.73.85,0,3.62.72,7.29,1.28,11,1.69l4.27-1.42c20.68,1.31,41.48-.4,61.49-5.87l4.45.53c19.71-5.31,38.99-11.91,57.87-19.78l2.19.33Z"></path>
  <path class="cls-137" d="M545.86,419.54c.06.76-.62,1.22-.85,1.69-.88-1.4-3.21-.84-4.64-.86-46.63-.58-70.66,4.92-113.78,20.31h-.85c1.01-1.89,3.27-3.02,6.77-3.38,35.84-14.19,74.78-21.34,113.34-17.76Z"></path>
  <path class="cls-52" d="M145.78,455.07c32.93,5.41,66.08,20.74,97.27,32.14h-1.69c-6.04.55-13.37-1.79-17.76-5.92-14.61-5.39-29.33-10.17-44.17-14.34-.17-.78-.67-1.35-1.51-1.73-.86-.27-1.44-.77-1.69-.85-2.14-.15-4.11-.71-5.92-1.69-8.63-3.69-18.24-4.59-27.07-7.61.57-.38,1.42-.38,2.54,0Z"></path>
  <path class="cls-142" d="M243.05,487.21c5.69.73,14.7,4.9,20.96,6.53,30.07,7.81,51.63,8.12,82.23,3.62h2.54c.74.24.73.52,0,.85.03.41.02.8-.1,1.16-.38,1.07-19.43,3.37-22.22,3.56l-1.36-1.34c-21.16,2.14-45.71-1.07-66.2-6.51-3.24-.36-5.7-1.57-7.39-3.64l-8.59-2.3c-.97-.22-1.46-.89-1.56-1.93.55.05,1.14-.07,1.69,0Z"></path>
  <path class="cls-57" d="M449.43,465.22c.74.24.73.52,0,.85l-.51,2.03c-6.59,3.15-13.47,5.3-20.64,6.43l-.24,1.13c-11.2,3.43-22.61,7.87-33.66,12.44l-9.24,1.65c-.38.57-.78,1.12-1.27,1.58-2.49,2.39-29.78,8.67-33.17,7.7-.67-.19-1.31-.49-1.94-.83v-.85c19.35-4.09,38.16-10.01,56.67-16.92,10.01-4.08,20.16-7.74,30.45-11,.26-.09.55-.74.85-.85,3.36-1.17,8.82-2.11,12.69-3.38Z"></path>
  <path class="cls-150" d="M192.3,434.77c1.26-1.14,1.76-.6.85.85,12.41,3.75,25.09,8.32,36.37,14.38-31.18-10.79-61.97-23.34-94.73-28.76v-.85c19.31,3.11,34.29,8.42,52.72,13.69,1.64.47,3.01,1.04,4.8.69Z"></path>
  <path class="cls-49" d="M405.45,480.44c-18.91,7.21-36.43,13.66-56.67,16.92-.79.13-1.74-.12-2.54,0,6.45-1.81,13.15-2.77,19.63-4.47,13.23-3.46,26.58-8.16,39.57-12.44Z"></path>
  <path class="cls-26" d="M227.82,447.45c6.35-.46,14.83,3.18,19.45,7.61-.35.45-1.19.45-2.54,0-5.01-1.77-10.26-3.24-15.23-5.08-11.81-4.37-24.22-9.89-36.37-14.38.11-.83.61-1.87,1.31-1.78,6.03.82,27.85,8.42,31.66,11.77.63.55,1.18,1.19,1.72,1.85Z"></path>
  <path class="cls-106" d="M247.28,455.07c1.88-.24,3.79-.33,5.65.1,6.67,1.53,23.6,5.49,28.35,8.33.84.5,1.61,1.1,2.37,1.72-2.81-.29-5.65-.38-8.46-.85-10.49-1.72-20.56-5.8-30.45-9.3h2.54Z"></path>
  <path class="cls-93" d="M435.9,469.45c-10.18,3.51-20.22,7.62-30.45,11,9.93-3.78,19.93-8.99,30.45-11Z"></path>
  <path class="cls-85" d="M128.01,451.68c5.8.45,12.26,1.49,17.76,3.38-.79-.13-1.74.12-2.54,0-6.72-1.05-13.76-1.37-20.3-3.38,1.68.11,3.4-.13,5.08,0Z"></path>
  <path class="cls-10" d="M413.06,346.8v.85c-3.38,1.12-6.77,2.27-10.15,3.38-6.76,2.23-13.49,4.67-20.3,6.77-5.27,1.62-10.57,3.45-16.07,4.23,1.87-1.5,4.4-2.63,7.61-3.38,12.15-3.21,23.67-7.48,35.53-11.84,1.04-.15,2.46.22,3.38,0Z"></path>
  <path class="cls-161" d="M361.47,624.24h.85c-35.42,8.85-67.33,9.64-102.35-1.69,7.92.81,15.52,3.69,23.36,4.97,26.59,4.34,51.89,2.24,78.14-3.28Z"></path>
  <path class="cls-162" d="M372.46,620.85v.85c-1.11.15-1.09.49-1.69.85-2.79.52-5.71,1.01-8.46,1.69h-.85c3.09-2.16,7.55-2.3,11-3.38Z"></path>
  <path class="cls-9" d="M420.68,408.55c6.37-1.2,9.78-.85,15.65-.85h113.77l-4.23,10.15c-15.8-1.74-33.51-.25-49.41.91-1.82.13-3.65,1.41-5.57,1.62-1.73-.88-3.3-.71-5.08,0-.28,0-.56,0-.85,0-26.53,2.47-53.52,2.25-80.19,1.69-3.54-.07-10.28-.68-11.17-4.23,6.89-3.86,14.96-6.7,22.84-7.61l3.38-1.69c.28-.46.56-.46.85,0Z"></path>
  <path class="cls-145" d="M420.68,407.7v.85c-.27.05-.57-.05-.85,0l-3.38,1.69c-7.73,2.21-15.21,5.13-22.84,7.61-.49.61-1,1.2-1.58,1.7-3.51,3.01-23.29,8.07-29.25,9.39-7.38,1.63-14.89,2.96-22.46,2.44-.83.09-1.7-.06-2.54,0,1.23-1.5,4.71-1.93,6.77-1.69,13.61-3.1,27.14-6.48,40.6-10.15,4.2-2.23,8.9-3.8,13.53-5.08.19-2.36,1.49-3.27,3.38-1.69,5.54-1.78,12.85-3.22,18.61-5.08Z"></path>
  <path class="cls-60" d="M423.21,567.56l1.09.95c-10.68,4.61-21.76,8.81-33.23,12.59.1,1.55-1.66,2.14-2.54.85-1.45.6-2.86.88-4.23.85l-11.66,1.69h-119.19l-6.18-1.69c-12.63-2.78-24.64-8.13-36.37-13.53-.6-.22-1.93.22-2.54,0-2.65-1.18-1.75-2.64.79-3.46,71.36-.08,141.92.19,211.7.82l2.36.95Z"></path>
  <path class="cls-62" d="M265.04,557.41c7.65,1.31,15.13,3.11,22.84,4.23,4.91.11,9.7.68,14.38,1.69,7.06,1.12,14.76.72,21.99,0,2.88-.94,6.29-1.22,9.3-.85,4.91-1.09,10.33-1.95,15.46-2.68.74-.11,1.17.11,1.45.99,4.8-.56,9.53-1.72,14.19-3.47,2.48-.01,1.66,2.87.61,4.31,0-.66.17-1.68.58-1.69,21.8-.54,45.35-.59,67.22,0,3.51-.6,5.87-.04,7.06,1.69-1.21,1.73-13.92,7.24-16.18,6.98-.28-.03-.52-.49-.74-1.06-26.53,2.11-57.95-.08-84.12-.04-42.34.06-85.09-.54-127.78.09-1.63.02-3.41-1.01-2.95,1.64-3.44-1.28-7.39-3.55-10.85-4.8-3.21-1.17-14.71-3.5-15.8-6.2-.42-1.03.26-1.19.97-1.58,27.45.03,55.04-.76,82.36.73Z"></path>
  <path class="cls-62" d="M247.28,582.79c3.91.26,5.89,1.38,5.92,3.38-14.4-3.27-27.69-10.19-41.45-15.23l-.85-1.69c12.1,4.52,24.32,9.03,36.37,13.53Z"></path>
  <path class="cls-149" d="M380.08,552.34c2.66.09,5.66-.32,9.01-1.22,18.13.65,36.41.58,54.85-.21,3.23,0,9.04,1.05,6.35,4.82-2.08,2.06-4.65,3.87-6.77,5.92-1.82.56-5.21,2.14-6.77,3.38-5.79,1.76-11.42,4.81-16.92,6.77-9.31,4.39-18.9,7.49-28.76,9.3l5.8-3.09c7.39-2.38,14.66-5.06,21.99-7.61,1.38-.48,4.94-.9,4.35-2.83,5.33-.43,7.42-2.54,11.98-3.64l4.94-2.28h-74.86c-1.29,0-.88-2.44-.42-3.38-2.15-1.02-1.44,1.69-2.19,1.76-1.26.1-2.74-1.07-4.04-.96-.56.05-.6,2.03-2.17,2.21-1,.11-1.62-.96-2.17-.95-1.25.03-2.36,1.75-3.81.48.01-.43.06-.84.23-1.2.32-.65,12.23-2.85,14.15-3.03,4.76-2.18,10-4,15.23-4.23Z"></path>
  <path class="cls-122" d="M410.53,542.19c14.58.29,29.81.5,44.55,1.38,1.17.07,5.77-1.54,4.93,1.15-.34,1.07-8.34,9.64-9.73,11.01.76-1.67-3.2-2.9-3.81-2.95-13.33-1.13-31.03.86-44.89.85-6.29,0-14.61-1.97-20.46.19-2.24.83-2.24.1-1.05-1.47,7.93-3.61,16.28-6.62,25.04-9.04l1.18.58c1.66-.02,2.79-.58,3.38-1.69.21-.78.49-.76.85,0Z"></path>
  <path class="cls-125" d="M440.98,529.5h1.69c-10.78,3.87-21.5,8.44-32.14,12.69-.28,0-.79-.06-.85,0-.48,1.11-1.61,1.68-3.38,1.69-8.44,1.41-17.86,5.96-26.22,8.46-5.01,1.5-10.16,2.9-15.23,4.23-1.3.39-2.43.39-3.38,0l2.89-2.12c23.13-7.31,45.37-15.4,67.3-24.31l8.07-2.18,1.25,1.55Z"></path>
  <path class="cls-116" d="M473.12,519.35c-10.09,3.56-20.38,6.53-30.45,10.15-.56.03-1.14-.05-1.69,0l1.43-2.47c8.02-3.46,16.21-6.64,24.7-8.8l2.64,1.12c.98-.21,2.37.19,3.38,0Z"></path>
  <path class="cls-47" d="M428.29,474.52l9.81-1.75c20.93-1.02,41.35-.12,61.26,2.68,5.03-2.15,9.08-1.21,13.51,1.6-.57.73-2.15.87-1.69,2.54-2.92-.28-9.55-.43-12.31-.04-13.34,1.87-26.98,4.87-40.1,8.96-1.85.58-4.99,1.19-5.95,2.93-4.3,2.58-9.1,4.55-14.38,5.92-4.57,2.26-9.08,3.67-13.53,4.23-.83-1.61-.43-2.51,1.19-3.12l17.18-6.24-57.14-.77-.99-1.71c8.94-2.86,35.96-15.19,43.14-15.23Z"></path>
  <path class="cls-18" d="M449.43,466.06v2.53c1.46.67,2.58-1.69,2.96-1.69h63.86c.15,0,.28,2.29,1.69,2.11-1.97,2.51-3.11,5.53-5.07,8.04-3.31,1.27-6.4-1.23-8.2-1.54-.74-.12-2.56,1.56-4.88,1.63-2.99.08-6.82-1.61-10.15-1.81-18.87-1.16-42.39-.92-61.35-.82l21.15-8.46Z"></path>
  <path class="cls-118" d="M480.73,456.76c1.07-.67,1.91-.67,2.54,0-11.48,2.29-22.69,5.77-33.83,9.3v-.85c9.01-2.96,22.04-8.43,31.3-8.46Z"></path>
  <path class="cls-118" d="M507.8,453.38c3.94,0,7.9,0,11.84,0-4.97.36-10,.67-15.23.85-.74-.24-.73-.52,0-.85,1.13-.03,2.26,0,3.38,0Z"></path>
  <path class="cls-120" d="M489.19,455.07c.74.24.73.52,0,.85-2.05.32-3.63.39-5.92.85-.85,0-1.69,0-2.54,0,2.28-2.18,5.62-1.61,8.46-1.69Z"></path>
  <path class="cls-120" d="M504.41,453.38v.85c-3.86.13-6.5.43-10.15.85h-4.23c4.48-2.08,9.62-1.57,14.38-1.69Z"></path>
  <path class="cls-118" d="M494.26,455.07c-1.11.13-3.54.6-5.08.85v-.85c.28,0,.56,0,.85,0,1.41,0,2.82,0,4.23,0Z"></path>
  <path class="cls-90" d="M270.96,592.94c9.86,1.52,19.73,2.93,29.6,4.23l8.46.85c2.8-1.23,5.68-1.3,8.46,0l8.46-.85.24-.82c13.78-1.41,27.87-2.99,41.21-6.8.03-.53.31-.82.85-.85.46-1,2.19-1.19,2.54,0,16.42-5.28,32.77-10.63,49.06-16.07,5.47-1.94,12.29-5.16,17.54-6.58.82-.22,2.97-.85,2.76.64l-26.21,23.69c-6.39,5.06-11.81,10.36-18.61,15.23-13.13,9.39-19.17,13.65-35.33,17.54-34.32,8.26-90.44,8.91-120.24-12.11-18.76-13.24-36.18-30.39-52.51-46.45l16.19,4.96c22.34,8.14,44.24,18.18,67.55,23.38Z"></path>
  <path class="cls-136" d="M384.3,582.79c-6.23,2.7-12.67,5.19-19.45,5.92-.68.78-1.81,1.35-3.38,1.69-29.1,7.67-61.1,9.27-90.51,1.69-5.32-1.22-12.5-3.99-17.76-5.92-.62-.23-5.15-3.1-5.92-3.38h137.03Z"></path>
  <path class="cls-109" d="M367.39,589.56c-3.46,3.54-34.81,7.22-41.45,7.61l-8.46.85c-2.81.02-5.65.02-8.46,0l-8.46-.85c-9.99-.48-19.86-2.05-29.6-4.23v-.85c32.01,7.32,58.97,4.16,90.51-1.69,1.83-.78,4.07-1.63,5.92-.85Z"></path>
  <path class="cls-90" d="M229.52,381.48c.99-.13,1.95-.18,2.81.09,10.69,3.32,22.43,7.18,32.94,10.96.86.31,1.6.93,2.31,1.64,24.07,6.27,48.16,7.12,72.74,4.23,38.5-5.24,70.53-21.37,106.61-33.37,30.95-10.29,57.74-14.18,90.47-13.99l8.46.85c1.41,0,2.82,0,4.23,0l20.31,1.69c.93.9-3.12,12.18-3.85,14.34-.79,2.35-5.41,15.66-6.8,15.97l-22.73-1.59c-26.98-.25-52.35,2.07-78.25,9.79-19.25,5.74-37.71,14.22-56.7,20.7-.19.06-1.36,1.04-3.38,1.69-4.56,1.56-9.07,2.97-13.53,4.23-13,4.75-26.79,8.61-40.6,10.15-42.77,10.16-84.96-4.48-124.34-18.61-.85-.3-1.7-.55-2.54-.85-2-1.92-5.08-2.79-7.65-3.77-43.67-16.54-90.63-29.61-137.76-22.52-.81-5.94-10.15-23.49-9.42-28.24.15-.99.36-1.74,1.44-2.01,3.94.21,7.49-1.35,11.29-1.82,43.09-7.03,86,5.79,126.25,20.24l27.69,10.21Z"></path>
  <path class="cls-5" d="M276.88,430.54c1.39-.03,2.85-.09,4.23,0,1.15.89,2.84,1.46,5.08,1.69,5.3.23,11.96,1.69,16.49,1.69h22.84c3.73,0,9.83-1.54,14.8-1.69,17.23-1.79,34.58-2.07,52.05-.86l39.92-.74c7.7-.47,10.31.63,7.84,3.29-2.57.88-7.06,1.04-9.3,3.38-8.91,3.97-17.94,7.36-27.07,10.15l-1.03-1.29c-57.69.24-115.71.25-174.06.02l-.84,1.26c-9.87-3.67-19.85-7.94-29.86-11.17-1.65-.53-3.05-.96-4.82-.67-.26-.1-.55-.74-.85-.85-.89-.33-1.74-.55-2.54-.85-2.65-1.27-1.1-3.18,1.29-3.89,28.2-1.79,57.49-2.38,85.84.51Z"></path>
  <path class="cls-45" d="M484.96,420.39c-8.76,2.9-18.2,4.41-27.2,7.05-6.01,1.77-11.74,4.46-17.63,6.48.24-2.45-.2-1.28-1.75-1.37-14.77-.84-31.06.57-46.01.51-17.15-.07-34.86-1.35-52.05-.84v-.85c18.29-1.97,35.9-7.87,53.29-13.53,2.02.37,6.47,2.37,7.99,2.43,26.84,1.01,55.88-.54,83.36.11Z"></path>
  <path class="cls-74" d="M430.83,437.3c.56-.05,1.13.03,1.69,0-2.09.83-4.74,2.28-6.77,3.38-19.98,6.47-39.26,15.64-60.05,19.45.77-.67,1.56-1.32,2.41-1.88,4.01-2.61,27.91-10.64,32.59-10.91,1.01-.06,2.04,0,3.06.1,6.72-2.43,21.12-9.6,27.07-10.15Z"></path>
  <path class="cls-45" d="M490.88,420.39c-1.52.17-3.48.04-5.08,0,1.51-1.57,3.81-2.03,5.08,0Z"></path>
  <path class="cls-90" d="M177.07,493.13l2.2-.13c26.21,9.21,52.35,18.45,78.41,27.71,36.84,13.21,74.59,10.58,112.24,1.18,20.87-6.97,41.87-14.44,62.6-22.26l8.45-2.27c9.51-5.14,20.56-8.34,31.3-10.15,12.03-2.88,24.85-4.7,37.21-4.66l-22.87,32.11-16.88,4.69c-9.15,1.97-20.2,6.35-28.76,10.15-8.57.8-30.85,11.4-40.64,14.76-12.86,4.41-25.96,8.07-38.87,12.31-8.81,2.81-18.56,4.98-27.91,5.08-3.57,1.07-8.5,1.55-12.26.85-4.72.86-11.17.82-16.07,0-3.69.82-8.48-.03-12.26-.85-12.87-2.51-25.61-4.88-38.24-8.71-18.31-5.55-36.07-13.96-53.96-20.05-17.63-7.16-36.12-12.68-54.76-16.33l-23.89-34.01c-.22-1.69.06-1.12,1.26-1.27,8.88-1.13,43.41,8.73,53.71,11.86Z"></path>
  <path class="cls-84" d="M469.73,487.21c.85-.02,1.69.01,2.54,0-10.57,2.53-21.06,6.53-31.3,10.15-.96.35-1.81.35-2.54,0,4.21-2.49,9.73-4.42,14.38-5.92,4.39-1.42,12.69-4.15,16.92-4.23Z"></path>
  <path class="cls-61" d="M419.83,571.79v.85c-14.83,5.27-33.88,13.58-49.06,16.07l-.08-.9,17.84-5.87c.9-.26,1.7-.59,2.54-.85,9.58-2.94,19.47-6,28.76-9.3Z"></path>
  <path class="cls-92" d="M489.19,289.28c-14.14,2.84-27.59,7.21-41.25,11.64-.99.32-2.32-.13-2.88.06,1.04-1.17,2.94-1.89,4.39-2.4,8.31-2.95,25.49-8.27,33.83-9.3,1.86-.23,4.02.18,5.92,0Z"></path>
  <path class="cls-135" d="M550.94,287.59c12,.65,23.86,2.06,35.83,3.5,2.89.93.95,8.36-1.15,10.03.52-2.53.4-5.23,1.75-7.95-.12-.76-2.38-1.19-3.08-1.27-28.16-3.25-56.25-4.57-84.94-3.47-.74-.24-.73-.52,0-.85,1.69-.07,3.39.05,5.08,0,5.29-.87,10.5-1.15,15.65-.85,4.34-.74,9.96-.71,14.38,0,5.4-.33,10.9-.05,16.49.85Z"></path>
  <path class="cls-19" d="M333.55,334.96c.74.24.73.52,0,.85-5.12.51-10.91.76-16.07.85-2.21.74-4.56.74-6.77,0-5.68-.04-11.27-.29-16.92-.85v-.85c2.35.25,7.89.85,9.73.85h19.45c2.68,0,6.97-.85,10.57-.85Z"></path>
  <path class="cls-129" d="M212.6,343.42c4.81,1.66,9.53,3.46,14.38,5.08l15.23,5.92v.85c-4.48-1.45-9.07-2.66-13.53-4.23-6.13-2.16-12.8-4.69-18.61-7.61.72-.34,1.56-.34,2.54,0Z"></path>
  <path class="cls-19" d="M356.39,331.57c-6.23,1.75-12.2,2.58-18.61,3.38h-2.54c6.76-1.95,14.16-3.11,21.15-3.38Z"></path>
  <path class="cls-112" d="M243.05,354.41c-.26-.08-.59.08-.85,0-4.93-1.5-10.99-2.78-15.23-5.92,5.27,1.76,11.24,3.01,16.07,5.92Z"></path>
  <path class="cls-35" d="M212.6,343.42c-.83-.08-1.73.11-2.54,0-1.29-.18-2.15-.78-2.54-.85v-.85c1.68.58,3.38,1.1,5.08,1.69Z"></path>
  <path class="cls-94" d="M317.48,336.65c-1.33,1.42-5.47,1.41-6.77,0,2.25.02,4.52.04,6.77,0Z"></path>
  <path class="cls-135" d="M584.77,308.74h-.85c.31-1.35.55-2.83.85-4.23-.05,1.4.08,2.83,0,4.23Z"></path>
  <path class="cls-94" d="M335.25,334.96h2.54c-1.06.13-2.38.66-4.23.85v-.85c.56,0,1.13,0,1.69,0Z"></path>
  <path class="cls-115" d="M70.5,350.18c14.16-3.66,30.56-3.03,45.29-2.54,1.63.05,3.39-.86,2.92,1.69-15.35-1.38-27.93-1.11-43.14.85-1.59.2-3.51-.23-5.08,0Z"></path>
  <path class="cls-9" d="M214.29,410.24c6.89,2.12,13.54,5.13,20.3,7.61.22,2.63-5.53,3.31-6.34.85l-.59,1.69c-26.82.16-53.63.06-80.43-.3l-1.03-1.39c-.12.43-.27.83-.54,1.13-.29.31-7.36-.46-8.34-1.13-7.71-.47-15.26-1.78-22.84-2.54-2.31.03-4.57-.25-6.77-.85-5.12-.24-12.83-.52-17.76,0-3.99,1.65-6.66-3.19-5.48-5.97.88-2.05,7.4-2.13,9.16-1.66.95.26-.12,2.15,1.81,1.71.78-.18.14-1.6.96-1.76,1.13-.22,2.64.66,3.98.59,34.35-1.84,68.91.59,103.22-1.1,3.46,1.86,7.1,2,10.68,3.11Z"></path>
  <path class="cls-18" d="M223.59,481.29c-3.23-1.05-18.77-6.76-19.83-6.86-4.48-.39-11.98.95-16.92.98-18.07.1-38.23-1.13-55.83-.02-1.88.12-4.07,1.93-6.91,1.6-2.27-.26-3.38-2.31-5.39-.78-.81-1.81-5.07-7.56-5.06-8.04,0-.09,1.16-1.27,1.25-1.27h53.29c3.38,0,7.29.4,10.99,0l-1.27-1.7c.59.18,1.74-.12,2.73.2,14.5,4.63,28.92,9.99,42.95,15.87Z"></path>
  <path class="cls-18" d="M176.23,464.37c-1.46-.04-3.12.27-4.52-.15-1.08-.32-1.29-1.49-1.41-1.54,2.26-.24,4.12,1.13,5.92,1.69Z"></path>
  <path class="cls-30" d="M234.59,417.85l42.29,12.69c-26.37.59-56.81-1.14-82.51.81-1.59.12-5.11-.01-4.62,2.57-15.92-5.86-31.83-10.53-48.53-13.63-1.43-.27-2.9-.37-3.91-1.59,3.6.22,5.87,0,8.88,0h82.05c1.17,0,4.82-.68,6.34-.85Z"></path>
  <path class="cls-102" d="M344.55,428.85c.74.24.73.52,0,.85-2.26.37-5.17,1.49-6.77,1.69-46.63,5.89-75.51-6.44-117.57-21.15,8.05,1.18,15.83,5.51,23.56,8.16,33.71,11.54,65.27,16.05,100.77,10.45Z"></path>
  <path class="cls-30" d="M286.19,432.23c-2.38-.1-5.8,1-5.08-1.69,1.45.1,3.93.7,5.08,1.69Z"></path>
  <path class="cls-20" d="M179.61,492.28c6.67-.58,14.48,2.04,19.54,6.24,11.58,3.75,22.83,8.16,33.75,13.21,30.47,10.66,63.26,21.22,95.58,16.07.16-.76.44-.73.85,0,13.69-1.4,27.23-3.65,40.6-6.77.74.24.73.52,0,.85-85.5,22.59-116.83-5.68-192.85-28.76v-.85c.67.2,1.87-.2,2.54,0Z"></path>
  <path class="cls-76" d="M114.48,416.16c-2.12-.27-5.31.85-6.77-.85,2.72.13,4.77.65,6.77.85Z"></path>
  <path class="cls-99" d="M251.51,491.44c7.05,1.42,13.91,4.17,20.95,5.69,17.37,3.77,34.84,5.01,52.64,4.46l-.16,1.92c-3.09,2.28-19.39,1.63-23.9,1.07-30.59-6.51-60.14-7.41-90.91-5.84-1.67-.94-3.26-1.12-4.77-.55,7.49,1.94,14.14,5.05,19.94,9.33,2.98-.2,10.43.16,8.46,4.23h-.85c-17.47-6.3-35.65-14.09-53.29-19.45-.45-.54-1.07-.63-1.69-.85-1.35-2.08-1.08-1.56,1.03-1.91,5.09-.85,8.93.96,13.74,1.1,17.89.54,42.56-2.46,58.82.81Z"></path>
  <path class="cls-96" d="M227.82,447.45c-1.25-1.84-1.41-2.92,1.27-2.95,56.89-.58,113.96.65,170.9.45,2.04,0,5.54-1.56,6.3.38.16.42-2.42.9-2.53,2.11-12.47,4.51-25.31,9.04-38.06,12.69-24.28,6.95-44.94,8.54-70.2,6.77-3.71-.41-7.37-.97-11-1.69-.28-.02-.57.03-.85,0-12.31-2.9-24.42-6.01-36.37-10.15-6.53-2.26-12.96-5.2-19.45-7.61Z"></path>
  <path class="cls-106" d="M295.49,466.91c-3.62-.25-7.78.65-11-1.69,3.47.31,7.77-.08,11,1.69Z"></path>
  <path class="cls-99" d="M385.15,489.75l63.44.86c.4.51-1.54,1.96-2.35,2.29-4.77,1.99-10.51,3.64-15.51,5.64-1.9.76-4.78,1.3-5.83,3.06-16.33,7.21-33.93,14.13-51.28,18.7-1.24.33-2.3.5-2.01-.94l2.1-2.39,26.07-9.06c-58.41.69-116.58.56-174.5-.4-8.22-3.2-16.62-6.45-24.97-9.33-1.2-.41-2.57,1.03-2.1-1.66,3.62,1.73,6.4-.32,9.23-.45,1.06-.05,1.8,1,2.86,1,18.35,0,43.04-2.12,60.27,1.09,11.07,2.06,22.55,3.6,33.74,5.17,5.3.74,16.48.44,20.77-1.74,1.97-1,19.27-2.68,23.68-3.38,12.22-1.94,25.3-4.92,36.37-8.46Z"></path>
  <path class="cls-31" d="M222.75,377.25c-3.76-1.72-8.14-3.91-11.93-5.41-3.57-1.41-8.89-1.42-10.9-4.73,22.4-.38,44.87.46,67.28.03,14.83-.29,29.28,2.42,44.05,3.94,5.05.52,22.57-2.04,27.12-3.11,18.03-4.25,64.01-.91,84.47.01,1.97.09,4.24-1.24,5.85-.87,5.57,1.27-7.6,4.07-8.19,4.3-3.73,1.49-9.51,5.11-13.35,6.69-1.4.57-2.82,1.12-4.23,1.69-4.3,1.19-8.62,2.27-12.97,3.25-51.8-.92-103.59-1.43-155.35-1.56-.33.4-.62.69-.81.63-3.76-1.22-7.77-2.87-11.04-4.86Z"></path>
  <path class="cls-87" d="M222.75,377.25c3.21.82,8.44,2.97,11.84,4.23l6.73.64c35.19,13.46,72.29,18.8,109.51,11.2l4.72.84c-4.33,2.3-10.35,2.68-15.23,3.38-24.26,4.87-49.05,2.29-72.74-3.38-12.9-3.48-25.53-8.1-38.06-12.69-2.52-.92-6.15-3.39-8.46-4.23.54.08,1.22-.12,1.69,0Z"></path>
  <path class="cls-54" d="M234.59,381.48c1.41-.96,3-.82,4.61-.88,48.14-1.68,97.14.34,145.38.55,2.39.01,10.05.5,11.03.37.57-.07.44-1.56,1.1-1.72,1.76-.44,4.28.25,6.2-.01-15.14,6.11-31.29,11.27-47.37,14.38-46.96,9.09-77.19,3.48-120.96-12.69Z"></path>
  <path class="cls-89" d="M340.32,397.55v.85c-26.36,3.59-47.01,2.71-72.74-4.23,10.32.94,20.48,4.43,30.84,5.11,13.35.87,28.73.17,41.9-1.72Z"></path>
  <path class="cls-21" d="M545.86,351.87c-2.65-.02-6.51.7-8.46-.85,2.65.01,6.51-.7,8.46.85Z"></path>
  <path class="cls-76" d="M419.83,408.55c-.5,2.04-2.16,1.34-3.38,1.69.8-1.3,2.03-1.45,3.38-1.69Z"></path>
  <path class="cls-39" d="M385.15,418.7c.74.24.73.52,0,.85-13.37,4.23-26.72,7.88-40.6,10.15v-.85c13.11-2.07,27.86-6.26,40.6-10.15Z"></path>
  <path class="cls-134" d="M398.68,414.47c-4.31,1.39-8.97,3.63-13.53,5.08v-.85c4.49-1.37,8.78-3.66,13.53-4.23Z"></path>
  <path class="cls-131" d="M388.53,581.94l-17.76,6.77c-.78.13-1.72-.09-2.54,0-1.11.59-2.58.95-3.38,0,6.48-1.98,12.93-4.07,19.45-5.92,1.42-.4,3.01-.49,4.23-.85Z"></path>
  <path class="cls-63" d="M292.95,561.64c4.12,0,8.97.85,12.26.85h16.07c2.67,0,9.25-.53,12.26-.85.74.24.73.52,0,.85-3.13.28-6.15.71-9.3.85-7.27.8-14.81,1.02-21.99,0-4.87-.22-9.76-1.02-14.38-1.69,1.69,0,3.38,0,5.08,0Z"></path>
  <path class="cls-79" d="M361.47,556.57c1.13-.04,2.26.03,3.38,0-4.35,1.14-10.66,3.52-14.38,4.23-4.61.88-12.02,1.26-16.92,1.69v-.85c8.78-.93,19.52-4.79,27.91-5.08Z"></path>
  <path class="cls-79" d="M324.25,563.33c-5.22,1.5-11.82.92-17.35.86-1.43-.02-3.76.54-4.64-.86,6.93.31,15.05.29,21.99,0Z"></path>
  <path class="cls-128" d="M409.68,542.19c-.11.11.25,1.16-.15,1.51-.67.59-2.32.03-3.23.18l3.38-1.69Z"></path>
  <path class="cls-95" d="M438.44,497.36c.83-.09,1.7.06,2.54,0-23.81,8.42-46.52,18.05-71.05,24.53v-.85l1.69-1.69c.08-.09,1.2.63,2.37.28,17.39-5.22,33.94-11.89,50.92-18.04,3.53-1.28,10.13-3.86,13.53-4.23Z"></path>
  <path class="cls-88" d="M309.02,598.01c-2.65-.01-6.51.7-8.46-.85,2.7.13,6.47-.79,8.46.85Z"></path>
  <path class="cls-88" d="M325.94,597.17c-1.95,1.55-5.8.83-8.46.85,2-1.65,5.75-.69,8.46-.85Z"></path>
  <path class="cls-113" d="M368.23,588.71c-.26.31-.57.56-.85.85-1.91.47-4.02.49-5.92.85.8-.75,2.35-1.53,3.38-1.69s2.3.13,3.38,0Z"></path>
  <path class="cls-47" d="M118.71,476.21c-.57-2.49,1.49-2.78,6.19-.87l5.21-1.53c22.75-.02,45.34-.34,67.77-.94,8.83,1.93,17.4,4.73,25.71,8.4,5.91,1.91,11.95,3.77,17.76,5.92,3.37,1.25,6.76,2.98,10.15,4.23l-2.54,1.26c-19.17-1.1-38.4-1.26-57.66-.46-4.77-1.16-9.23-1.43-13.39-.8-8.39-2.88-16.8-4.99-25.38-6.77-.73-.96-1.86-1.52-3.38-1.69-4.24-.3-8.48-1.07-12.69-1.69-1.29-.79-2.7-1.35-4.23-1.69-1.95-.14-3.97.13-5.92,0-2.13-1-4.39-1.57-6.77-1.69-.27-.57-.59-1.12-.85-1.69Z"></path>
  <path class="cls-16" d="M126.32,479.6c1.05-2.36,5.06-2.57,5.92,0,1.6.31,3.01.87,4.23,1.69,3.46-2.07,9.8-1.08,12.69,1.69,1.72.16,2.84.72,3.38,1.69,8.15-1.12,18.91,1.66,25.38,6.77.7-1.71,2.19-1.02,1.69.85-.5,1.07-1.83.79-2.54,0-15.54-4.63-34.2-10.43-50.29-11.87-1.22-.11-7.17-.99-6.38,1.72-.53-1.14-.67-2.18-.85-2.54-.11-.23.11-.62,0-.85,1.81-.94,5.02-.45,6.77.85Z"></path>
  <path class="cls-18" d="M126.32,479.6c-2.27-.15-4.43-1.16-6.77-.85-.11-.23.11-.62,0-.85,2.34.16,5.77-.95,6.77,1.69Z"></path>
  <path class="cls-18" d="M136.47,481.29c-1.48-.22-3.18-.53-4.23-1.69,1.69.12,3.56-.44,4.23,1.69Z"></path>
  <path class="cls-18" d="M149.16,482.98c2.11.15,3.91-.89,3.38,1.69-1.1-.23-2.55-.89-3.38-1.69Z"></path>
  <path class="cls-99" d="M232.3,486.12c.95.78,2.9-.71,2.29,1.93-3.26.27-4.79-.12-3.37-3.37,1.34-.34.5.97,1.08,1.44Z"></path>
  <path class="cls-126" d="M259.12,520.2l4.27-.56c19.86,5.57,40.48,7.67,61.07,6.67l4.03,1.51c-.88,1.43-2.29,1.57-3.79,1.71-32.55,3.01-62.08-7.06-91.79-17.78h.85c8.07-.56,18.77,3.71,25.38,8.46Z"></path>
  <path class="cls-64" d="M225.29,507.51c1.41-.96,3-.83,4.61-.88,57.15-1.72,114.6,1.38,171.78,0l2.93,1.71c-1.12-.06-2.06-.19-3.15.28-8.75,3.81-20.04,7.88-29.84,10.72-.44.91-1.68,1.47-2.54.85-2.39.23-4.57-.08-6.52-.93l-97.33.37c-2.36-.44-4.39-.25-6.11.57-8.55-2.46-16.8-6.07-25.38-8.46-1.95-2.56-5.59-3.11-8.46-4.23Z"></path>
  <path class="cls-126" d="M371.62,519.35c-.52.57,1.17.82-1.69,1.69-13.46,4.11-27.06,5.98-40.6,6.77,6.4-2.71,13.36-4.37,20.87-5,6.37-1.9,12.67-2.77,18.88-2.61.83-.23,1.67-.6,2.54-.85Z"></path>
  <path class="cls-33" d="M259.12,520.2c.06-2.68-1.11-1.91,1.29-2.16,1.66-.18,3.97-.07,5.75-.1,31.41-.54,64.4.08,96.62-.32l6.29,2.58c-12.97,3.61-26.42,5.84-39.75,7.61-.28.02-.56-.01-.85,0-25.38,1.33-44.9-.58-69.36-7.61Z"></path>
  <path class="cls-148" d="M121.25,349.34c3.08.33,6.82-.46,9.77-.04,3.1.43,10.23,1.22,12.48,1.75.68.16.22,1.52,1.79,1.74,3.64.5,6.89-.86,10.18-.94,14.96-.37,33.59-.94,48.31-.03,2.19.14,4.23,1.7,4.85,1.6,1.04-.17,1.83-1.78,4.4-1.64,2.03.11,2.97,1.79,4.22,1.82.51.01.3-1.54.98-1.72,3.51-.94,8.3,2.9,10.44-.85,4.57.77,9.28,2.33,13.53,4.23,12.38,3.37,24.78,6.75,37.22,10.15,13.44,1.91,27.04,2.93,40.6,3.38,5.58-.36,11.22-.92,16.92-1.69.53-.6,1.13-.59,1.69,0,9.33-2,18.63-3.69,27.91-5.08,5.35-2.14,10.71-3.55,16.07-4.23l.97.92c12.59-.89,25.32-.73,38.18.45,10.16-1.72,17.97-3.02,28.08.44,9.2-3.49,18.65-5.78,28.35-6.88,5.36.21,7.08-1.22,10.62-1.65,17.83-2.15,36.02-1.94,54.1-1.75,1.43.02,3.76-.54,4.64.86-48.36-2.1-93.69,9.19-137.99,27.83l-2.42.08.34-1.99c4.34-2.41,8.77-4.58,13.3-6.52-36.5-3.35-72.17-2.29-107.62,3.26-35.51-4.8-71.96-5.03-108.12-4.26,5.73,1.25,11.28,3.36,16.64,6.31l1.06,2.36h-1.69l-2.64-.02c-31.6-11.99-63.95-22.18-97.17-27.9Z"></path>
  <path class="cls-148" d="M402.91,351.03c1.25.51,4.59,2.52,5.5,2.52,1.12,0,2.12-1.47,3.41-1.65,2.24-.3,10.24-1.02,11.67-.05.76.51.22,1.58.99,1.72,1.87.34,1.01-1.16,1.44-1.46,2.21-1.48,45.94.36,52.26.61l-28.31,8.54c-3.87-.73-12.7-2.76-16.13-2.68-1.8.04-2.96,1.51-5,1.8-10.07,1.42-24.95-.7-35.6-.88-2.73-.04-6.36.65-9.14.52-1.67-.08-3.01-.4-1.4-2.22,6.26-3.19,13.35-5.78,20.3-6.77Z"></path>
  <path class="cls-98" d="M547.55,350.18c.28.01.56-.01.85,0,3.23.16,8.15.85,11,1.69-3.09-.07-6.21,0-9.3,0-1.36,1.65-2.87,1.66-4.23,0l-8.46-.85c-.79.43-1.6.83-2.44,1.12s-1.6.53-2.41.57c-30.15,1.76-58.66,3.45-87.32,14.66-27.42,10.82-55.24,20.38-83.47,28.66-7.37,2.52-14.51,3.31-21.44,2.35-.74-.24-.73-.52,0-.85,5.03-.98,10.11-2.11,15.23-3.38l4.24-2.6c14.48-3.86,28.86-7.79,43.13-11.78.75-2.08,2.25-2.67,4.23-1.69,16.37-4.92,31.9-12.31,48.24-17.31,30.86-9.45,59.87-11.93,92.17-10.6Z"></path>
  <path class="cls-14" d="M279.42,364.56c.74.24.73.52,0,.85-13.48-2.6-24.25-5.95-37.22-10.15-.74-.24-.73-.52,0-.85h.85c11.95,3.64,24.07,7.88,36.37,10.15Z"></path>
  <path class="cls-22" d="M320.02,367.95c.74.24.73.52,0,.85-15.35.24-25.69-.5-40.6-3.38v-.85c13.3,2.46,27.08,3.52,40.6,3.38Z"></path>
  <path class="cls-156" d="M374.15,358.64l-7.61,3.38c-9.29,2.16-18.39,4.15-27.91,5.08-.74-.24-.73-.52,0-.85,11.08-1.26,24.63-4.73,35.53-7.61Z"></path>
  <path class="cls-156" d="M331.86,367.1c1.57-.58,3.68-.81,5.08,0-5.15,2.5-11.34,1.6-16.92,1.69v-.85c1.69-.02,3.39.04,5.08,0l4.23-.85c.84-.04,1.7.05,2.54,0Z"></path>
  <path class="cls-22" d="M338.63,366.25v.85c-.55.05-1.14-.05-1.69,0-1.67.14-3.4-.1-5.08,0,1.46-1.67,4.63-.6,6.77-.85Z"></path>
  <path class="cls-22" d="M329.33,367.1c-.64.03-2.22.8-4.23.85.72-1.37,2.87-.8,4.23-.85Z"></path>
  <path class="cls-140" d="M118.71,349.34c.49.04,1.23-.15,2.54,0,33.68,3.75,67.85,16.34,99.81,27.91,3.59.64,6.41,2.05,8.46,4.23-1.72.33-3.02-.4-4.55-.94-49.54-17.74-95.19-36.18-149.4-29.51v-.85c13.85-2.99,29.3-3.23,43.14-.85Z"></path>
  <path class="cls-148" d="M390.22,362.03v1.68c-1.56.2-2.46.03-3.37-1.27l3.37-.41Z"></path>
  <path class="cls-72" d="M381.77,323.12c-7.67,3.76-15.84,6.3-24.53,7.61-.24.07-.56.77-.85.85l-21.15,3.38c-.58.5-1.18.57-1.69,0-3.21.87-7.3,1.31-10.57.85-6.2.7-13.18.64-19.45,0-3.02.4-6.84.14-9.73-.85-22.58-2.73-44.58-8.66-65.98-17.76-9.01-3.5-18.01-6.79-27.07-10.15-1.51-.56-3.38-1.94-5.08-2.54v-.85c21.86,7.06,42.78,17.31,64.95,23.44,30.57,8.44,61.48,9.8,92.59,3.42,9.59-1.97,18.91-5.61,28.55-7.4Z"></path>
  <path class="cls-94" d="M293.8,334.96c.74.24.73.52,0,.85-23.93-2.37-44.23-10.16-65.98-18.61,21.44,7.37,43.22,15.35,65.98,17.76Z"></path>
  <path class="cls-124" d="M397.84,318.89c-5.75,2.05-11.56,4.66-17.59,6.52-7.32,2.25-15.46,5.03-23.01,5.32,8.37-2.31,16.47-5.06,24.53-7.61,3.89-1.23,9.92-3.4,13.53-4.23,1.16-.54,2.01-.54,2.54,0Z"></path>
  <path class="cls-105" d="M427.44,307.04c.74.24.73.52,0,.85-9.89,3.56-19.7,7.47-29.6,11-.8.11-1.82-.16-2.54,0,10.17-5.08,21.39-8.14,32.14-11.84Z"></path>
  <path class="cls-132" d="M440.13,302.82c-4,1.37-8.47,3.56-12.69,5.08v-.85c4.19-1.44,8.15-3.82,12.69-4.23Z"></path>
  <path class="cls-42" d="M458.61,235.7c-2.83-3.72-3.25,2.03-5.1,4.79-10.29,15.41-26.94,16.78-40.06,28.45l-6.3,8.49c-1.34-23.99,19.21-58.55.01-79.1-1.22-1.31-7.83-6.91-9.32-5.48-.81,23.3-21.93,37.46-30.47,57.52-1.8.27-1.36.07-1.88-1.07-.99-2.18-1.67-6.4-2.09-8.9-3.52-20.97-.36-46.78-18.45-61.9-1.11-.93-7.6-5.6-8.45-5.93-2.56-1-.42,5.93-.37,7.15.37,9.77-.5,17.44-2.95,26.73-3.93,14.92-12.71,28.84-11.47,44.78-17.46-20.41-15.17-59.77-48.2-64.28,5.98,15.34,2.95,29.98,1.69,45.67l-.85,4.23c-.52,8.62-.17,17.93,1.08,26.41.16,1.11,1.58,1.68-.65,1.49-19.44-15.63-30.8-56.2-62.18-43.97l6.91,10.42c11.06,19.09,7.59,42.32,15.92,62.31-20.45-14.07-44.15-38.36-69.33-18.19,11.47,6.31,21.46,14.45,25.36,27.49v.85c1.34.46,2.72,1.16,4.23,1.69-1.33-8.13-4.65-15.1-7.22-18.75-3.27-4.63-7.12-8.53-12.21-11.14,9.74-5.39,22.36-1.21,31.34,4.63l17.8,12.2s11.63,6.17,16.82,7.98c1.45.51,2.98,2.23,5.07,1.68-6.69-5.18-8.65-13.27-8.65-13.27-3.13-11.48-5.33-23.17-6.58-35.07-1.49-10.84-5.1-20.66-11.01-29.68,10.68-1.5,19.44,6.18,25.67,13.99,2.88,5.03,28.18,38.11,34.16,35.51,1.8-.78,2.88-1.41,2.17-3.47-4.34-9.24-4.92-19.56-3.99-29.59,3.18-15.73,3.62-31.03,1.3-45.91,9.77,3.66,15.71,12.78,19.63,22.02,4.26,13.1,9.78,25.47,16.57,37.1,1.84,2.51,7.39,9.72,9.47,5.79-.32-10.41.11-20.17,4.41-30.08,5-11.1,8.56-22.48,10.68-34.15,0,0,1.1-11.48-.8-13.93,9.43,7.01,13.96,18.47,15.36,30.29.66,14.94,2.86,29.49,6.58,43.65,1.06,3.31,2.69,6.74,5.98,3.87,5.71-12.93,13.6-24.29,22.46-35.32,5.08-7,9.46-14.7,11.03-23.32,10.98,9.1,9.41,24.77,6.96,37.52-3.08,11.97-5.29,24.05-6.62,36.25-.89,3.1,1.99,19.76,6.36,13.96,1.89-9.04,7.63-15.88,15.56-20.32,13.77-5.35,24.8-13.41,33.09-24.18,4.19,11.4,1.24,23.38-3.39,34.17l-11.47,24.2,2.15-.86c.25-.08,1.79-.42,2.04-.51,1.22-.28,1.83-.56,3.03-1.19,7.98-17.26,22.69-45.96,9.17-63.73ZM241.77,299.44s-.09-.05-.14-.07c.03,0,.06-.02.09-.03l.05.1Z"></path>
  <path class="cls-119" d="M237.97,290.97c-7.05-17.86-5.21-38.76-12.54-56.4-1.89-4.56-5.14-8.37-6.92-12.95,22.93-4.22,33.67,22.67,46.49,36.81,1.86,2.05,14.52,14.58,16.94,12.24-11.06-21.93.06-45.83-1.7-68.92-.27-3.49-.7-6.28-1.67-10.58,29.01,8.99,24.35,50.57,46.1,67.66.16-4.12-.69-7.96-.41-12.25,1.13-17.34,15.21-38.82,15.21-54.15,0,0,.54-10.45-.43-14.8,27.46,17.18,13.89,55.05,26.66,80.35.54.42,1.55-1.38,1.85-1.94,2.62-4.88,4.27-9.56,7.42-14.57,9.03-14.36,23.18-26.54,25.4-44.38,1.39-1.24,7.5,6.65,8.3,8.18,9.74,18.55-4.23,47.4-4.92,67.53-.16,4.57.36,10.98,2.96,14.79,4.11-21.56,23.43-23.85,37.92-33.97,5.52-3.86,7.4-7.29,11.32-12.32.54-.69-.02-1.55,1.92-1.06,9.14,21.3-5.45,41.85-13.52,60.9-1.33.44-2.7,1.17-4.23,1.69-4.3,1.48-8.53,2.89-12.69,4.23-10.58,4.25-21.29,8.2-32.14,11.84-3.78,1.85-8.49,3.69-12.75,4.87-.19.05-.47-.25-.78-.64-18.99,5.97-37.66,10.74-57.92,11.91-45.55,2.62-86.94-12.53-128.17-29.67-.63-2.02-1.38-4.32-1.69-5.08-4.5-10.88-9.61-20.59-21.14-25.39-.89-1.12,6.58-3.66,7.57-3.84,19.69-3.56,32.28,10.71,47.41,19.92,4.45,3.36,9.24,6.18,14.38,8.46,1.94.95.31-.83.31-.83l-4.54-7.63Z"></path>
  <path class="cls-154" d="M599.99,35.53v58.36c.69,3.36.64,6.78,0,10.15h-.85c-.75-.16-.72-.44,0-.85-2.07-4-2.06-7.84,0-11.84-2.56-2.65-2.4-8.26,0-11-2.03-2.56-3.39-3.12-4.07-1.66-58.49,1.48-116.89,1.53-175.21.15.31,1.44.3,2.78-.04,4.05,3.17.36,10.96,7.49,5.92,7.61-3.17,1.49-9.64-6.18-10.55-9.27-1.02-3.45.1-10.12,4.21-8.5.08-.66.29-1.66.76-1.69,5.74-.45,15.1-.44,20.85,0l1.23,1.69c-1.25-1.83-.73-2.19,1.27-1.27-.66-.18-1.63-.46-1.69-.99-.25-2.06-.38-16.7,0-18.08l1.69-1.23c-1.83,1.25-2.19.73-1.27-1.27-.08.66-.29,1.64-.77,1.69-3.51.35-19.72.64-22.52,0l-1.24-1.69-.91,1.77c-16.72,1.66-26.46,16.3-22.07,32.59l-1.13,2.01c-.23-.35-1.64-.66-2.09-1.68-1.6-3.61.83-5.33-5.52-5.09-.18,4.53.63,9.19-.88,13.54-.33-.15-.68-.84-.82-.85l-1.39-2.08c5.46-43.84-52.24-55.64-61.05-12.16l-1.84,1.56c-.91,11.43-.88,51.61-.54,63.86l-1.16-28.33c-2.1-5.12-2.08-10.1,0-15.23l-1.69-2.82-.16-15.39c-2.13-.36-4.36-.53-6.7-.51.57,6.61-.44,13.07-1.6,19.57,2.09,5.4,2.11,10.67,0,16.07-.24.74-.52.73-.85,0l-1.69-1.76.16-24.57c1.02-42.36-53.5-50.86-62.54-8.99l-1.91,1.49c-.24.74-.52.73-.85,0-.07-1.69.06-3.4,0-5.08l-32.15-.84c-.05-7.59-.33-15.2-.85-22.84-.19.72-.47.69-.85,0-7.25.41-14.55.56-21.93.46,1.19.27.93.54-.49.81.23,20.56.09,41-.42,61.32-.21-4.81-.74-10.11-.85-15.23-2.45-2.74-2.43-6.5,0-9.3-2.56-2.45-2.4-8.45,0-11-3.62-2.16-9.73-2.2-14.15-2.2-41.09.03-82.37.02-123.45-.03-1.51,0-3.74.25-5.27.49-1.87-.75-3.3-.17-4.3,1.74,2.38,3.98,2.43,8.76,0,12.69,1.65,1.36,1.65,2.87,0,4.23-.24.74-.52.73-.85,0v-62.59c1.13-1.13,1.51-.78,2.89-.9,187.33.68,375.08-1.11,562.14.9Z"></path>
  <path class="cls-107" d="M588.88,290.93c-.75,4.25-.65,9.89-1.57,14.42-.78,3.87-2.33,10.74-3.38,14.38-.27.93-1.52,2.94-2.54,3.38.53-4.85,1.66-9.64,3.38-14.38-.34-1.27-.34-2.68,0-4.23.21-.97.57-2.06.85-3.38.78-1.6,3.37-9.04.96-9.37-11.93-1.29-23.81-2.68-35.64-4.16-4.5-.17-8.59-.74-12.26-1.69-7.03.7-15.61.69-22.84,0-3.32,1-7.12,1.56-11.42,1.69-1.57.56-3.54.64-5.08,0-3.04.39-6.14.95-9.3,1.69-.28.02-.57-.03-.85,0-2.29.53-4.27.53-5.92,0,3.54-.81,7.89-2.12,11.43-2.53,21.71-2.53,46.77-2.12,68.49,0,8.5.83,17.28,2.67,25.69,4.17Z"></path>
  <path class="cls-51" d="M182.99,92.2c.02,3.09-.06,6.21,0,9.3l-2.88,1.75-144.3-.06c-.62-1.69-.62-3.4,0-5.08,0-1.41,0-2.82,0-4.23l.57-1.7c48.51-.56,97.02-1.12,145.54-1.67l1.06,1.68Z"></path>
  <path class="cls-86" d="M599.15,103.2c0,.28,0,.56,0,.85-.03,3.09.03,6.21,0,9.3-3.04-2.11-2.39.83-3.01.89-1.17.11-4.62-1.72-6.76-1.77-42.44-.95-85.28,1.51-127.68.95-3.91-1.73-8.95.6-12.47-.95-1.17-.51-.92-1.69-1.49-2.51-7.67-6.7-8.3-7.78,2.08-8.9l148.29.44,1.04,1.69Z"></path>
  <path class="cls-157" d="M174.54,297.74c-38.53-11.59-75.08-18.18-115.03-8.46.58-1.32,1.78-2.06,3.14-2.36,32.49-7.16,77.54-2.61,108.71,8.5,1.34.48,2.62.8,3.19,2.31Z"></path>
  <path class="cls-68" d="M34.97,98.12c.62,13.53.68,27.07,0,40.6,0,20.42.27,40.91.01,61.34-.02,1.43.54,3.76-.86,4.64.07-8.15.13-16.38,0-24.53l.85-86.28v4.23Z"></path>
  <path class="cls-43" d="M600.84,126.03c0,23.39-.07,46.82,0,70.2-1.4-.88-.84-3.21-.86-4.64-.36-29.16.01-58.4.01-87.56,0-3.37,0-6.78,0-10.15,1.4.88.84,3.21.86,4.64.11,9.16-.02,18.35-.01,27.5Z"></path>
  <path class="cls-160" d="M428.29,153.1c-4.19.62-11.02.12-13.82.85-.76.2-.35,3.79-3.52,0-.32-.12-.33,3.9-3.38,0-.75,3.98-3.31-.44-3.79,0,.07,3.71-1.89.45-3.16.18-2.19-.47-3.58-.31-6.16-1.03h33.83Z"></path>
  <path class="cls-6" d="M35.82,103.2c-.02,10.28.14,20.6.01,30.89-.02,1.43.54,3.76-.86,4.64,0-13.52,0-27.08,0-40.6h.85c0,1.69,0,3.38,0,5.08Z"></path>
  <path class="cls-51" d="M599.15,91.36c.04,3.93.03,7.91,0,11.84l-149.11-.46c-2.4.75-5.59-.38-7.35,1.73,2.49,1.94,3.43,3.12,5.06,5.5h-.85c-1.39-1.45-9.17-8.22-9.3-9.3-1.04-1.24-1.12-1.64-.25-1.22-7.07-4.46-8.32-7.42-3.78-8.89l164.53-.89,1.05,1.69Z"></path>
  <path class="cls-92" d="M499.34,287.59v.85c-2.93.11-6.26.59-9.3.85,2.64-2,6.23-1.57,9.3-1.69Z"></path>
  <path class="cls-117" d="M599.15,80.36c.2,3.63-.04,7.36,0,11l-166.17.9c-.58.51-1.38.66-.9,1.64.37.75,6.01,4.8,6.24,5.25.4.77-.75,1.35-.73,1.51-4.4-2.8-8.11-6.58-11.84-10.15l.83-.42c-2.23-2.43-4.85-4.46-6.75-7.19l.57-1.7c59.27-.8,118.5-1.63,177.68-2.51l1.07,1.68Z"></path>
  <path class="cls-117" d="M182.99,81.21c.22,3.61-.02,7.37,0,11l-147.18,1.69c.02-4.22-.08-8.47,0-12.69,0-.66.18-1.69.59-1.69,44.95-.55,91.26-.61,136.43,0,3.06.04,6.07.07,9.11.04l1.04,1.65Z"></path>
  <path class="cls-103" d="M419.83,82.9c-1.24-1.78-2.95-2.86-1.26-5.93,9.22,1.47,19.31.94,28.78.9,46.61-.18,93.65.77,140.29-.81,2.51-.08,6.7,2.92,7.3-1.77,3.37,1.43,4,1.22,4.21,5.07l-179.32,2.54Z"></path>
  <path class="cls-141" d="M35.82,81.21c.03-1.69-.03-3.39,0-5.07,3.34,2.93,6.67,1.04,9.86,1.16,40.69,1.58,81.64-.63,122.36,0,4.79.07,10.01,1.04,14.95.52.06,1.12-.07,2.26,0,3.39H35.82Z"></path>
  <path class="cls-92" d="M550.94,287.59c-4.94-.27-12.01-.85-16.49-.85h-14.38c-4.76,0-10.57.7-15.65.85,2.17-1.72,6.04-.61,8.91-.81,1.09-.08,2.22-.88,2.51-.88h22.84c.3,0,1.41.81,2.51.88,3.14.2,7.31-.91,9.76.82Z"></path>
  <path class="cls-86" d="M308.18,100.66c-.14-6.31,3.43-12.14,5.89-2.86,2.77-.62,4.19.05,4.26,2.01.02,5.06,0,10.16,0,15.23,0,4.22.01,8.47,0,12.69-.38,3.42-8.14,3.42-10.15.85-.64-3.92-.65-7.93,0-11.84.02-5.35-.02-10.73,0-16.07Z"></path>
  <path class="cls-83" d="M308.18,128.57c1.16-1.07,2.74.24,3.68.05.62-.13.57-3.14,2.22-1.71.7.61-1.04,2.59,4.25.82-.02,8.73.01,17.5,0,26.23-3.44-.23-6.8.48-10.16.84-.48-8.75-.48-17.49,0-26.22Z"></path>
  <path class="cls-37" d="M426.6,126.88c-.76.75-1.39,1.1-1.69,0-10.4.7-20.83.98-31.3.85-.8,7.93-1.36,16.87.42,24.53l.15-.88c10.76.62,21.43.92,32,.88,3.35-1.15,6.88-2.28,10.57-3.38,4.5-2.21,7.14-4.38,10.15-8.46-.22.51.2,1.98-.44,3.33-1.46,3.08-10.42,8.16-13.78,9.11-1.65.47-3.02.04-4.39.24l-13.04.35c-4.89,1.16-10.2.73-14.75.16l-6.04-.51c-1.62-.46-2.88.6-3.39-2.11-.61-3.25-.42-16.69,0-20.32.14-1.21.39-2.95,1.26-3.81,2.19-2.16,27.9-.09,32.87-.79,1.31-.3,1.54-4.6,1.41-5.96,1.17,2.4,1.42,4.34,0,6.77Z"></path>
  <path class="cls-154" d="M240.51,102.35c-1.42-5.45-1.42-13.16,0-18.61.16,6.17.03,12.43,0,18.61Z"></path>
  <path class="cls-59" d="M318.33,99.81c-1.32-1.1-5.73.23-5.92,0-.43-.55,1.09-5.58-2.54-5.07l-1.7,5.92c.03-7.04-.02-14.11,0-21.15.57-.57,8.19.95,9.75-.83.77,6.98.38,14.11.41,21.13Z"></path>
  <path class="cls-119" d="M384.3,92.2c-.45-.03-3.79,23.41-27.91,26.22-1.89.22-12.49.62-13.07.31-.28-.15-.4-.61-.47-1.16,2.1.15,2.45,1.53.42,2.16.22,12.1.08,24.06-.42,35.91-7.26.3-14.59.58-21.99.85-.56-.03-1.13.04-1.69,0-.04-2.25.04-4.52,0-6.77.05-23.19.33-46.59.85-70.2,1.59-25.06,30.18-39.7,51.03-24.38,11.24,8.26,15.61,23.79,13.26,37.07Z"></path>
  <path class="cls-133" d="M356.39,118.42c-.24.04-.84.75-2.03.89-3.32.38-7.25-.35-10.65-.04v37.22c-7.58-.27-15.27.37-22.84,0,6.89-1.94,14.85-.32,21.99-.85v-38.06l13.53.85Z"></path>
  <path class="cls-138" d="M357.24,95.58c-4.92,2.21-8.53,1.56-12.69-1.69-3.63-3.28-5.47-13.75-1.76-16.66,6.39,1.64,11.98,1.24,18.38,0,4.77,5.95,1.93,14.14-3.93,18.35Z"></path>
  <path class="cls-67" d="M357.24,95.58l5.03-7.23c.94-14.07-1.35-8.48-9.69-8.17-2.64.1-7.8-.88-10.56-1.52l.03,9.69,2.5,5.54c-7.65-5.99-5.8-19.08,3.22-22.57,15.55-6.03,23.27,18.07,9.47,24.27Z"></path>
  <path class="cls-40" d="M206.68,54.14c.73,22.55.74,47.35,0,70.2-.11-.31-1.27-1.03-.9-2.02l.05-67.34h-21.15v76.55c0,.67,1.94,8.4,2.35,9.49,1.21,3.24,4.12,5.96,6.11,8.7-.94-.69-1.78-.4-3.38-2.12-7.68-8.25-5.48-20.71-5.93-30.87v-62.6c7.16.69,15.89-.92,22.84,0Z"></path>
  <path class="cls-159" d="M234.59,131.11c.63,8.08.77,16.35.42,24.8-9.45.39-18.9.3-28.34-.27-1.77-.35-3.73-.13-5.08-1.69,10.38,2.18,21.59.13,32.14.85v-21.57c0-2.92-19.8.2-21.99-2.11,7.53-.68,15.14-.68,22.84,0Z"></path>
  <path class="cls-151" d="M208.37,76.98c.07,16.34-.05,32.72,0,49.06.41.26.4.54,0,.85-.5-.71-.55-1.02-.85-1.69-.74-23.32-.73-47.82,0-71.05.79.36.72.29.86,1.23.86,5.72-.04,15.35-.02,21.61Z"></path>
  <path class="cls-133" d="M235.44,131.11c.41,8.41-.3,16.96,0,25.38-9.53-.45-19.5.98-28.76-.85h27.92c-1.19-5.91.97-19.22,0-24.53.24-.74.52-.73.85,0Z"></path>
  <path class="cls-13" d="M208.37,126.03c1.83.86,2.49,2.33,4.66,2.75,3.51.68,21.45-.1,22.42.63.04.56-.03,1.13,0,1.69h-.85c-7.63-.27-16.79.85-24.38.55-3.45-.55-3.04-6.68-4.07-8.13l2.23,2.51Z"></path>
  <path class="cls-4" d="M207.52,125.19c-.11-.24-.72-.5-.85-.85V54.14c.3.04.66-.09.85,0v71.05Z"></path>
  <path class="cls-56" d="M234.59,131.11h-22.84l-.8.35c6.35,1.01,15.87-2.05,22.41-1.22.86.11.94.01,1.22.87Z"></path>
  <path class="cls-119" d="M425.75,90.51s8.87,6.87,11.84,10.15c0,0,6.96,5.91,9.3,9.3,5.63,12,5.04,18.74,0,30.45-1.02,4.05-6.37,8.88-10.15,8.46-3.27,3.41-40.92,4.23-42.69,2.66-.54-.47-.94-1.59-.44-2.24-.98-6.01-.96-13.36,0-19.45-1.06-1.46.9-1.67,2.38-1.77,10.62.91,20.82.51,30.61-1.19.4-2.12.4-4.38,0-6.77-1.14-2.33-7.36-7.24-9.72-9.31-10.26-8.95-15.5-12.55-23.26-24.53-4.31-12.22.2-27.28,12.11-33.14,2.35-1.15,9.65-3.23,11.99-3.23h24.53c.09,0,1.27,1.18,1.27,1.27v20.3c0,.09-1.18,1.27-1.27,1.27h-22.84c-.65,0-2.58,3.01-2.8,4-1.38,6.25,5.27,10.06,9.14,13.77Z"></path>
  <path class="cls-127" d="M426.6,126.88c-.64,1.09-.62,1.42-2.1,1.68-7.98,1.38-19.58-1.02-27.97-.03-.85.1-2.92.39-2.92,1.31v19.45c0,.29.92,2.02,1.43,2.14,3.66.87,22.13.32,26.94,0s9.93-1.53,14.77-2.57c-3.04,1.5-7.01,3.38-10.57,3.38h-32.14c-.93,0-1.21-2.07-1.31-2.92-.48-4.12-.5-15.45,0-19.54.1-.83-.29-1.98.88-2.07,10.46.11,20.9-.17,31.3-.85.44-.13,1.16.09,1.69,0Z"></path>
  <path class="cls-41" d="M424.91,126.88c-8.63,2.64-21.96-.21-31.3.85l31.3-.85Z"></path>
  <path class="cls-133" d="M241.36,82.9l1.69.58v71.13l-1.69,1.02c.18-.66.44-1.61.97-1.69,2.99-.45,16.86-.46,19.8,0l1.22,1.69c-.4.04-.78.05-1.13-.07-1.73-.58-1.07-33.32-.56-36.16l1.69-.99c.18-.66.46-1.65.97-1.69,4.99-.42,13.98-.42,18.97,0l1.21,1.69c.66,0,1.66.15,1.69.58.71,8.69.94,25.88,0,34.37l-1.69,1.01c6.77-.09,13.69-.45,20.77-1.08l2.07,1.5c.09-.78.38-.73.85,0-.08.61.42,1.8-.51,1.71-6.95-.66-15.19.82-21.95.03-.85-.1-2.92-.39-2.92-1.31v-35.95h-16.49c-.09,0-1.27,1.18-1.27,1.27v34.68c0,.09-1.18,1.27-1.27,1.27h-22.84c-3.85,0-1.28-10.87-1.23-13.08.32-13.74.75-27.3.81-41.06-.69-6.18-.64-12.42,0-18.61,0-.28.01-.56,0-.85h.85Z"></path>
  <path class="cls-119" d="M307.33,116.73c.57,12.67,1.06,25.42,0,38.06-6.23.57-13.51,1.64-19.92.89-.85-.1-2.92-.39-2.92-1.31v-35.95h-21.15v37.22h-21.99v-72.74c2.6-23.03,26.02-38.19,47.67-26.95,22.87,11.88,18.23,39.11,18.31,60.78Z"></path>
  <path class="cls-29" d="M308.18,128.57c-.04,7.88.94,18.82,0,26.22-.28.03-.57-.03-.85,0-.03-12.67.04-25.39,0-38.06h.85c-.01,3.94.02,7.9,0,11.84Z"></path>
  <path class="cls-65" d="M284.5,93.89h-21.15c-.89-7.74.29-19.04,9.95-20.14,3.81-.43,11.19,4.53,11.19,7.88v12.26Z"></path>
  <path class="cls-58" d="M265.04,92.2c.08-2.96.32-12.12,2.63-13.45.47-.27,2.24,1.67,3.72,1.59.75-.04,3.68-1.02,5.94-1.29,1.38-.17,1.92-1.91,3.83.25,2.88,3.25,1.26,8.85,1.65,12.91h-17.76Z"></path>
  <path class="cls-119" d="M192.95,150.5c-5.8-4.08-8.39-12.22-8.26-18.96-.7-24.78-.76-51.59,0-76.55,7.08-.75,14.13-.75,21.15,0,.25,23,.54,46.12.85,69.36.55,6.26,5.8,6.44,5.08,6.77,7.43.29,14.86.58,22.3.85l-.31,1.26c.76,6.95.76,14.14,0,21.57-10.84,1.13-21.55,1.99-32.14.3-4.42-.93-5.21-2.08-8.66-4.59Z"></path>
</svg>
