<?xml version="1.0" encoding="UTF-8"?>
<svg xmlns="http://www.w3.org/2000/svg" id="Layer_1" viewBox="0 0 247.9 308.45">
  <defs>
    <style>.cls-1{fill:#4a433c;}.cls-2{fill:#d0ad6c;}.cls-3{fill:#d1ad6c;}.cls-4{fill:#863d91;}.cls-5{fill:#843b91;}.cls-6{fill:#d0ac6c;}.cls-7{fill:#e8d6b7;}.cls-8{fill:#3a3636;}.cls-9{fill:#cba96a;}.cls-10{fill:#534a3f;}.cls-11{fill:#843a92;}.cls-12{fill:#594f41;}.cls-13{fill:#d1ad6d;}.cls-14{fill:#813b90;}.cls-15{fill:#e3cda7;}.cls-16{fill:#cdaa6b;}.cls-17{fill:#cfac6c;}.cls-18{fill:#544b3f;}.cls-19{fill:#ceab6b;}.cls-20{fill:#007141;}.cls-21{fill:#443e39;}.cls-22{fill:#393535;}.cls-23{fill:#4f473e;}.cls-24{fill:#ceab6c;}.cls-25{fill:#4e463d;}.cls-26{fill:#373435;}.cls-27{fill:#383435;}</style>
  </defs>
  <path class="cls-13" d="M246.75.02c.23-.03.44-.03.63.05.17.07.47,3.17.51,3.72v208.26c.21,6.87-1.61,12.64-4.77,18.66-14.12,26.88-53.2,50.28-80.2,63.09-12.37,5.87-25.52,11.77-38.86,14.66h-.9l-4.91-.9c-34.01-12.42-71.48-30.15-97.75-56.19C11.13,242.08-.41,229.25.45,215.38c-.15-.7-.3-1.44-.45-2.25V2.27C-.02,1.39.13.64.45.02h246.3Z"></path>
  <path class="cls-15" d="M.45,215.38H0v-2.25c.73.38.43,1.53.45,2.25Z"></path>
  <polygon class="cls-7" points="0 2.27 0 .02 .45 .02 0 2.27"></polygon>
  <path class="cls-11" d="M71.47,279.67l52.81-52.59,51.46,52.36c-16.61,9.05-33.86,17.05-51.95,22.69-18.22-5.55-35.42-13.82-52.32-22.46Z"></path>
  <polygon class="cls-11" points="6.29 210.89 6.29 108.37 57.5 159.92 6.29 210.89"></polygon>
  <polygon class="cls-11" points="241.36 209.54 192.38 159.41 241.36 111.07 241.36 209.54"></polygon>
  <path class="cls-20" d="M187.26,164.61l53.03,54.58c-3.58,11.83-12.19,22.11-21.17,30.38-10.96,10.09-24.02,18.58-36.87,26.07l-53.25-53.29,58.26-57.74Z"></path>
  <path class="cls-13" d="M183.6,213.58l6.74-17.53,6.58,17.47,21.96,1.86c-.51.03-.99.33-1.36.66-1.82,1.67-13.56,11.8-13.83,12.7-.79,2.6,3.33,16.25,2.6,17.22l-14.97-9.83-16.93,11.18,5.29-18.15-16.53-15.57h20.45Z"></path>
  <path class="cls-26" d="M71.46,10.36c.79-.5,2.81-2.22,3.39-2.27,1.48-.13,4.55,2.96,7.17.03,1.63.03-1.01,2.43-1.35,2.68-1.17.84-3.37,1.17-3.37,1.35v18.88c1.79.2,3.06-1.43,4.45-2.06,2.76-1.25-1.3,2.41-2.06,2.88-4.13,2.57-8.84,3.4-13.55,2.02-13.09-3.84-11.38-20.99.82-24.42-1.1,1.5-2.91,2.31-4.04,3.82-6.88,9.2,2.56,22.62,13.42,18.15l.04-19.25c-1.59,0-3.01-.8-4.48-1.37-.78.32-.94.27-.45-.45Z"></path>
  <path class="cls-27" d="M71.91,10.81c-.87.43-.86.63-.93,1.53-.45,5.54,2.57,15.92-4.46,17.35,1.69-4.88.6-10.2.89-15.28-.76.61-1.95.89-2.69,1.35-.63.6-.86.34-.45-.45,2.12-1.71,4.87-3.47,7.19-4.95.12.16.27.38.45.45Z"></path>
  <path class="cls-18" d="M64.72,15.75c-.39.24-.98,1.32-1.79,1.35-.21-1.01.7-1.28,1.34-1.8l.45.45Z"></path>
  <path class="cls-8" d="M189.22,21.6c.8-1.03,1.8-2.38,2.26-3.6,2.21.95,2.62,3.13,5.38,1.8-.72,3.9-4.18,4.17-7.19,2.25-.44.15-.59,0-.45-.45Z"></path>
  <path class="cls-25" d="M189.67,22.05c-.32.96-1.31,1.6-1.8,2.25l-.45-.45c.6-.67,1.24-1.52,1.8-2.25.14.15.27.34.45.45Z"></path>
  <path class="cls-26" d="M187.42,23.85c.63-.6.86-.34.45.45-1.6,2.13-2.63,2.95-.4,5.12,2.85,2.78,6.19,1.55,9.39.27-1.69,6.31-10.85,5.78-13.71.46-3.3,4.26-16.38,6.91-16.45-.68-.04-4.66,6.53-7.71,10.38-8.78l-1.59-1.78-5.15-3.38c.25-.61,10.04-7.64,10.68-7.79,3.52-.86,6.29,4.14,4.08,7.71-1.1,1.78-4.34,3.1-3.78,4.81.2.61,3.73,5.83,4.08,5.82.77-.66,1.36-1.49,2.02-2.24Z"></path>
  <path class="cls-3" d="M172.3,24.9c.43-.5,4.71-3.75,5.02-3.72.83,1.4,5.57,7.24,4.96,8.5-.75,1.56-5.48,3.23-7.2,3.18-4.49-.14-5.52-4.78-2.78-7.96Z"></path>
  <path class="cls-6" d="M174.39,14.4c-.5-.68,4.09-3.9,4.79-3.96,1.32-.12,3.71,2.84,3.71,4.2,0,1.22-1.52,3.03-2.44,3.81-1.69-1.87-3.52-3.47-6.07-4.04Z"></path>
  <polygon class="cls-11" points="126.13 101.66 182.45 159.79 124.28 217.62 66.98 159.85 126.13 101.66"></polygon>
  <path class="cls-13" d="M121.8,158.73c-3.7,4-.92,16.12-7.98,17.45-5.04.95-5.42-5.39-7.96-7.57-1.19-1.03-3.05-.86-4.05-2.24-2.32-3.19.16-7.04,3.37-8.31,3.68-1.45,12.24-.81,14.56-2.44,1.5-1.05-1.31-2.07-2.24-2.26-5.01-1-13.89,1.06-16.41-4.72-1.75-4.01,3.55-6.43,5.63-8.83,1.73-1.99,1.23-4.64,4.27-5.62,3.68-1.18,5.64,1.94,6.85,4.89,1.76,4.31,1.58,9.34,4.19,13.34,3.47-2.77,2.57-8.19,3.5-12.24.75-3.27,2.75-7.64,6.81-7.07,4.8.67,3.67,5.56,5.31,7.06.9.82,2.77.37,4.62,2.36,1.35,1.45,1.71,2.03,1.26,3.97-1.61,6.9-11.14,4.76-16.34,6.15-6.95,1.86-.76,4.03,2.94,4.27,4.88.32,10.25-2.51,13.7,2.48,1.29,1.87,1.13,4.26-.23,6.06-.98,1.29-2.92,1.43-4.06,2.68-2.53,2.78-1.51,8.55-7.41,7-4.44-1.17-4.15-7.4-6.17-10.45-.22-.33-.31-1.27-1-.58-.35.35-1.04,7.97-1.72,9.75-.9,2.39-3.23,7.16-4.66,9.28-1.97,2.91-3.24,4.61-7.11,3.9-.77-.76,3.96-5.72,4.68-6.78,2.11-3.13,5.66-10.9,5.66-14.57v-6.97Z"></path>
  <path class="cls-26" d="M23.37,40.93c.56-.08,1.22.05,1.8,0-.54,1.3-3.2,1.01-4.49.89.11-.62,1.01-.92,2.7-.9Z"></path>
  <path class="cls-12" d="M34.16,31.04c-.77.58-1.42,1.28-2.25,1.8-.18-.23-.28-.75-.45-.9.84-.3,1.5-.9,2.25-1.35.65-.44.88-.26.45.45Z"></path>
  <path class="cls-23" d="M23.37,40.93c-.54.08-2.15.59-2.7.9-.81-.07-.92-.32-1.35-.45.34.04.76-.43.9-.45,1-.12,2.13.08,3.15,0Z"></path>
  <path class="cls-21" d="M33.71,30.59c.65-.39,1.02-1.05,1.8-.9.33,1.26-.65.82-1.35,1.35l-.45-.45Z"></path>
  <path class="cls-26" d="M19.33,41.38c-1.35-.41-2.4-.48-2.94-2.22-1.68-5.42,5.13-8.86,9.69-8.57v-8.09c-1.18.11-2.61-.24-3.73.09-.99.29-1.33,1.86-2.56,1.7.15-4.07,2.68-5.2,6.31-5.65-.32-1.79.67-5.79-.66-6.97-1.51-1.33-4.63-1.24-6.42-.52-.33.14-2.33,2.25-2.36.77-.01-.68,2.51-3.04,3.27-3.47,3.88-2.2,7.73-.31,10.68,2.55,4.14,4.02,2.51,7.03,10.09,6.53.5-.03,2.9-.42,2.95-.7-.2-.87.21-4.84-.05-5.11-.1-.1-2.6-.49-2.88-.46-1.07.09-3.1,2.67-2.93.45,1.74-.32,5.08-4.1,6.53-4.05.88.03,1.24,1.21,2.25,1.36.94.14,3.31-1.36,3.34-.24.01.41-1.53,2.14-2.07,2.42-1.1.57-2.87.36-2.87.51v23.38c-4.62-.29-6.1-8.52-9.78-9.77-1.38-.47-7.36-.99-8.14-.07-.17.2-.22,5.14-.03,5.33.17.17,3.3.34,4.48,1.37,1.21-.24,1.32.05.45.9-.69.43-2.48,1.75-2.95,1.82-1.56.22-4.19-2.04-7.96-1.27-4.28.88-5.74,6.52-.78,7.54.58.64-.2.58-.9.45Z"></path>
  <path class="cls-19" d="M26.97,13.51c.55-.62,2.91,2.68,3.32,3.19,1.77,2.21,3.53,4.81,4.77,7.37-1.72.34-3.42-.22-5.19-.25-.68-.01-2.91.86-2.91-.2v-10.12Z"></path>
  <path class="cls-19" d="M43.6,29.24l-7.65-11.01c2.66.09,5.11.62,7.65-.68v11.69Z"></path>
  <path class="cls-26" d="M145.55,8.91c.11-.05.09-.59.19-.64,1.64-.92,1.49,1.81,2.05,3.29,2.44,6.45,6.2,13.38,9.36,19.45.79.51,2.1-.33,2.41.92-1.48.1-3.35,2.99-4.63,2.66-1.49-.39-3.59-6.79-4.33-8.3-.51-.34-11.49-.42-12.31-.13-.69.24-2.33,3.76-2.09,3.97,3.46-.81,5.89,2.52,8.76,0,.5.13.24.6.02.92-.34.5-4.92,3.55-5.4,3.57-.84.03-2.82-1.44-4.16-1.67-8.92-1.53-11.73,7.31-2.54,8.38,1.61.19,2.68-.05,4.2-.2,2.03-.2.84,1-.62,1.18-4.91.61-12.7-1.74-9.33-7.98,2.05-3.79,6.38-3.16,7.96-4.63.47-.44,5.44-10.64,5.6-11.48-2.64-2.11-3.79-.28-6.27.69.27-2.03,1.89-3.99,3.92-4.39,2.69-.53,4.39,1.8,5.47-2.18.29-1.07-3.1-1.12-3.78-1.1-2.31.06-2.78,1.25-4.71,1.16,1.87-3.13,4.52-4.89,8.3-4.26.77.13,1.29,1.08,1.96.79Z"></path>
  <path class="cls-2" d="M148.77,22.95h-9.44c1.86-3.18,3-7.13,5.39-9.89.76,3.46,3.12,6.44,4.05,9.89Z"></path>
  <path class="cls-27" d="M216.64,13.06c-3.64,3.42-.7,10.12-1.88,14.07-.29.97-4.12,2.84-4.41,2.56-.12-.89.72-1.16.89-2.03.29-1.52-.17-3.56,0-5.16-.22-.22-2.39.26-2.86.53-.85.49-.39,1.57-1.63,1.27-1.51-5.63,4.05-4.5,4.5-4.94.11-.11-.08-2.26.2-3.18.54-1.76,3.38-3.33,5.19-3.12Z"></path>
  <path class="cls-22" d="M218.88,8.56c-.33,2-3.53,3.7-5.28,3.95-3.22.47-12.03-4.41-7.75,3.24-3.95-1.44-1.49-6.39,1.67-7.1,4.57-1.02,7.47,2.88,11.36-.09Z"></path>
  <path class="cls-1" d="M214.84,41.38l4.94-.9c.28,1.66-2.24,1.21-3.14,1.35-.68.12-1.82.28-1.8-.45Z"></path>
  <path class="cls-10" d="M214.84,41.38c.31.05,1.07.8,1.8.45-2.54.39-2.71.64-5.39,0,.54.23,1.16-.42,1.35-.45.56-.07,1.7-.08,2.25,0Z"></path>
  <path class="cls-27" d="M211.24,41.83c-3.43-.82-5.61-3.1-4.84-6.87s7.64-6.03,11.13-5.72c.77-6.57-3.28-20.16,7.03-20.66,2.02-.1,4.99,1.65,5.77,1.6.37-.02,1.53-1.18,2.03-.73.62.57-4.4,3.91-4.72,3.91s-2.83-1.98-4.49-2.14c-5.19-.48-4.77,3.76-4.72,7.66,2.41-.77,4.06-1.89,6.75-1.13.83.23,2.08,1.42,2.46,1.44.7.04,2.01-1.96,2.46-.52.29.93-4.38,2.61-4.94,3.59v7.87c0,.07.9-.02,1.34.21.53.28,1.32.99,1.66,1.06.78.14,2.24-1.64,2.84-.14.12.29-4.89,3.36-5.2,3.38-.65.05-6.23-2.95-8.96-3.15-8.62-.63-14.54,6.7-4.26,9.88.35.67-.72.53-1.35.45Z"></path>
  <path class="cls-17" d="M218.44,19.8c.91-1.05,5.84.37,5.84,2.02v7.87c-1.02-.68-5.84-.06-5.84-1.12,0-1.26-.29-8.44,0-8.77Z"></path>
  <path class="cls-20" d="M56.63,270.23l-1.35-.9-1.35-.9-2.25-1.35c-17.77-11.68-37.64-26.85-44.39-47.83l54.95-54.67,57.3,57.77-53.49,53.08c-1.04.52-7.96-4.28-9.43-5.19Z"></path>
  <path class="cls-14" d="M53.94,268.44h-.45c-.74-.48-1.3-1.02-1.8-1.35,1.25-.11,1.64.91,2.25,1.35Z"></path>
  <path class="cls-5" d="M55.28,269.34h-.45c-.46-.29-.9-.61-1.35-.9h.45c.29.21,1.17.11,1.35.9Z"></path>
  <path class="cls-4" d="M56.63,270.23c-.41-.25-1.06-.43-1.8-.9h.45l1.35.9Z"></path>
  <path class="cls-13" d="M87.62,199.67c1.06.68.67,6.11,1.12,6.75.89,1.28,3.3-1.4,2.95,3.78-.09,1.29-1.12,3.98-.92,4.87.11.49,1.27.52,1.32.96.06.49-3.13,7.09-3.75,7.9-1.14,1.49-4.28,4.02-5.87,5.37-2.51,2.14-5.37,3.89-7.85,6.08,2.05.21,11.38.67,11.22,3.6-1.54,1.62-4.18-.25-6.07-.24-3.06.02-7.64,6.94-7.77,9.8s4.34,2.18,4.8,3.53c.32.96.17,4.88-.42,5.75-1.82,2.65-4.82-.15-6.54-.19-1.04-.02-1.47.81-2.21.89-2.39.25-6.94-.84-8.97-.84s-6.11,1.65-8.61,1.71c-2.37.06-2.81-.48-2.29-2.78.62-2.77,2-2.23,3.72-3.47,2.13-1.54,3.93-5.23,6.51-6.74-5.68.71-3.18-4.13-3.78-4.97-.42-.59-2.32-.58-2.77-1.33-.32-.52.33-1.6.26-2.44-.19-2.3-2.06-2.85-3.08-4.15-.92-1.17-1.18-2.66-1.93-3.91-.51-.84-1.95-1.76-2.12-2.41-.27-1.05,1.14-2.1.84-3.28-4.37.57-3.6-2.69-5.4-5.17-3.16-4.35-9.57-7.12-9.43-13.71,1.92-.24,2.54,1.99,4.04,2.7.09-2.55-1-5.1-.22-7.64l6.07,6.74-1.79-5.84c5.16,3.78,9.54,8.62,14.37,12.82,6.76,5.89,13.55,8.11,12.81,19.1,2.85-3.22,3.93-8.29,6.32-11.66,3.03-4.27,12.52-10.89,13.58-16.09.24-1.18-.26-6.88,1.87-5.5Z"></path>
  <path class="cls-26" d="M96.18,21.6c-.09-.1-2.33.49-2.68.69-1.26.73-.32,2.25-1.81,2-1.43-4.72,3.92-4.39,4.47-4.96.12-.12-.05-2.09.11-2.81.38-1.7,3.19-3.12,4.85-3.24-4.02,5.56,2.76,15.15-6.08,17.3-.88-.7,1.13-1.74,1.13-2.02v-6.97Z"></path>
  <path class="cls-22" d="M105.17,8.56c.47.47-1.43,2.2-1.81,2.45-5.12,3.35-8.96-1.71-12.91.13-1.87.87.11,5.65-1.45,4.16-.4-.39-.58-3-.37-3.73.91-3,5.5-3.78,8.19-3.43,3.09.41,5.23,3.07,8.35.41Z"></path>
  <path class="cls-26" d="M107.87,15.3c.55-.73.82,0,.9.67.1.81-.16,4.11,0,4.28,5.57.39,8.16-11.8,1.68-10.69-10.62,1.82,1.21,19.1-10.22,19.68.43-.99,1.56-1.27,1.79-2.48.6-3.17-.46-7.93,0-11.25.62-4.51,12.09-10.35,15.24-5.77,1.23,1.79,1.34,4.77-.15,6.48l-4.28,3.57c8.05.74,3.96,7.19,6.29,12.15h-6.97c-1.69,0-4.81,2.6-6.33,2.7-1.37.08-5.27-1.83-7.6-1.83-3.38,0-9.15,1.69-6.91,6.05,1.52,2.94,5.02,2.57,7.8,2.53.81-.01,3.37-1.05,1.8.9h-6.74c-2.49,0-4.95-4.3-4.18-6.88,1.41-4.7,13.97-6.01,17.88-3.91V15.3Z"></path>
  <path class="cls-24" d="M114.6,23.83c-1.57.55-5.35,1.53-5.84-.66s.84-2.55,2.93-2.52,2.87,1.2,2.9,3.18Z"></path>
  <path class="cls-16" d="M108.77,31.94c.09-1.03-.46-3.14.73-3.53,1.02-.34,4.68-.18,5.07,1.1.61,1.99-4.42,1.93-5.8,2.43Z"></path>
  <path class="cls-9" d="M114.61,24.75v3.15c-2.1,0-3.76-.9-5.84,0v-3.14c2,.63,3.83.63,5.84,0Z"></path>
  <polygon class="cls-11" points="171.24 47.23 126.52 91.73 83.6 47.23 171.24 47.23"></polygon>
  <path class="cls-20" d="M6.29,47.23h67.19c15.91,16.58,32.28,32.72,47.83,49.62l-58.4,58.09-1.13-.22L6.29,99.16v-51.93Z"></path>
  <path class="cls-13" d="M50.34,84.1l6.74-17.98,5.62,16.19c.45,1.33,1.41,1.65,2.7,1.8,5.8.68,12.52.46,18.44.89.67.05,1.3-.35,1.11.67l-15.21,13.58,3.07,17.22-15.05-9.88-16.63,10.78c.87-6.17,3.93-11.98,4.64-18.11l-15.66-15.16h20.23Z"></path>
  <polygon class="cls-20" points="241.36 47.23 241.36 101.41 196.2 146.6 187.42 154.48 131.25 96.46 180.91 47.23 241.36 47.23"></polygon>
  <path class="cls-13" d="M190.58,103.42l.89-.22c-1.33-9.96,4.78-11.98,10.79-17.08,5.17-4.38,9.9-9.31,15.06-13.71,1.86-.77-.86,3.91-.68,4.04.35-.02.79.08,1.08-.03.72-.29,3.71-4.92,5.2-5.36l-.44,7.19,3.37-2.69c1.59,6.42-6.48,10.11-9.43,14.85-1.43,2.31-.39,4.76-4.74,4.48-.29,1.18,1.11,2.23.84,3.27-.18.71-1.99,1.93-2.58,2.86-.53.83-.6,1.92-1.21,2.84-1.11,1.71-3.19,2.22-3.38,4.75-.06.76.44,2.19.27,2.49-.54.95-2.82.77-2.93.88-.39.39.44,2.35.41,2.95-.07,1.45-2.64,2.71-4.01,2.44l5.83,6.08c2.5,1.43,5.22,2.62,4.32,6.09-1.23,1.74-8.93-.92-10.82-.93-2.42-.01-6.73,1.01-9.02.87-.94-.06-1.24-1.11-1.75-1.17-1.28-.16-4.07,2.21-6.54.98-1.56-.77-1.63-5.97-.81-6.89.41-.46,3.95-.54,4.35-1.72,1.17-3.42-4.13-11.05-7.78-10.97-.95.02-5.34,1.23-5.64.91-.62-.65.67-2.88,1.8-2.92l9.43-2.02c-2.13-.94-4.24-2.61-6.05-4.06-2.66-2.14-7.62-6-9.11-8.87-.31-.59-2.35-5.45-2.38-5.76-.09-1,1.14-.69,1.25-1.28.12-.65-1.07-4.29-1.11-5.56-.13-3.95,2.14-1.69,2.98-2.4.62-.52.16-6.23,1.84-7.38,1.54-1.05,1.34,5.28,1.44,5.76,1.13,5.08,10.6,11.88,13.59,16.08,2.19,3.08,3.58,7.91,5.66,11.21Z"></path>
</svg>
