<?xml version="1.0" encoding="UTF-8"?>
<svg xmlns="http://www.w3.org/2000/svg" id="Layer_1" viewBox="0 0 227.94 251.14">
  <defs>
    <style>.cls-1{fill:#f9f9fa;}.cls-2{fill:#525252;}.cls-3{fill:#5f5f5f;}.cls-4{fill:#545459;}.cls-5{fill:#cfcfd4;}.cls-6{fill:#fad3e6;}.cls-7{fill:#cbccd1;}.cls-8{fill:#eb313a;}.cls-9{fill:#ccccd2;}.cls-10{fill:#d0cdd3;}.cls-11{fill:#3f3e3f;}.cls-12{fill:#fbfcfb;}.cls-13{fill:#fcfcfc;}.cls-14{fill:#b1b1b1;}.cls-15{fill:#c6cace;}.cls-16{fill:#f6f6f6;}.cls-17{fill:#3e3e3e;}.cls-18{fill:#3f3f3f;}.cls-19{fill:#b05376;}.cls-20{fill:#cfd1d6;}.cls-21{fill:#f8f9f9;}.cls-22{fill:#cecfd4;}.cls-23{fill:#383838;}.cls-24{fill:#3c3c3c;}.cls-25{fill:#d1d2d7;}.cls-26{fill:#ccccd1;}.cls-27{fill:#424242;}.cls-28{fill:#cfcfd5;}.cls-29{fill:#dec6ac;}.cls-30{fill:#e9e9e9;}.cls-31{fill:#7b75b7;}.cls-32{fill:#cbcdd2;}.cls-33{fill:#d0d1d6;}.cls-34{fill:#fafafb;}.cls-35{fill:#c6c9cd;}.cls-36{fill:#b2b2b2;}.cls-37{fill:#d0d1d5;}.cls-38{fill:#cfd0d4;}.cls-39{fill:#4a4b50;}.cls-40{fill:#f9f9f9;}.cls-41{fill:#cdcdd3;}.cls-42{fill:#cccdd2;}.cls-43{fill:#7a73b6;}.cls-44{fill:#3b393f;}.cls-45{fill:#d1d1d5;}.cls-46{fill:#3b3b3b;}.cls-47{fill:#363636;}.cls-48{fill:#393a3a;}.cls-49{fill:#3a3a3a;}.cls-50{fill:#f58634;}.cls-51{fill:#cecdd3;}.cls-52{fill:#373737;}.cls-53{fill:#575757;}.cls-54{fill:#cbcad0;}.cls-55{fill:#d2cfd6;}.cls-56{fill:#dbdbdb;}.cls-57{fill:#3c3d3d;}.cls-58{fill:#444;}.cls-59{fill:#03a65a;}.cls-60{fill:#555;}.cls-61{fill:#cbc9cf;}.cls-62{fill:#d1d0d6;}.cls-63{fill:#454445;}.cls-64{fill:#474747;}.cls-65{fill:#ceced3;}.cls-66{fill:#3f343a;}.cls-67{fill:#eee;}.cls-68{fill:#9e9e9e;}.cls-69{fill:#d0d0d0;}.cls-70{fill:#b4b4b4;}.cls-71{fill:#cecbcb;}.cls-72{fill:#cdcad1;}.cls-73{fill:#484848;}.cls-74{fill:#d0ced4;}.cls-75{fill:#f4f4f4;}.cls-76{fill:#a43692;}.cls-77{fill:#cccfd4;}.cls-78{fill:#393939;}.cls-79{fill:#a3a3a3;}.cls-80{fill:#565656;}.cls-81{fill:#5e5f64;}.cls-82{fill:#cbcbd1;}.cls-83{fill:none;stroke:#000;stroke-miterlimit:10;stroke-width:3px;}.cls-84{fill:#cfd0d5;}.cls-85{fill:#e7e7e7;}.cls-86{fill:#ededed;}.cls-87{fill:#c8cbcf;}.cls-88{fill:#3d3d3d;}.cls-89{fill:#d1cdc5;}.cls-90{fill:#cdced3;}.cls-91{fill:#cacbd0;}.cls-92{fill:#393337;}.cls-93{fill:#9d9d9d;}.cls-94{fill:#cfc5bf;}.cls-95{fill:#bebebe;}.cls-96{fill:#d4cec8;}.cls-97{fill:#59595e;}.cls-98{fill:#c8c7cd;}.cls-99{fill:#414141;}.cls-100{fill:#f3f3f3;}.cls-101{fill:#e6e6e6;}</style>
  </defs>
  <path class="cls-6" d="M2.8,44.38c9.02-.5,18.29-2.48,26.27-6.76,12.97-6.96,22.31-19.58,27.06-33.23,13.43,7.74,27.96,14.2,43.44,16.55,25.4,3.86,49.96-3.03,71.33-16.53,4.4,6.43,8.03,13.53,12.93,19.67,10.2,12.78,24.23,18.69,40.39,20.05l.7,1.03c-.69,41.78-9.14,83.97-29.49,120.6-18.88,34-47.59,61.81-80.54,82.15-.35.24-.52.23-.9.1-.94-.33-3.98-2.51-5.11-3.21-31.23-19.6-58.44-46.57-76.22-79.03C12.47,128.88,4.02,86.26,2.8,44.38Z"></path>
  <path class="cls-31" d="M41.69,96.82c1.09,1.58,2.38,3.09,3.67,4.59,1.2,1.7,2.4,3.37,4.03,4.59,7.22,8.44,16.88,13.88,20.45,25.03,1.97,6.17,1.52,9.96.59,16.15l-.53.49c-4.05-1.7-7.45-5.42-9.89-9.01-.6-1.44-1.37-2.75-2.31-3.92-.26.02-6.88-8.16-7.41-8.3-.64-2.19-2.38-4.13-3.51-6.12-3.45-6.08-8.51-16.38-5.67-23.29.15-.36.22-.32.58-.22Z"></path>
  <path class="cls-43" d="M181.24,97.71c.14-.35.82-1.16,1.18-.89,3.31,10.33-4.13,20.58-9.18,29.04-1.36-.44-1.4-.45-2.37.74-1.84,2.25-3.31,5.36-4.35,8.06l-.69.39c-2.44,4.06-5.12,8.25-8.85,11.33-.71.58-1.52,1.11-2.32,1.55-.59.32-1.26.61-1.56-.14.03-1.22-.53-2.45-.6-3.69-1.06-18.29,6.74-22.96,18.39-34.37.95-.93,2.22-2.95,3.25-3.71l.07-.45c2.68-1.89,4.85-4.44,6.53-7.64l.51-.21Z"></path>
  <path class="cls-76" d="M57.69,134.75c1.01.69.88,3.42,0,4.15.21,3.48.43,6.66,1.19,10.07.62.96.72,1.65.3,2.07-.54,3.25-.24,6.31.63,9.6l4.88,9.64c-12.94-10.81-22.25-27.74-14.4-43.84.89-1.83.95-2.35,2.52-.6,1.42,1.58,4.66,6.87,4.89,8.89Z"></path>
  <path class="cls-76" d="M173.24,125.86c2.3,4.1,3.87,13.26,3.55,17.92-.71,10.32-9.33,18.19-16.52,24.64-.49-.42,4.63-13.04,4.08-17.67l-.25-.52c1.02-3.3,1.26-6.79,1.37-10.19-.86-1.3-.66-3.74.36-4.99.26-1.97,3.36-7.41,4.75-9.03.92-1.06,1.79-1.7,2.66-.16Z"></path>
  <path class="cls-19" d="M181.24,97.71c-1.2,2.98-3.17,5.14-5.35,7.54-.58.64-1.57.62-1.76.76-.45-.06-.84-.46-1.19-.59,1.21.01,1.97-1.11,2.94-1.65l5.06-6.94c-.04.27-.06.84.3.89Z"></path>
  <path class="cls-66" d="M156.06,176.82c8.09-2.41,18.18,2.6,13.68,12.05-3.01,6.31-9,8.34-14.47,11.6-4.14,2.47-17.46,10.15-18.83,14.35-.37,1.14.18,2.79.07,2.88-.06.05-.97-.07-1.48.15-.6.26-2.4,2.24-3.12,2.8-12.44,9.67-24.52,11.17-37.74,1.61-1.42-1.03-4.13-3.95-5.25-4.53-.59-.31-1.54-.28-1.6-.33-.11-.11.33-1.54.32-1.92-.12-3.67-12.36-10.98-15.57-12.9-7.27-4.32-20.2-8.88-19.13-19.42.73-7.12,11.36-8.17,16.58-5.58.23.11,1.61.78.92,1.16-1.36.75-5.9-1.59-5.95,1.78-.02,1.63,3.04,4.38,4.32,5.47,8.75,7.43,22.66,9.5,28.21,20.09.37.7.42,1.84.84,2.42.86,1.19,5.45,3.71,6.95,4.31,6.38,2.58,13.14,1.62,18.75-2.27,2.73-1.89,1.92-2.2,3.2-4.8,4.48-9.07,18.3-12.61,26.31-18.43,1.71-1.24,8.09-5.9,5.34-8.27-1.11-.95-2.42-.24-3.55-.16-4.14.84-1.67-2.79,1.19-2.07Z"></path>
  <path class="cls-13" d="M96.94,209.17c3.07,2.37,6.34,4.54,10.16,5.49,7.37,1.84,12.15-.29,18.23-4.11.64-.4.97-1.23,1.81-1.15,2.75,2.07,5.02,4.9,7.57,7.27-8.14,8.15-18.33,13.57-30.08,9.94-5.8-1.8-10.58-5.61-15.12-9.49l-.14-.45c0-.82,6.49-6.55,7.56-7.5Z"></path>
  <path class="cls-99" d="M102.07,217.48c.36.47.63,2.76.66,3.48,1.45-.78.41-3.37,2.22-3.86,1.4,0,1.1,3.02,1.78,3.86.95-.89.22-4.46,2.08-3.56.33.5-.98,5.86-1.32,6.09-1.78,1.19-1.97-2.97-2.39-4.01-1.16.54-.62,5.42-2.68,4.02-.28-.19-1.45-4.49-1.48-5.06-.05-1.04.53-1.75,1.14-.96Z"></path>
  <path class="cls-23" d="M117.83,217.56c.05-.19.47-.5.74-.44,1.06.22-.67,2.99,2.09,2.69,2.22-.25-.22-2.93,2.22-2.39v6.22c-1.93.44-1-1.24-1.18-2.67-.63.08-2.19-.24-2.54.28-.47.7.52,2.69-1.31,2.39.29-1.59-.39-4.7,0-6.07Z"></path>
  <path class="cls-48" d="M116.95,217.41v.89c-3.98-.73-.87,3.51-1.92,5.05-.42.61-1.34.14-1.34-.16v-4.44c0-.46-1.37-.51-1.78-.45v-.89h5.04Z"></path>
  <path class="cls-27" d="M111.02,217.41v6.22c0,.06-1.19.06-1.19,0v-6.22c0-.06.97.04,1.19,0Z"></path>
  <path class="cls-1" d="M65.39,177.41c-4.31,3.35-.59,6.49,2.37,9.04,6.57,5.67,15.3,8.03,22.03,12.93,2.8,2.04,6.28,5.3,6.58,8.83l-7.71,7.12c-2.08-5.2-8.29-8.77-12.92-11.68-6.6-4.14-17.23-8.01-20.83-15.02-1.94-3.77-1.36-8.06,2.58-10.09.41-.21,2.76-1.13,3.01-1.13h4.89Z"></path>
  <path class="cls-46" d="M56.51,186c2.08-.16.33,2.64,2.52,2.67s-.52-2.43-.69-3.18c-.9-3.91,4.78-2.23,4.4.35s-1.69-1.05-1.8-1.18c-.34-.39-1.32-.64-1.48,0-.26,1.02,1.67,1.58,1.8,2.95.4,4.18-6.43,1.86-4.76-1.63Z"></path>
  <path class="cls-88" d="M89.68,207.34c-.48.5-2.82-1.86-3.51-1.44-.05.03-.57.99-.5,1.14.31.73,2.52,1.78,2.55,1.94.08.45-.22,1.14-.75,1.02-.4-.1-2.91-2.53-3.71-2.81.96-.92,2.98-5.04,4.28-4.9.21.02,3.38,2.33,3.42,2.54.52,2.41-3.63-2.51-4.14-.29-.16.7,3.24,1.89,2.36,2.8Z"></path>
  <path class="cls-17" d="M64.56,189.21c.1.18,2.76,1.35,2.01,2.12-.45.46-2.67-1.57-3.09-1.48-.28.06-.77.96-.71,1.29.12.67,3.9,2.4,2.17,2.86-.75.2-2.93-2.32-3.96-2.4-.28-.48,3.11-5.25,3.42-5.32.66-.14,3.88,2.19,3.95,2.54.42,1.96-2.96-1.13-3.4-1.04-.42.09-.62,1.04-.39,1.43Z"></path>
  <path class="cls-27" d="M82.51,199.1c1.62-.18,4.1,1.92,3.19,3.21-.98,1.39-1.37-1-1.62-1.36-1.45-2.04-4.73,1.66-3.14,3.13.87.81,2.52-.56,2.82.44.52,1.74-3.19,1.42-4.16-.28-1.16-2.03.69-4.89,2.91-5.15Z"></path>
  <path class="cls-11" d="M78.72,196.67c-.32.53-4.7,3.52-5.13,3.5s-1.07-.48-1.08-.96c0-.32,1.51-5.92,1.78-6.09.14-.09.69-.02.9.13.96.68-1.07,3.81-.9,4.9.21.23,2.54-1.53,2.96-1.78.74-.5,2.01-.92,1.48.3Z"></path>
  <path class="cls-60" d="M80.8,196.97c.58.58-2.43,4.58-3,5.14-.82.8-1.63.5-1.38-.49.06-.25,2.65-3.98,2.89-4.23.33-.34,1.27-.65,1.5-.43Z"></path>
  <path class="cls-60" d="M77.24,196.38c.45-.27.65-.94,1.78-.59.17.53-.13.62-.29.89.21-1.04-.73-.47-1.48-.3Z"></path>
  <path class="cls-18" d="M70.74,194.91c-.16.16.09,2.43-.01,2.95-2.29.07-1.15-2.36-1.54-3.64-.66-2.18-1.86,1.13-2.04,1.24-.34.2-1.05-.05-1.15-.42-.19-.74,3.06-4.55,3.7-5.41.75.6,3.46,2.04,3.66,2.83.68,2.57-2.42,2.27-2.61,2.46Z"></path>
  <path class="cls-56" d="M71.85,192.28c1.11,1.92-2.33,1.43-2.58.36-.07-.3.44-1.19.76-1.29.35-.1,1.76.81,1.83.92Z"></path>
  <path class="cls-40" d="M163.02,177.41c2.54.36,6,2.65,6.54,5.32,1.93,9.54-11.03,14.59-17.44,18.44-4.51,2.71-13.21,7.89-16.02,12.13-.41.62-.59,1.39-.93,2.04l-7.7-7.42c-.41-.89.36-1.97.8-2.75,4.97-8.81,21.78-12.49,29.54-20.53,2.55-2.65,3.62-4.56.33-7.23,1.53.15,3.41-.21,4.89,0Z"></path>
  <path class="cls-99" d="M141.24,203.78c1.5,4.01-2.78-.19-2.96,0-.07,1.16,2.6,2.44.74,2.96-.25-.05-3-3.75-3.08-4.06-.11-.42.08-.75.39-1,1.29-1.04,3.23,2.33,3.72,1.8-.47-1.17-2.29-4.6.4-4.17.26.04,2.4,3.93,3.14,4.32l-.73.73c-.43-.33-.72-.75-1.04-1.18-.57-.79-.89-.4-.59.59Z"></path>
  <path class="cls-27" d="M135.32,209.41c-1.04,1.07-3.42,2.29-3.55,0,.21-.2,1.95.68,2.52-.3,1.5-2.55-3.15.27-4.02-1.09-1.28-2,1.37-3.64,3.28-3.06.12,1.79-.88.79-1.57.93-.52.11-1.07,1.15-.8,1.43.43.43,2.58-1.56,4.15,0,.58.72.56,1.36,0,2.07Z"></path>
  <path class="cls-64" d="M156.05,189.57c.11,1.73-.8.83-1.56.94-2.19.31-.86,3.95,1.41,3.51,1.37-.27.08-2.39,1.93-2.08.68,2.64-2.27,4.26-4.3,2.67-2.73-2.14-.8-6.28,2.52-5.04Z"></path>
  <path class="cls-53" d="M161.68,184.52c.1-.06.21-.47.42-.61,1.16-.8,2.54.94,2.83.61.11-1.21-.57-3.2,1.19-2.96.14.14-.15,2.93.06,3.64.17.56,1.57,1.35,1.29,1.99-.65,1.51-2.04-1.03-2.73-1.44-.29-.18-2.94-1.34-3.07-1.23Z"></path>
  <path class="cls-57" d="M161.68,184.52c.72,1.17-.45,1.02-.76,1.48-.45.66,2.84,3.9,2.24,4.45-1.13,1.04-2.45-2.77-3.27-3.12-.5-.22-2.07.46-2.06-.28.01-.57,3.26-2.16,3.85-2.52Z"></path>
  <path class="cls-73" d="M146.13,194.9c.98-.2,2.49,3.39,3.3,3.52.69.11,1.9-2.03,2.77-.71-.72.38-2.69,2.41-3.36,2.2-.24-.07-2.96-3.86-3.03-4.11-.11-.4-.05-.83.33-.91Z"></path>
  <path class="cls-80" d="M149.99,192.23c.94-.24,3.25,3.12,3.54,3.86.52,1.31-.4,1.42-1.32.43-.29-.31-2.38-3.11-2.53-3.4-.27-.52-.05-.57.31-.89Z"></path>
  <path class="cls-58" d="M160.2,192.52c-.67.69-3.46-3.34-3.7-3.86-.47-1.04.23-1.57,1.16-.56.5.54,3.05,3.9,2.54,4.42Z"></path>
  <path class="cls-2" d="M134.13,203.19c.67-.68,3.47,3.3,3.71,3.85.37.84-.46,1.23-1.3.4-.48-.47-2.92-3.73-2.41-4.25Z"></path>
  <path class="cls-93" d="M141.83,203.19l-.59-.3v.89c-.31-.82-1.11-1.61-.89-2.67l1.31,1.5c.14.19.1.49.17.58Z"></path>
  <path class="cls-68" d="M135.32,209.41c.3-.71.3-1.36,0-2.07.93.93.89,1.16,0,2.07Z"></path>
  <path class="cls-63" d="M143.82,196.73c1.11-.25,2.22.12,2.41,1.34.24,1.53-2.16,2.06-1.59,3.34.09.21,1.46,1.17.3,1.48-.6.16-.69-.19-.99-.48-.35-.34-2.65-3.58-2.64-3.81.03-.41,2.04-1.76,2.51-1.86Z"></path>
  <path class="cls-85" d="M144.79,197.86c.51,2.11-2.48,2.25-1.63.59.29-.58,1.06-.65,1.63-.59Z"></path>
  <path class="cls-39" d="M127.61,150.45c-.23.94-3.22.91-3.56,0,.85.15.78,3.94.59,4.62l-.59.42c.28-.95,3.49-.91,3.85,0l-3.85.3c-.07.52.67.28,1.03.29.74.03,1.49-.02,2.22,0,.29,1.58-3.64,1.03-4.74.3.97.43.93,4.07,0,4.59,1.6-.51,3.33-.5,5-.27l-.32-4.03.66-.3c.82,1.89.43,3.77.3,5.63-.13.5-.62.73-1.5.7.27,1.38.08,2.43-.58,3.15-.02.29.02.59,0,.89-.81.16-.59-.25-.59-.89-.89-.31-.69-2.91-.44-3.85-.06.23-.15.57-.33.59-.55.06-5.23.13-5.47,0-.22-.13-.34-.36-.42-.59.44.64.25.77-.44.44.97.43.93,4.07,0,4.59.03-.23.1-.58.26-.59.75-.08,5.77-.08,6.06.2.1.1.15.24.19.4-.04.09.11.41-.05.53-.56.45-2.21-.34-1.73,1.54-.26.09-.49-.29-.59-.3-.9-.51-5.9-.45-6.22-.1-.11.12-.09,3.22.02,3.34,1.01-.15,1.7.05,2.05.61.73.84-.47.72-.59.89-.52.89-6.3.7-6.62.4-.1-.1-.16-.24-.2-.4.97.43.93,4.07,0,4.59.79-.28,2.72-.43,2.96.44,0,.08.38.34.3.59-.29.02-.59-.01-.89,0-.46.95-2.81.96-3.26,0-2.32-.15-.08-.65,0-.89-.25-.05-.43-.18-.52-.41l-.14-3.67c-1.54.16-2.8-.06-3.79-.66-.13-.19-.55-.84-.59-.89l-.43-.52c.2-1.2.23-2.42.09-3.66l-3.82.06-.58-.62c-.34-.03-1.12-.6-1.78-.3l.3-.59c.76-.18.77-4.12.59-4.44h-4.62s-.42-.6-.42-.6c-.01-.31-.27-.69-.27-1.06,0-1.23.53-2.77.27-4.13-.01-.24.28-.74.44-.74h10.22v5.19c0,.06-.44.34-.3.44h.74c.42-.05-.15-.37-.15-.44v-5.19h11.55c.07-.52-.67-.28-1.03-.3-1.87-.08-4.03.31-5.78-.3l.42-.52c2.02-.01,4.05-.05,6.08-.12l.31.64c-.87.07-.74-4.42-.59-4.62s.33-.36.59-.42c-.04.22-.12.54-.29.56-.67.08-5.97.28-6.23.1l-.29-.66c-.07-.04.17-.96-1.19-.59-.03.31.59.61.59.74v4.74c0,.32-.72.42-1.02.46-1.49.18-5.36.17-6.86,0-.41-.05-.42-.02-.71-.31l.61-.63c2.62.01,5.19.08,7.68.19-.97-.43-.93-4.07,0-4.59-.03.23-.1.58-.27.59-.85.07-7.28.21-7.6,0-.22-.15-.37-.33-.43-.59.85.15.78,3.94.59,4.62l-.59.42c-.61-.62-.34-4.42,0-5.48l-.74-.15c-.26.1.7,4.94-.15,5.63-.87.07-.74-4.42-.59-4.62s.33-.36.59-.42c-.38.96-3.83.92-4.3,0,.26,1.04.15,3.61-.11,4.74l-.63.3-.3-1.62.89-7.27c.84.78.87,2.2,0,2.96.03-.23.1-.58.27-.59,2.67-.17,6.4-.17,9.08,0l.43.59c-.95-.27-.92-3.47,0-3.85,2.24-.05,4.65.03,6.81,0l-.34.59h-4.97s-.02,2.86-.02,2.86l-.59.4.34-.59h5.16l.42.59c-.95-.28-.91-3.49,0-3.85,2.32-.03,4.85.02,7.11,0l-.33.59h-5.28s-.01,2.86-.01,2.86l-.59.4c.06-.23.15-.57.33-.59.53-.06,5.22-.11,5.47,0,.22.1.33.36.42.59-.95-.28-.91-3.49,0-3.85.45,0,1.02-.3,1.61-.31,1.93-.01,3.86.04,5.79,0,.07-.52-.67-.28-1.03-.29-.88-.03-1.77.06-2.65-.03-.19-.03-.13-.16-.16-.27l.26-.59h3.6s0-3.14,0-3.14l.59-.41c.44.14.27.4.31.72.34,2.75-.02,6.3-.01,9.05Z"></path>
  <path class="cls-84" d="M125.54,165.86c-.03.21-.46.89-.59,1.19h-6.52v-4.59s.41-.44.44-.44h6.22c.6,0,.53,3.24.44,3.85Z"></path>
  <path class="cls-45" d="M118.43,172.67c-.84.1-1.81-.07-2.67,0v-4.74c1.99.12,4.12-.15,6.09,0,.91.07.76-.15.73.89-.27-.02-.43.86-.72,1.2-.8.94-2.25,2.51-3.42,2.65Z"></path>
  <path class="cls-71" d="M117.83,173.56c-.83,1.11-1.73,2.85-2.8,4.16-.26.32-1.03.61-1.05.88-.57-.02-2.96.21-2.96-.44v-4.59h6.81Z"></path>
  <path class="cls-96" d="M100.35,167.93c1.6.16,3.41-.12,5.04,0-.17,1.5.38,3.36-.3,4.74-.03-.04-.63.02-1.04-.28-1.34-.98-2.58-3.22-4.28-4.03l.58-.43Z"></path>
  <path class="cls-89" d="M105.69,173.56h4.45c-.24,1.2.32,3.76,0,4.74-2.09.07-3.4-3.25-4.44-4.74Z"></path>
  <path class="cls-38" d="M114.87,167.93v4.74h-8.59c-.5-1.53-.24-3.16-.3-4.74h8.89Z"></path>
  <path class="cls-33" d="M117.83,167.04h-7.11v-5.04h6.67s.44.41.44.44v4.59Z"></path>
  <path class="cls-84" d="M117.83,155.49v-5.04h5.33v5.04c0,.17-.02.3-.05.3-1.05.17-4.01.11-5.12,0-.07,0-.12-.14-.17-.3Z"></path>
  <path class="cls-44" d="M123.17,155.49c.64-.21.14-3.36.3-4.15h.29s0,4.74,0,4.74h-6.52s0-.89,0-.89c.07-.12.43.28.59.3.7.08,4.92.14,5.33,0Z"></path>
  <path class="cls-44" d="M93.24,162.6l2.68-32.16c-.02-1.8-4.13-3.78-4.61-4.58-.29-.49-.43-4.01.34-4.4l7.51-2.57c-.01-.54-2.81-2.87-3.39-3.72-3.74-5.47-1.99-11.76,2.95-15.68.58-.46,3.32-1.92,3.39-2.25.12-.53-1.71-1.65-.29-3.83.82-1.25,3.19-2.15,3.41-2.51.42-.68-.04-3.08.14-3.26.23-.23,3.56.38,4.02-.28.65-2.36-1.13-10.6,2.13-11.23,1.65-.32,2.74,2.35,2.74,3.66v7.85c.6.1,3.72-.14,3.85,0,.19.19-.28,2.66.13,3.27.36.53,3.38,1.08,3.94,3.17.47,1.77-.89,2.83-.82,3.17.04.2,2.81,1.77,3.4,2.25,6.32,5.13,6.82,13.14.44,18.5-.52.43-2.17.57-.58,1.18,2.08.8,5.25,1.19,7.19,2.3.43.25.76.41.81.98.02.23-.37,2.97-.45,3.11-.81,1.38-3.88,1.25-4.3,4.89l1.48,33.04c-.22.87-.74,1.69-1.19.59-.82-.25-.89-1.89,0-2.07-.67-.26-.68-.56-.03-.9.14-1.57.05-3.15-.26-4.73-.58.57-.71.49-.59-.3-.39.18-3.56.29-3.69,0-.06-.14,0-.33.07-.53l4.21-.06c-.78-1-1.24-4.1-.3-5.04l-.59-.71c.34-3.08.43-6.11.29-9.06l-.4.52c-1.18-.05-2.31.03-3.4.26l-.13,2.88-.51.48.45.15c.39-.07,4.89-.16,3.63.76-2.37.16-4.72.33-7.05.49l-.58-.51c-.88.73-2.22.99-2.93,0h-3c-.39.51-.78.51-1.18,0-.84.74-2.14.99-2.81,0h-2.88c-.37.5-.75.5-1.13,0-.29.16-.58.3-.88.41s-.6.2-.89.2c-2.47.03-4.96-.03-7.41-.09l-.59.36-.17,2.86c.5.07.45.54.25.93-.79,1.54-.8,3.24-.67,5.1l.33-.59c.87-.2,4.33-.25,4.7.59.21-1.61.23-3.24.06-4.88-1.79-1.12,2.36-1.23.77-.08-.19,1.66-.17,3.32.06,4.97,2.92.44,5.78.39,8.59-.15-.26-1.37-.25-3.29,0-4.74-2.23-.7.12-1.39,1.08-.68.09.07-.22.45-.49.53.4.53.39.68-.3.89.23,1.17.21,2.39,0,3.56.58-.08.67.12.3.59,2.26.36,4.83.29,7.01-.14.56.6.27.97-.39,1.32-.49.26-9.66.07-11.01,0l-.35-.59c.23.03.56.09.59.26.08.37.08,4.2,0,4.52l-.59.41c.88-.85,1.16.88-.12,1.04-1.04.13-1.4-1.62-.18-1.04-.64-.26-.84-1.08-.59-2.44-.24-1.34-.04-2.25.59-2.74,0,.23-.06.58-.2.59-1.13.07-9.04.17-9.48,0-.27-.11-.45-.19-.54-.59.14,1.75.15,3.56.05,5.43l-.49.5c.86.16.82,1.3,0,1.48-.84.64-1.27.02-1.19-.89Z"></path>
  <path class="cls-33" d="M111.84,90.98c2.32,0,8.97.93,9.25,3.95s-3.17,1.15-4.73.85c-2.91-.55-5.48-.57-8.41-.1-1.92.31-5.59,2.4-5.55-.79.04-2.95,7.3-3.91,9.44-3.91Z"></path>
  <path class="cls-84" d="M127.02,139.78h-7.71s0-4.15,0-4.15c2.29-.22,4.58-.21,6.88-.15.1-.17.2-.29.29-.29.97.01.78,3.85.53,4.59Z"></path>
  <path class="cls-22" d="M108.95,134.75c-.53-.49-.47-4.44.15-4.44h6.07c.27.97.66,3.78,0,4.44-1.62.18-3.25.22-4.89.14-.39.54-.97.39-1.33-.14Z"></path>
  <path class="cls-42" d="M111.32,123.78v5.19c0,.67-5.04.67-5.04,0v-5.19h5.04Z"></path>
  <path class="cls-4" d="M115.76,96.82l-.4.54-3.15-.29c-.08.05-.06,1.85,0,1.93.14.2,4.46.31,4.72.18-.16-1.03.05-1.72.62-2.08l.3,2.37.59-1.78c.56.1.75.55.59,1.36.18.13,4.17.57,3.56.12.18.08.58-.17.6.15.04.6-.43.88-.45,1.18-.08,1.12.62,2.92-.14,4-.95-.27-.92-3.47,0-3.85-.06.23-.16.58-.34.59-.79.08-5.98.08-6.28-.2-.1-.1-.16-.24-.2-.4.95.28.91,3.49,0,3.85-.54-1.28-.57-3.35.3-4.44h-1.04c-.22.05.65,3.92-.15,4.44-.99-.39-.64-2.84-.44-3.85-.03.23-.09.56-.26.59-.59.1-5.12.11-5.68,0l-.43-.59c.95.28.91,3.49,0,3.85-.46-.73-.4-2.3-.31-3.13.07-.65.46-.84.46-1.32h-1.33c.8.75.88,3.86.3,4.45-.95-.28-.91-3.49,0-3.85l-.33.59h-5.47l-.42-.59.59.32c-.06,1.01-.02,1.99.12,2.94h5.1s.42.59.42.59c-.81.82-5.8.08-7.11,0l-.62-.36c.34-1.43.15-2.59-.56-3.49.46-.4.84-.52,1.35-.01l.43,3.57c-.18-1.2.19-2.59.16-3.71-.01-.52-1.01-.63.14-1.33,1.78.27,2.52.06,2.23-.63l.44-.55c.5-.2.96-.44,1.48-.59.57.42.64,2,0,2.37.03-.23.09-.57.26-.59.44-.06,4.73-.1,4.95,0s.33.36.42.59c-.62-.38-.83-1.24-.63-2.59-1.19.3-2.07.18-2.63-.37,1.24-.87,2.71-.4,3.95-.41,1.38-.01,3.01-.6,4.35.41Z"></path>
  <path class="cls-5" d="M122.28,129.41h-4.3s-.44-.41-.44-.44v-5.19c1.12.49,4.33-.07,4.89.89.52.87,0,3.66-.15,4.74Z"></path>
  <rect class="cls-33" x="115.76" y="100.67" width="6.81" height="3.85"></rect>
  <path class="cls-74" d="M113.09,87.64c-.73-.09-2.35.34-2.63-.49s-.11-7.7.19-8.61c.13-.38.99-1.6,1.4-1.55.13.01,1.03,1.51,1.03,1.62v9.04Z"></path>
  <path class="cls-62" d="M114.87,104.53h-6.81v-3.85h6.37c.72,0,.37,3.18.44,3.85Z"></path>
  <path class="cls-90" d="M116.65,123.78v5.19c0,.62-4.27.66-4.61.17-.53-.76.08-4.27.17-5.35h4.44Z"></path>
  <rect class="cls-33" x="115.76" y="140.67" width="6.22" height="4.15"></rect>
  <path class="cls-22" d="M105.39,124.08v5.33h-4.3c-.61,0-.62-4.32-.31-4.76.48-.68,3.73-.58,4.61-.58Z"></path>
  <path class="cls-33" d="M118.43,135.64v4.15h-5.93v-4.15c1.52-.19,3.06-.23,4.6-.11.31-.49,1.09-.45,1.32.11Z"></path>
  <path class="cls-84" d="M102.43,140.67h5.93c.66.1.81.3.17.41.08,1.33.02,2.57-.17,3.73-1.96.27-3.96.22-5.93,0v-4.15Z"></path>
  <path class="cls-22" d="M114.87,140.67c.63.21.14,3.36.3,4.15h-5.63c-.03-1.46-.18-2.81-.46-4.05,1.94-.16,3.87-.19,5.79-.1Z"></path>
  <polygon class="cls-84" points="101.54 140.67 101.54 144.82 95.91 144.82 96.2 140.67 101.54 140.67"></polygon>
  <path class="cls-7" d="M111.32,122.6h-4.89c-.37-.48-1.92-3.26-1.63-3.55l6.05-.56c.87.21.32,3.34.47,4.11Z"></path>
  <path class="cls-10" d="M117.54,88.23v2.37c-3.71-.85-7.69-.89-11.4,0-.33-.02-.25-2.37.29-2.37h11.11Z"></path>
  <path class="cls-91" d="M123.17,124.67c.71-.13,6.24.62,6.23,1.04-1.8,2.04-2.19,4.48-5.48,3.7-.24.01-.74-.28-.74-.44v-4.3Z"></path>
  <path class="cls-41" d="M117.09,118.75c2.45.36-.48,2.43-.15,3.85h-4.74c-.42-1.3-.42-2.55,0-3.85,1.53.16,3.42-.22,4.89,0Z"></path>
  <path class="cls-61" d="M100.06,124.67v4.3c0,.57-2.56.57-3.06.4-.16-.05-1.83-2.07-2.26-2.49s-1.88-.74-.14-1.3c1.57-.51,3.8-.78,5.47-.9Z"></path>
  <path class="cls-54" d="M131.13,122.34c.23.36-.07,1.77.04,2.33-.99-.28-7.65-.94-7.69-1.63.38-.62,1.23-2.31,1.95-2.45.29-.06,5.54,1.5,5.7,1.75Z"></path>
  <path class="cls-41" d="M97.94,120.56c.24.14,1.62,2.68,1.23,3.22-2.11-.12-4.22.77-6.22,1.07-1.27.19-1.14-1.88-.61-2.41.26-.26,5.34-2.03,5.59-1.88Z"></path>
  <path class="cls-7" d="M116.06,130.9c.22-.6,4.54-.63,4.82-.41.21.18.11,3.65-.07,4.26-.1,0-.2-.01-.3,0-1.51.46-2.9.46-4.15,0-.5-.51-.34-2.94-.3-3.85Z"></path>
  <path class="cls-22" d="M105.39,122.89l-4.87.55-1.95-3.22c.15-.19,4.34-.99,4.83-.85.74.22,2.26,3.27,1.99,3.51Z"></path>
  <path class="cls-77" d="M127.32,140.67v4.15s-4.44,0-4.44,0c-.29-.85.21-3.09,0-4.15,1.13.22,3.52-.3,4.45,0Z"></path>
  <path class="cls-65" d="M115.76,96.82c.38.07,1.71.23,1.78.3.1.1-.07,2.2,0,2.67h-5.93s0-3.26,0-3.26c.17-.17,3.58.19,4.15.3Z"></path>
  <path class="cls-54" d="M124.06,120.23c.1.13-1.32,2.79-1.68,2.91-1.13.38-3.22-.62-4.55-.25.43-4.52,2.78-3.67,6.22-2.66Z"></path>
  <path class="cls-65" d="M107.46,96.82c.97-.16,2.24-.15,3.26-.3v3.26s-5.63,0-5.63,0c-.16,0-.4-1.98,0-2.37.73-.21,1.63-.47,2.37-.59Z"></path>
  <path class="cls-55" d="M100.65,134.45c-.03.15-.19.21-.3.3-1.03.18-2.08.23-3.15.15-.3.51-.47.5-.49-.07l.09-1.86c.01-.19-.02-.4,0-.59l.23-1.81c3.87-.75,4.29.21,3.62,3.88Z"></path>
  <path class="cls-15" d="M127.31,104.52h-3.85s0-3.85,0-3.85c.89-.88,4.36,3.35,3.85,3.85Z"></path>
  <path class="cls-72" d="M100.06,104.53c-1.27-.08-2.58.06-3.85,0-.48-.43,2.22-3.46,2.67-3.85,1.96-.2.96,2.51,1.19,3.85Z"></path>
  <path class="cls-81" d="M114.87,140.67c-1.1-.36-4,.26-5.33,0v4.15c-.56-.72-.26-1.94-.29-2.82-.01-.4.24-1.23-.44-1.04-.53.15.21,3.81-.13,4.01-1.96.14-4.36.43-6.24-.16h5.93v-4.15h-5.93,12.44Z"></path>
  <path class="cls-35" d="M122.57,99.19c.53.81.29.56-.44.59-1.23.06-2.48-.04-3.71,0v-2.08c1.5.11,2.83.86,4.15,1.48Z"></path>
  <path class="cls-81" d="M126.72,134.75c-.98-.23-.9-3.74,0-4.15-.15.85-3.94.78-4.62.59l-.42-.59c.98.23.9,3.74,0,4.15l.33-.59c.54-.19,4.53-.24,4.7.59-.01.49.53.92.61,1.61.1.91.14,2.6-.31,3.42-.14-.84.32-3.6-.28-4.02-.75-.52-6.12.12-7.43-.13,1.85-.61,4.11-.21,6.08-.3.36-.02,1.1.23,1.03-.3h-4.59s-.44-.41-.44-.44v-4.3h5.19c.66,0,.45,3.1.46,3.73,0,.38-.31.68-.31.72Z"></path>
  <path class="cls-81" d="M107.76,134.75c-.42.42-5.81.47-6.24.17s-.45-4.46.02-4.78c.21-.18.37.17.45.17h6.07c-.19,1.07.39,3.75-.3,4.44-.98-.23-.9-3.74,0-4.15l-.33.59h-5.47l-.42-.59c.98.23.9,3.74,0,4.15.37-.87,3.23-.69,4.31-.59,1-.2,1.64,0,1.91.59Z"></path>
  <path class="cls-98" d="M103.61,98.01l.59,1.78c-.74-.02-1.49.03-2.24,0-.57-.02-1.19.31-1.02-.59.67-.4,1.9-.88,2.67-1.19Z"></path>
  <path class="cls-81" d="M96.8,132.97c-.04.59.03,1.19,0,1.78h3.56c-.8.64-2.23.16-3.26.3v.29s7.85,0,7.85,0c.09,0,.31.25.58.25,1.08,0,2.5-.5,3.72-.25l-.3-.59h6.22c-.71.71-3.9.09-5.04.3.02.62,1.03.1,1.5.42.44.31.47,3.83-.02,4.32-.98-.23-.9-3.74,0-4.15-.03.23-.1.57-.26.59-1.05.12-3.89.12-4.95,0l-.42-.59c.98.23.9,3.74,0,4.15.03-.23.09-.57.26-.59.44-.06,4.73-.1,4.95,0s.33.36.42.59c-.88.88-5.23-.01-6.52,0-.98-.23-.9-3.74,0-4.15-.03.23-.1.58-.27.59-.85.07-7.28.21-7.6,0-.22-.15-.37-.33-.43-.59l.57.3c-.2,1.21-.2,2.29,0,3.26h7.29s.44.59.44.59c-.05,0-.46.32-1,.32-2.63,0-5.28.08-7.9-.16l.61-6.97Z"></path>
  <path class="cls-81" d="M120.5,134.75c-.35.59-1.32.15-1.88.29-.31.08-.17.58-.19.6-.39.26-5.71-.22-5.93,0,1.38-.68,3.24-.12,4.74-.3.05-.49-.52-.22-.89-.59,1.34-.1,2.83.14,4.15,0Z"></path>
  <path class="cls-81" d="M120.8,134.75v-4.15c-1.55.13-3.28-.31-4.74.3,0-.2-.02-.4,0-.59.74.26,4.56-.31,4.75-.17.45.33.49,3.93,0,4.62Z"></path>
  <path class="cls-81" d="M100.65,134.45c.12-.57.1-3.46-.28-3.72-.56-.39-2.5,0-3.28-.13.29.68-.26,1.45-.29,1.78.03-.53-.19-1.62.28-1.95.33-.23,3.26-.23,3.59,0,.42.3.49,3.43-.02,4.02Z"></path>
  <path class="cls-39" d="M109.83,154.89c-.1-1.05-.05-2.47,0-3.56.5.85.49,2.77,0,3.56Z"></path>
  <path class="cls-97" d="M95.61,105.41l15.81-.25c.82.27.72,4.01-.11,4.7,1.08.33.83-.56.89-.59l.19-.64,6.21.1c1.14.58.74-2.63.58-2.71h-6.55s-.43-.59-.43-.59l15.56-.3c1.07.09.62,1.11.74,1.78-.45-.18-.91-.5-1.38-.98l-5.73.17c.26,1.5.06,2.56-.59,3.18.06-.23.16-.58.34-.59.76-.07,6.63-.16,6.94,0,.23.12.35.35.43.59-.97-.1-.76-2,0-2.37q.29,1.61,0,3.26l-.26.59h-3.96c-.86,3.02-.14,3.23,2.76,2.39l.58.28c-.51,1.13-.74.65-1.19,1.19-.71.91-2.52.85-3.26,0-.18-.45-.28-.45-.3,0-.22.84-.96.82-1.19,0-.78-.06-.74-.34,0-.59.39-.98.47-2.09.26-3.31l.63-.54c-.03.23-.1.57-.26.59-.65.07-5.03.1-5.33-.2-.1-.1-.15-.24-.19-.4.17.99.22,2.07.13,3.22,1.33-.15,2.23.06,2.68.63.48.21,1.17.41,2.07.59.22.51.11.76-.41.85-2.81-.17-3.08.18-2.25,2.71-2.03.49-.93-1.78-1.19-2.96l-.34,2.48c-.06.19-.18.37-.39.41-.18.03-3.01-.17-3.58-.2s-1.11.06-1.32-.61l.49-.4c.51.06,3.48.26,3.74.09.67-.45.17-1.94-.38-2.35-.07-.31-.26-.31-.59,0-.47.59-1.37.84-2.69.74.15.85-.04,1.39-.57,1.63-.81-.14-.52.75-1.32.9-1.39.25-3.42-.2-4.9,0-.24-.51-.13-.75.4-.85l4.32-.16c.46-1.29-.21-1.84-2-1.63l-.35-.62c.62-1.29-.33-.6-.59-.59-.95-.28-.91-3.49,0-3.85q.5,0,0,0l-.17.65c-2.11-.07-4.21-.09-6.32-.07v2.64s-.63.33-.63.33c-.88-.94.03-2.96,0-3.71-.02-.44-.85-.44-.87,0,0,.08.29.5.29.88,0,1.24-.16,2.52,0,3.71l-.37.59c-.84-.12-1.54-.05-2.3.3-.58-.56-1.12-.6,0-1.08v-.4s.42-.55.42-.55c1.37.31,1.82-.55,1.33-2.57-1.4-.16-2.78-.21-4.13-.13-.26-1.06-.58-2.92,0-3.85.82.24.92,2.22,0,2.37.06-.23.16-.58.34-.59,1.75-.15,4.9-.15,6.65,0l.42.59-.59-.32v-2.75c-1.85-.19-3.85-.34-5.77-.28l-.45-.49Z"></path>
  <path class="cls-62" d="M112.2,105.41h7.71s0,3.68,0,3.68c-.08.54-7.16-.14-7.71.17v-3.85Z"></path>
  <path class="cls-33" d="M95.61,105.41c1-.43,5.4.32,6.82,0v3.85h-7.41c.07-.76-.1-1.64,0-2.37.04-.31.44-1.42.59-1.48Z"></path>
  <path class="cls-84" d="M107.76,110.16v3.85c-1.02.04-6.9.16-7.11-.3.12-.77-.3-3.03.28-3.43.75-.52,6.39.19,6.83-.13Z"></path>
  <path class="cls-42" d="M108.35,114.6c.46.02,2.85.2,2.96.3.08.08.05,2.25-.03,2.34-.4.47-3.75.26-4.58.32-.4.03-.62.29-.72.31-.28.04-.6-.03-.89,0v-3.26c1.08.04,2.18-.05,3.26,0Z"></path>
  <path class="cls-9" d="M128.5,110.16c-.2,1.11-.42,2.23-.89,3.26-.56.73-3.33.84-3.87.46-.59-.41-.14-2.93-.28-3.72h5.04Z"></path>
  <path class="cls-42" d="M95.02,110.75c.98-1.23,3.36-.32,4.74-.59-.18,2.53,1.03,4.26-2.37,3.85-1.61-.19-2-1.77-2.37-3.26Z"></path>
  <path class="cls-82" d="M115.46,114.6c.23-.51.46-.55.59,0,1.95.26,1,1.33,1.19,2.96-.92-.1-4.55.23-5.04-.3-.03-.04.02-.19,0-.3-.05-.32-.05-1.94.03-2.04.25-.3,2.65-.35,3.23-.33Z"></path>
  <path class="cls-33" d="M111.32,105.41c.35,1.38.35,2.47,0,3.85h-8v-3.85h8Z"></path>
  <path class="cls-20" d="M128.5,106.9c.12.7-.08,1.63,0,2.37h-7.7v-3.85c1.68.33,5.56-.46,6.93.04.29.11.73,1.18.78,1.45Z"></path>
  <path class="cls-42" d="M115.46,110.16c-.13.81.31,3.31-.28,3.72-.43.3-6.14.24-6.41-.15s-.26-3.16.15-3.44c.77-.53,5.26.2,6.54-.13Z"></path>
  <path class="cls-22" d="M119.61,114.01c-.7,0-2.8.19-3.13-.28-.31-.44-.26-3.57.32-3.57h5.78c-.15.96.24,2.52-.04,3.38-.16.5-.79.41-.85.48-.67.49-1.38.47-2.07,0Z"></path>
  <path class="cls-44" d="M107.76,110.16s-.12-.6.15-.6c1.17,0,.11,2.92.44,3.86l-.59-3.26Z"></path>
  <path class="cls-44" d="M115.46,110.16c.06-.01.81-1.17.88-.15.04.58-.62,2.47-.29,3.41l-.59-3.26Z"></path>
  <path class="cls-44" d="M121.69,114.01c-.07.08.07.54,0,.59-.12.09-2.64.26-2.07-.59.69,0,1.38,0,2.07,0Z"></path>
  <path class="cls-44" d="M123.16,113.41c-.68-.41-.12-1.98-.29-2.66.68.39.12,1.98.29,2.66Z"></path>
  <path class="cls-44" d="M116.06,114.6c-.19-.02-.4,0-.59,0,.04-1.25,1.22-.9.59,0Z"></path>
  <path class="cls-44" d="M123.17,114.6c-.1,0-.2,0-.3,0-.71-1.07,1.01-1.07.3,0Z"></path>
  <rect class="cls-33" x="100.94" y="100.67" width="6.22" height="3.85"></rect>
  <rect class="cls-28" x="121.69" y="130.6" width="5.04" height="4.15"></rect>
  <rect class="cls-22" x="101.54" y="130.6" width="6.22" height="4.15"></rect>
  <polygon class="cls-84" points="105.09 139.78 96.5 139.79 96.8 135.64 105.09 135.64 105.09 139.78"></polygon>
  <rect class="cls-22" x="105.98" y="135.64" width="5.63" height="4.15"></rect>
  <path class="cls-42" d="M122.87,114.6c.05-.27.16-.26.3,0,1.08-.05,2.18.04,3.26,0-.07.09-.06.49-.28.74-.71.8-2.6,2.7-3.56,2.98-.63.18-2.88,0-3.57-.16-1.57-.37-.69-1.94-.89-3.26.93-.07,1.92.1,2.84.01.38-.04.68-.31.72-.31.39-.03.79.02,1.19,0Z"></path>
  <path class="cls-42" d="M100.06,114.6c1.38-.05,2.77.04,4.15,0v3.56c-1.08-.25-2.27.46-3.27.17-.83-.24-2.83-2.15-3.55-2.84,0-1.32,1.7-.85,2.67-.89Z"></path>
  <path class="cls-33" d="M105.39,145.71v3.85h-9.78c.02-.98-.03-1.98,0-2.96,0-.3-.01-.59,0-.89,3.25-.06,6.53.08,9.78,0Z"></path>
  <path class="cls-8" d="M181.83,85.72c-.05-.57-.71-4.72-.89-4.89-.22-.21-.74.07-1.02.31-1.26,1.09-2.55,3.13-4.01,4.29-.43.35-.88.79-1.49.74-.55-7.79-3.9-15.12-10.23-19.84l-3.41,11.55c-.21.2-5.07-1.92-5.34-2.22-.74-.83.03-2.95,0-4.14-.06-3.15-1.2-6.46-2.97-9.05-.91-1.33-1.81-1.76-2.8-2.98-.73-.9-1.35-2.49-1.99-3.34-.25-.34-.31-.6-.84-.49-1.55,3.82-1.65,7.8-2.08,11.84,0,0,0,0,0,0l-1.77-1.18c-6.58-7.36-16.31-10.45-26.07-8.89-.38.35,1.04,2.02,1.33,2.37,3.15,3.79,9,7.41,13.78,8.59,1.91.5,5.43,1.01,7.31,1.52-.85.03-1.9.27-2.86.85-.95.64-1.94,1.23-2.96,1.78-2.33,1.81-3.52,2.04-.2,3.91,2.48,1.39,6.71,2.1,9.55,2.03,3.02-.07,6.46-1.37,9.18-1.5.7-.03,1.1.02,1.73.34.24.12,2.92,2.16,3.01,2.32.22.39.2.49-.16.75-1.08.45-10.08,2.44-10.06,2.97,3.73,2.67,15.81,6.82,15.4,8.89l-1.19.45c-2,.13-3.9.94-5.93.89-.84.77,4.08,3.88,4.74,4.15,3.92,3.22,8.62,5.87,13.33,7.7.61.25.96.2,1.55,0,1.94-.66,5.94-6.51,6.45-8.6.58-3.74,1.22-7.26.88-11.11Z"></path>
  <path class="cls-8" d="M103.48,57.11c-2.59-.19-5.37-.07-7.86.6-3.97.45-8.07,2.53-11.23,4.91-1.78,1.34-3.17,3.2-4.76,4.42-.3.23-.38.57-.89.44-.2-3.3-.36-7.11-1.48-10.23-.11-.31-.63-1.8-1.04-1.62-.29.13-1.22,2.26-1.77,3.16-.52.59-1.13,1.3-1.71,2-1.46,1.47-2.71,2.4-3.71,5.42-1.06,3.21-.74,4.79-.64,7.92,0,.09,0,.17,0,.25,0,.07,0,.13-.01.2-.21,1.87-2.22,1.28-3.56,2.67-.72.17-1.11.36-1.77.59l-3.71-11.55c-6.32,4.71-9.48,12.13-10.22,19.85-.22.2-2.08-1.37-2.37-1.62-1-.87-2.37-2.89-3.09-3.43-.36-.28-.6-.34-1.05-.28-.09,2.24-.81,4.41-.9,6.65-.1,2.3.14,7.27.9,9.35.08,1.22-.33.16-.89,0,.16.59.29,1.39.63,1.89.63.92,1.99,2.2,2.75,3.17.98,1.24,2.38,4.29,4.32,4.12,1-.08,3.68-1.25,4.44-2.07,2.85-1.23,5.5-2.92,8-4.74,1.02-.2,6.71-4.48,6.82-4.89.06-.21.13-.69-.2-.74-1.09-.16-2.41-.17-3.44-.38-.81-.16-4.66-.96-4.66-1.55.6-.45,1.39-.75,2.07-1.04,4.49-1.87,7.66-3.03,11.85-5.63.65-.4,2.61-.58,2.67-2.07-.33-.35-7.91-1.86-9.25-2.45-.35-.16-.58-.36-.81-.66,0-.27,3.22-2.65,3.77-2.77.66-.13,4.81.69,6,.84,6.72.82,9.14.98,15.11-2.37.94-.49.59-1.15-.06-1.75-1.71-1.44-3.55-2.68-5.51-3.73,1.8-.62,3.65-1.17,5.56-1.64,5.64-1.53,11.29-5.62,14.81-10.23.19-.81-2.43-.99-3.1-1.04Z"></path>
  <path class="cls-59" d="M58.82,146.86s-6.93,21.96,21.92,33.9c25.71,10.63,31.55,21.22,31.55,21.22,0,0,13.78-13.03,27.99-19.53,18.02-8.24,26.57-16.51,24.6-36.02,0,0-1.03,13.4-17.89,21.77-21.01,10.43-34.73,20.88-34.73,20.88l-27.09-17.32s-25.12-9.81-26.37-24.89Z"></path>
  <path class="cls-92" d="M95.02,31.49c.22.68,7.25,1.52,8.45,1.63,6.76.6,14.53.49,21.29-.33,1.39-.17,7.75-1.07,8.57-1.5.39-.21.42-.23.51-.68.44-2.33-.11-6.35.29-8.89.17-1.18,1.07-.45,1.91-.43,20.05.43,39.3,5.35,54.28,19.35.52.48,4.14,4.25,4.22,4.55.36,1.39-3.27,2.23-2.5,3.65.24.44,1.57,1.06,2.08,1.49,10.19,8.48,19.28,18.65,25.62,30.33-2.85,2.7-5.83,5.23-8.72,7.88-1.16,1.07-2.58,3.04-3.84,3.86-.28.18-.76.46-1.04.27-.13-.09-1.04-2.42-1.34-2.96-9.73-17.13-25.97-30.27-42.8-40.01-.39-.55,2.02-4.19,1.63-4.73-4.51-2.31-9.39-3.85-14.39-4.73-.14.97.31,2.67-.27,3.43-.27.35-5.32,2.13-6.18,2.41-19.45,6.3-40.88,6.35-60.51.83-1.72-.48-5.81-1.56-7.19-2.29-1.46-.77-.48-2.88-.96-2.9-3.32.49-6.25,2.21-9.34,3.41-1.07,1,1.66,3.5.93,4.46-15.24,9.46-30.45,20.92-40.27,36.19-1.15,1.8-2.44,5.02-3.61,6.47-.19.23-.37.49-.71.42l-12.9-12.22c7.04-12.6,16.92-23.36,28.29-32.19.53-.96-2.32-1.85-1.9-3.35.1-.34,3.65-3.82,4.25-4.37,14.58-13.4,34.09-19.01,53.65-19.56.69-.02,2.01.04,2.5.46v10.07Z"></path>
  <path class="cls-12" d="M93.2,22.79l.06,14.35c-10.39.49-20.29,2.07-29.55,6.9-6.01,3.13-11.22,7.5-16.6,11.56l-10.75-10.18c14.23-15.61,35.91-23.05,56.84-22.62Z"></path>
  <path class="cls-78" d="M77.25,30.45l.89,5.33-1.52-.17-1.71-7.95c2.51-1.95,3.16,3.31,5,4.27-.08-1.04-1.31-4.4-1.15-5.16.12-.54,1.08-.64,1.47-.34.31.23,1.69,6.78,1.74,7.47.03.4.1.91-.26,1.17-1.64,1.18-3.39-3.94-4.46-4.61Z"></path>
  <path class="cls-23" d="M60.61,40.78c.9-1.4-2.41-5.38-2.62-6.93-.09-.64,1.09-.84,1.48-.6.3.19,2.86,5.64,2.95,6.26.39,2.74-3.34,4.05-4.89,2.22-.34-.41-2.66-5.09-2.87-5.74-.31-.95-.09-.93.82-1.33,1.5.82,2.72,6.34,4.13,6.44.18.01.94-.23,1-.32Z"></path>
  <path class="cls-46" d="M74.84,36.65c-.12.18-3.81,1.33-4.14,1.09-.35-.26-2.31-7.4-2.36-8.47,1.03.29,3.66-1.54,4.3-.6,1.15,1.67-2.95.8-2.19,3.08.47,1.42,2.85-.94,3.22.34.45,1.58-2.46.76-2.32,2.29.25,2.68,2.7.61,3.21.95.34.24.43,1.08.26,1.32Z"></path>
  <path class="cls-49" d="M67.16,33.72c.08.06.4,1.37.31,1.47-1.55-.13-2.85,1.05-1.81,2.49.72,1,3.7-1.95,3.27,1.04-1.16.01-2.9,1.44-3.93,1.23-.41-.09-2.7-6.92-3.13-7.85.72-.51,4.44-2.6,4.43-.91,0,1.12-2.61.95-2.27,2.23.53,1.96,2.6-.07,3.13.3Z"></path>
  <path class="cls-23" d="M57.09,44.97c-.06.06-1.12-.07-1.57.06-1.24.37-1.59,2.29-3.88,1.08-1.99-1.05-5.56-7.37-1.45-8.48,2.43-.65,4.22,2.62,5.17,4.46.22.43.17,1.08.39,1.39.13.18,2.09.77,1.33,1.48Z"></path>
  <path class="cls-16" d="M53.54,44.97c-.84.89-3.86-4.11-3.84-4.9.02-1.19,1.45-1.22,2.23-.45.12.12,1.71,2.83,1.77,3,.25.8-.3,1.55-.15,2.35Z"></path>
  <path class="cls-13" d="M133.83,32.82v5.63c1.72.31,13.33.9,13.91,1.5.13.14-.03,2.41-.01,2.92-3,.77-5.88,2.02-8.85,2.85-18.9,5.28-38.68,4.95-57.48-.6-.89-.26-5.2-1.44-5.49-1.92s-.37-2.09.36-2.32c3.73-.71,7.47-1.36,11.24-1.8,1.09-.13,7.82-.21,7.82-1.07v-4.59c12.84,2.31,25.73,1.75,38.52-.59Z"></path>
  <path class="cls-73" d="M102.72,45.12c-.16,1.38-.43,1.51-1.78,1.33.14-1.21.06-8.09.43-8.61.31-.45,2.05-.45,2.4.01.68.9.13,3.76,1.18,4.74.43-.78.78-4.25,1.32-4.6.43-.28,1.97-.26,2.25.14.3.43-.1,8.65-.47,8.91-2.88-.31-.56-4.2-1.18-6.22-.43,0-.57.91-.67,1.25-.34,1.16-.58,3.56-1.1,4.48-.17.3-.53.29-.74.19-.76-.35-.86-4.35-1.12-5.4-.08-.3-.08-.89-.51-.82-.12,1.47.17,3.15,0,4.59Z"></path>
  <path class="cls-24" d="M127.91,36.68c.39.41-1.12,4.19-1.18,5.19-.09,1.4.43,2.61.3,3.99-.35-.06-1.33.11-1.47-.02s-.39-2.86-.67-3.63-2.99-4.29-2.6-4.65c2.53-.73,1.79,1.81,3.55,2.37-.5-.91,1.1-4.28,2.07-3.26Z"></path>
  <path class="cls-24" d="M122.57,46.45c-.39-.07-1.61.13-1.76-.01-.52-.5.47-4.35-2.38-3.54-.17.16.16,3.05.01,3.65-.08.31-1.07.69-1.36.21-.38-.64-.97-8.41-.45-8.77.61-.43,4.15-.33,4.77.6,1.17,1.77-.1,2.51.04,3.49.08.55,1.55,3.99,1.14,4.37Z"></path>
  <path class="cls-100" d="M118.13,39.04c2.17-.65,2.97,2.33.97,2.62-1.43.21-.89-1.66-.97-2.62Z"></path>
  <path class="cls-46" d="M115.46,47.05c-2.54.44-1.37-1.29-1.91-2.09-.3-.44-1.43-.42-1.8.02-.89,1.05.55,2.61-2.22,2.07.48-1.12,1.47-8.56,1.79-8.87.1-.1,2.24-.15,2.52.27l1.62,8.61Z"></path>
  <path class="cls-36" d="M113.09,43.49c-.29-.05-1.1.07-1.18,0-.12-.12.29-2.92.74-3.26.51,1,.48,2.17.44,3.26Z"></path>
  <path class="cls-40" d="M135.36,36.93l.25-14.18c20.85-.31,42.83,6.79,56.87,22.63l-10.5,10.27c-9.31-7.48-18.41-13.87-30.31-16.52-5.39-1.2-10.88-1.55-16.32-2.2Z"></path>
  <path class="cls-24" d="M144.8,28.68c-2.12.67-1.25-1.42-2.27-1.75-2.12-.68-2.23,5.54-1.84,6.14.51.81,2.59.13,1.99-1.55-.07-.2-1.54-.93-.85-1.66.08-.09,2.12-.06,2.39.13.83.58-.21,3.64-.02,4.61-1.85-.47-4.67.97-5.27-1.69-.32-1.44.03-5.72,1.11-6.76,1.75-1.7,5.45-.1,4.75,2.53Z"></path>
  <path class="cls-49" d="M172.02,34.35c.17.27.05.87-.04,1.21-.2.74-2.57,5.5-3.02,5.87-1.6,1.31-4.52-.18-4.63-1.93-.05-.84,2.44-6.49,2.98-6.83.45-.28,1.39-.18,1.49.31s-2.52,4.96-2.67,5.95c-.19,1.27.92,2.24,1.91,1,.84-1.05,2.16-5.32,2.82-5.79.26-.18,1.08.11,1.15.22Z"></path>
  <path class="cls-24" d="M184.11,42.93c.87-.26,3.62,2.08,3.33,3.05-.45,1.52-2.26-1.52-3.25-.88-1.71,1.1,1.17,2.25.9,3.27-.09.35-.59.51-.99.4-.9-.24-.92-2.01-2.43-.56-1.79,1.72,1.14,1.79,1.32,2.87.07.41-.55.99-.96.95-.45-.04-3.28-2.37-3.13-3.01,1.05-.8,4.41-5.85,5.21-6.09Z"></path>
  <path class="cls-88" d="M177.05,47.6c-.59.34-1.61-.48-1.41-1.23.21-.81,3.53-3.96,3.78-4.87.18-.66-1.91-3.27.14-2.7.33.09,3.81,2.87,3.73,3.32-.29,1.61-2.04-.17-2.35.02-.74.44-3.48,5.22-3.89,5.45Z"></path>
  <path class="cls-27" d="M151.31,27.79c.43.74.48,1.84.14,2.66-.11.26-.6.46-.69.81-.16.61.63,2.86-.04,3.94.54.12.58-.17.84-.5.74-.94,3.04-6.38,3.35-6.58s1.98.22,2.2.55c.78,1.18-.62,7.15-.16,8.9-2.5.38-1.3-2.6-2.26-2.92-1.87-.63-1.23,1.38-2.39,1.69-.32.09-2.92-.46-3.02-.58-.22-.25.09-3.15-.03-3.82.78-1.29,1.47-2.67,2.07-4.15Z"></path>
  <path class="cls-14" d="M155.76,30.45l-.3,2.96c-2.22.25-1.09-1.1-.42-2.36.21-.4-.09-.76.72-.6Z"></path>
  <path class="cls-23" d="M159.61,38.45c-.44-.12-1.92-.54-1.92-1.02l1.92-5.2c.68-2.62.54-3.2,3.62-1.69,2.62,1.29,1.84,2.91.97,5.24-.97,2.6-1.74,3.95-4.58,2.67Z"></path>
  <path class="cls-27" d="M159.61,38.45c-.66-.06-2.07-.2-2.08-1.02,0-.89,1.65-4.15,2.08-5.2-.46,1.74-.77,3.6-1.77,5.19,0,.1,1.5.91,1.77,1.03Z"></path>
  <path class="cls-67" d="M161.82,31.44c2.87-.32.27,5.79-.64,6.07-.65.2-1.52.14-1.58-.69-.05-.63,1.71-5.33,2.22-5.38Z"></path>
  <path class="cls-88" d="M169.4,43.18c-.19-.29.02-.59.19-.86.33-.5,5.08-5.33,5.43-5.5.7-.32,1.91.1,2.24.75.2.39-2.47,7.91-2.82,8.17-.38.28-1.37-.27-1.46-.65-.14-.58,1.27-1.99-.04-2.64s-1.58.83-2.28,1c-.24.06-1.21-.2-1.26-.27Z"></path>
  <path class="cls-70" d="M175.31,38.75c.08.85-.37,1.87-.81,2.58-.6.96-1.61.06-1.11-.81l1.93-1.78Z"></path>
  <path class="cls-17" d="M151.31,27.79c.78,1.68-1.02,2.93-1.12,3.44-.12.61.6,3.91.23,4.26h-.89c-.39-1.16.86-2.9-.3-3.56-3-1.71-1.88,2.76-2.37,3.26-.09.1-1.15-.05-1.48,0-.02-.63-.02-1.26.04-1.89.08-.88,1.02-6.3,1.29-6.71.4-.61,4.02.21,4.6,1.19Z"></path>
  <path class="cls-85" d="M149.76,28.16c1.17.99-.42,2.99-2,2.3l.31-2.66c.15-.1,1.51.21,1.68.36Z"></path>
  <path class="cls-34" d="M63.29,46.47c.07.9,1.25,1.74.65,2.51-14.27,9.01-28.4,19.57-38.08,33.63-.76,1.1-4.22,7.36-4.61,7.56-.43.22-.96-.22-1.25-.47-3.06-2.54-5.96-5.67-8.82-8.46-.23-.22-.76-.38-.83-.49-.54-.91,1.87-4.31,2.48-5.25,6.61-10.12,15.21-18.87,24.72-26.26h.58s7.81,7.76,7.81,7.76l1.19.67c2.92-2.42,5.88-4.85,8.98-7.02.94-.66,6.55-4.64,7.18-4.18Z"></path>
  <path class="cls-78" d="M20.34,75.21c.06,2.22-1.53.91-2.46,1.2-2.01.63,2.59,4.64,3.83,4.72,1.53.09,1.67-1.7.41-2.24-.76-.32-1.49.61-2.06-.29.72-3.68,4.6-.77,5.04,1.34-1.28-.28-.72.78-1.34,1.77-1.69,2.69-5.5-.36-6.96-1.91-2.43-2.57.55-6.5,3.55-4.59Z"></path>
  <path class="cls-49" d="M30.13,61.27c.35,1.53,5.06,6.61,4.61,7.69-.51,1.24-1.62.87-2.55.47-.7-.31-6.07-3.54-6.18-3.89s-.06-.65.26-.87c1.21-.83,4.51,2.52,5.93,2.82.43-.44-3.42-4.31-3.53-4.93-.08-.44,1.1-1.53,1.45-1.29Z"></path>
  <path class="cls-78" d="M35.72,57.38c-.15.24-1.23.05-.7,1.22.36.8,4.89,4.51,4.89,4.89-.28.2-.81.98-1.04,1.03-.49.1-4.57-4.83-5.58-5.01-.37.53-1.69,1.41-1.96.42-.12-.45,1.13-1.74,1.46-2.09.21-.22,1.93-1.72,2.1-1.77.53-.16,1.11.85.84,1.3Z"></path>
  <path class="cls-3" d="M41.6,59.52c1.1-.28,1.79,1.37.47,1.71-1.1.28-1.79-1.37-.47-1.71Z"></path>
  <path class="cls-47" d="M23.54,68.13c2.02-.42,6.59,3.59,6.3,5.7-.15,1.08-1.69,2.5-2.82,2.5-1.63,0-5.86-3.72-5.8-5.43.04-1.06,1.29-2.56,2.32-2.77Z"></path>
  <path class="cls-86" d="M23.53,69.61c.38-.11.62-.06.97.1.57.27,3.86,3.34,3.87,3.85.02,3.4-8.02-3.06-4.83-3.96Z"></path>
  <path class="cls-21" d="M199.19,56.66c5.17,4.76,10.81,11.26,14.76,17.08.66.98,3.55,5.34,3.68,6.12.07.43.12.8-.23,1.14l-10.5,9.3c-2.68-4.3-5.3-8.62-8.48-12.58-9.3-11.54-21.87-21.01-34.53-28.58-.46-.64,1.07-2.37,1.06-3.27,1.06-.77,15.25,10.56,17.29,11.82l8.34-8.21c3,2.23,5.88,4.66,8.62,7.19Z"></path>
  <path class="cls-52" d="M209.98,73.12c.91,1.25.77,2.19.89,3.56-.08.84-1.1,1.62-1.94,1.21.05.67-.19,1.06-.73,1.16-.93.93-1.93,1.83-2.98,2.65-.52-.81-1.11-1.39-1.76-1.77-.47-.65-1.98-1.86-1.48-2.67.55-1.67,1.52-2.74,2.91-3.21.63-2.07,3.58-2.12,5.09-.93Z"></path>
  <path class="cls-49" d="M211.46,77.27c.21-.13.51-.33.75-.31.63.05,2.9,3.19,2.68,3.57-.11.19-.93.62-1.17.56-.87-.2-.8-3.58-3.13-.99-.1.43,2.13,2.41.73,2.79-1.04.29-1.35-1.64-2.11-1.76-.09-.01-1.5.83-1.55.91-.5.86,2.73,3.12.66,3.49-.49.09-2.33-2.4-2.77-2.94-.85-1.06,1.72-2.85,2.67-2.96.28-1.46,2.05-2.24,3.26-2.37Z"></path>
  <path class="cls-52" d="M192.8,56.23c.81.47-.9,1.86-1.35,1.94-1.35.25-1.21-1.96-1.04-2.83-1.63.74-2.89,2.3-3.8,3.83,2.17-.71,2.95-.5,2.34.62.1.35-.64,1.14-.59,1.19-1.71,1.59-4.23-.86-3.79-2.75.26-1.12,3.53-4.59,4.61-4.88,1.84-.49,3.9,1.06,3.63,2.89Z"></path>
  <path class="cls-17" d="M198.72,62.16c-.53.99-4.53,4.25-4.42,4.85.02.11,1.35,1.7,1.43,1.78.27.25.31.3.71.14,1.16-.44,3.48-3.96,4.65-4.57.6-.31,1.11.48,1.39.9-.42,1.06-4.8,4.33-4.93,5.08-.03.17,1.63,2.59,2.35,2.18.46.69-.24,1.51-.89,1.78-1.65-1.98-3.81-4.04-5.63-5.93l.26-.62c-1.58-1.17,4.02-5.99,4.41-5.92.25.05.48.12.67.31Z"></path>
  <path class="cls-23" d="M207.61,70.75c.4,2.69-1.77,1.9-2.7-.02-.28.18-.64.41-.55.79,2.34,2.21-.48,4.46-1.98,1.6-1.31.45-1.27,1.12.1,2.01.85,1.45-1.08,2.89-1.99,1.25-.49-.69-.94-1.42-1.48-2.07-.11-.75.48-1.24.89-1.78.54-.69,4.36-4.35,4.94-4.4.77-.07,2.04,2.15,2.76,2.62Z"></path>
  <path class="cls-67" d="M192.8,56.23c.26.7,1.04.5,1.78.89-.82-.09-1.5.23-2.17.64-1.06.64-2.22,2.81-3.46,2.02-.09-.06-.18-.53-.47-.57-.17-.02-2.25,1.32-2.49.12-.16-.81,3.64-5.28,4.76-4.46.83.61-.64,2.32.76,2.82.49.1,1.26-1.2,1.3-1.47Z"></path>
  <path class="cls-101" d="M207.61,70.75c.21.14.74-.31.6.45-.09.47-.47.64-.6,1.03,1.1-.05,1.7-.02,2.37.89-2.84-1.68-6.2,1.73-7.52,4.05-.08.15-.47.08-.48.1-1.42.26-1.12-.37-1.48-.89.64.66,1.38.79,1.73-.2.28-.76-1.45-1.4-1.7-2.32,2.7-2.85,2.19-.22,3.43.1,2.18.57-.05-1.98-.14-2.24-.3-.84.66-1.63,1.24-1.54.54.09,2.1,3.67,2.55.57Z"></path>
  <path class="cls-30" d="M210.87,76.67c.05.58-.2.67.59.59-.86.55-2.42,1.71-3.26,2.37-.96.44-.87-.12,0-.59.6-1.88-1.78-3.05-2.05-1.89-.13.57.85,1.76-1.09,1.89-3.5.23,2.18-5.33,3.52-5.01,1.68.4.14,2.55.33,2.93.59,1.16,1.28.2,1.95-.29Z"></path>
  <path class="cls-88" d="M198.72,62.16c-.89.32-4.54,3.8-4.7,4.36-.37,1.34,1.58,1.87,1.44,2.6-.21,1.14-1.54-.98-2.07-.74-1.34-1.4-2.17-1.26-.3-2.96.43-.58,3.61-4.13,3.92-4.17.17-.02.35,0,.53.02.14-.14.19-.49.45-.59.92.29,1.19.62.73,1.48Z"></path>
  <path class="cls-95" d="M208.2,79.04c-.05.15-.21.29-.29.45l.29.15c-.82.65-2.63,1.94-2.67,2.96-.72-.88-1.42-1.75-2.07-2.67.57.11,1.1-.41,1.19.46.04.44-.25.84.44.73.95-.15,2.04-1.93,3.11-2.08Z"></path>
  <path class="cls-49" d="M194.57,57.12c.61.32,1.77,1.16,2.07,1.78.9,2.74-1.95,5.21-4.15,6.22-1.76.97-4.16-.72-4.12-2.53.01-.51.77-1.36.56-1.62-.05-.07-.51.07-.59,0-.64-.54-.14-1.21.59-1.19,1.37-.91,2.71-1.89,4.01-2.93l1.62.26Z"></path>
  <path class="cls-79" d="M196.65,58.9c.58,1.17-.18,2.54.89,2.37-1.58,1.63-2.84,2.68-4.44,4.15l-.59-.3c1.51-.83,4.77-4.2,4.15-6.22Z"></path>
  <path class="cls-75" d="M195.13,58.93c1.01,1.6-5.07,7.32-5.03,3.96.01-.83,3.27-4.12,4.07-4.22.19-.02.9.17.96.26Z"></path>
  <path class="cls-83" d="M1.53,43.59s41.73.93,53.88-41.11c0,0,56,41.11,116.79,0,0,0,12.78,38.94,54.2,40.81,0,0,5.59,139.82-112.29,206.15,0,0-109.78-53.25-112.58-205.85Z"></path>
  <polygon class="cls-51" points="127.32 145.71 127.61 149.56 120.2 149.56 120.2 145.71 127.32 145.71"></polygon>
  <rect class="cls-5" x="113.09" y="145.71" width="6.22" height="3.85"></rect>
  <rect class="cls-84" x="106.28" y="145.71" width="5.93" height="3.85"></rect>
  <path class="cls-84" d="M110.13,150.45c.46.3,5.76-.22,6.81,0v5.04c-1.86-.31-5.16.42-6.81,0-.39-.1-.27-.3-.3-.59.21-1.18.23-2.38,0-3.56.01-.33-.09-.75.3-.89Z"></path>
  <path class="cls-32" d="M127.61,150.45c0,1.71.45,3.32.3,5.04h-3.85v-5.04h3.56Z"></path>
  <path class="cls-84" d="M100.95,155.49v-5.04h8.3v4.59c0,.32-.72.42-1.02.46-2.24.26-4.98-.22-7.27-.02Z"></path>
  <path class="cls-26" d="M95.02,155.49c.15-.76.16-5.04.74-5.04h4.3v5.04h-5.04Z"></path>
  <path class="cls-25" d="M104.8,156.38v4.59c0,.77-2.22.15-2.8.13-1.97-.05-3.98-.02-5.96,0-.69,0-1.52.64-1.49-.3.02-.71.14-4.42.62-4.42h9.63Z"></path>
  <path class="cls-25" d="M113.69,156.38v4.74c-2.7.05-5.3.25-8,0v-4.74h8Z"></path>
  <path class="cls-22" d="M121.69,156.38v4.74c-2.33.41-4.73-.09-7.11,0v-4.74h7.11Z"></path>
  <path class="cls-87" d="M127.91,156.38c-.38,1.05.76,4.37,0,4.91-.12.08-2.23-.19-2.84-.18-.5,0-2.5.67-2.5-.14v-4.59c1.34-.02,2.68.03,4.02,0,.38,0,.67-.3.72-.31.17-.01.38.27.59.3Z"></path>
  <path class="cls-94" d="M128.2,162.01c-.05.67.08,1.43,0,2.07-.14,1.12-1.04,2.16-2.07,1.78.08-1.27-.06-2.58,0-3.85h2.08Z"></path>
  <path class="cls-69" d="M94.43,162.01h5.63s0,5.04,0,5.04c-.39-.02-.8.03-1.19,0-1.38-.13-1.1-.64-1.92-1.19-1.15-.77-2.35-.9-2.52-2.37-.05-.46.02-1,0-1.48Z"></path>
  <path class="cls-29" d="M113.39,179.19c.7.86-1.11,3.87-1.92,3.86-.21,0-1.78-3.33-1.34-3.86,1.01.07,2.24.05,3.26,0Z"></path>
  <path class="cls-50" d="M58.01,134.21s7.26,13.08,27.47,23.58,26.31,24.71,26.31,24.71c0,0,10.9-17.82,23.85-22.83,12.95-5.01,30.52-25.17,30.52-25.17,0,0,1.81,25-18.1,33.58-19.91,8.58-36,21.53-36,21.53,0,0-31.44-19.3-37.27-21.93-9.78-4.41-18.64-16.04-16.77-33.48Z"></path>
  <rect class="cls-37" x="100.95" y="162.01" width="8.89" height="5.04"></rect>
</svg>
